<!DOCTYPE svg PUBLIC "-//W3C//DTD SVG 1.1//EN" "http://www.w3.org/Graphics/SVG/1.1/DTD/svg11.dtd">
<svg xmlns="http://www.w3.org/2000/svg" xmlns:xlink="http://www.w3.org/1999/xlink" xmlns:jfreesvg="http://www.jfree.org/jfreesvg/svg" width="421" height="476" text-rendering="auto" shape-rendering="auto">
<defs><linearGradient id="2940537322625047gp1" x1="81" y1="0" x2="81" y2="0" gradientUnits="userSpaceOnUse"><stop offset="0%" style="stop-color: rgb(255,255,255);"/><stop offset="100%" style="stop-color: rgb(85,85,255);"/></linearGradient>
<linearGradient id="2940537322625047gp5" x1="83" y1="0" x2="84" y2="0" gradientUnits="userSpaceOnUse"><stop offset="0%" style="stop-color: rgb(255,255,255);"/><stop offset="100%" style="stop-color: rgb(85,85,255);"/></linearGradient>
<linearGradient id="2940537322625047gp20" x1="80.68" y1="0" x2="81" y2="0" gradientUnits="userSpaceOnUse"><stop offset="0%" style="stop-color: rgb(255,85,85);"/><stop offset="100%" style="stop-color: rgb(255,255,255);"/></linearGradient>
<linearGradient id="2940537322625047gp42" x1="123" y1="0" x2="123" y2="0" gradientUnits="userSpaceOnUse"><stop offset="0%" style="stop-color: rgb(255,85,85);"/><stop offset="100%" style="stop-color: rgb(255,121,121);"/></linearGradient>
<linearGradient id="2940537322625047gp11" x1="88" y1="0" x2="88.14" y2="0" gradientUnits="userSpaceOnUse"><stop offset="0%" style="stop-color: rgb(121,121,255);"/><stop offset="100%" style="stop-color: rgb(85,85,255);"/></linearGradient>
<linearGradient id="2940537322625047gp8" x1="85.66" y1="0" x2="86" y2="0" gradientUnits="userSpaceOnUse"><stop offset="0%" style="stop-color: rgb(85,85,255);"/><stop offset="100%" style="stop-color: rgb(255,255,255);"/></linearGradient>
<linearGradient id="2940537322625047gp9" x1="86" y1="0" x2="86" y2="0" gradientUnits="userSpaceOnUse"><stop offset="0%" style="stop-color: rgb(255,255,255);"/><stop offset="100%" style="stop-color: rgb(85,85,255);"/></linearGradient>
<linearGradient id="2940537322625047gp18" x1="332" y1="0" x2="334" y2="0" gradientUnits="userSpaceOnUse"><stop offset="0%" style="stop-color: rgb(85,85,255);"/><stop offset="100%" style="stop-color: rgb(121,121,255);"/></linearGradient>
<linearGradient id="2940537322625047gp30" x1="88" y1="0" x2="89" y2="0" gradientUnits="userSpaceOnUse"><stop offset="0%" style="stop-color: rgb(255,85,85);"/><stop offset="100%" style="stop-color: rgb(255,121,121);"/></linearGradient>
<linearGradient id="2940537322625047gp25" x1="84" y1="0" x2="84" y2="0" gradientUnits="userSpaceOnUse"><stop offset="0%" style="stop-color: rgb(255,255,255);"/><stop offset="100%" style="stop-color: rgb(255,85,85);"/></linearGradient>
<linearGradient id="2940537322625047gp28" x1="87.73" y1="0" x2="88" y2="0" gradientUnits="userSpaceOnUse"><stop offset="0%" style="stop-color: rgb(255,85,85);"/><stop offset="100%" style="stop-color: rgb(255,255,255);"/></linearGradient>
<linearGradient id="2940537322625047gp43" x1="123" y1="0" x2="123.54" y2="0" gradientUnits="userSpaceOnUse"><stop offset="0%" style="stop-color: rgb(255,121,121);"/><stop offset="100%" style="stop-color: rgb(255,85,85);"/></linearGradient>
<linearGradient id="2940537322625047gp12" x1="90.63" y1="0" x2="91" y2="0" gradientUnits="userSpaceOnUse"><stop offset="0%" style="stop-color: rgb(85,85,255);"/><stop offset="100%" style="stop-color: rgb(255,255,255);"/></linearGradient>
<linearGradient id="2940537322625047gp31" x1="89" y1="0" x2="88.73" y2="0" gradientUnits="userSpaceOnUse"><stop offset="0%" style="stop-color: rgb(255,121,121);"/><stop offset="100%" style="stop-color: rgb(255,85,85);"/></linearGradient>
<linearGradient id="2940537322625047gp37" x1="95" y1="0" x2="95" y2="0" gradientUnits="userSpaceOnUse"><stop offset="0%" style="stop-color: rgb(255,255,255);"/><stop offset="100%" style="stop-color: rgb(255,85,85);"/></linearGradient>
<linearGradient id="2940537322625047gp32" x1="91.04" y1="0" x2="91" y2="0" gradientUnits="userSpaceOnUse"><stop offset="0%" style="stop-color: rgb(255,85,85);"/><stop offset="100%" style="stop-color: rgb(255,255,255);"/></linearGradient>
<linearGradient id="2940537322625047gp35" x1="92" y1="0" x2="92.04" y2="0" gradientUnits="userSpaceOnUse"><stop offset="0%" style="stop-color: rgb(255,121,121);"/><stop offset="100%" style="stop-color: rgb(255,85,85);"/></linearGradient>
<linearGradient id="2940537322625047gp21" x1="81" y1="0" x2="81" y2="0" gradientUnits="userSpaceOnUse"><stop offset="0%" style="stop-color: rgb(255,255,255);"/><stop offset="100%" style="stop-color: rgb(255,85,85);"/></linearGradient>
<linearGradient id="2940537322625047gp36" x1="94.77" y1="0" x2="95" y2="0" gradientUnits="userSpaceOnUse"><stop offset="0%" style="stop-color: rgb(255,85,85);"/><stop offset="100%" style="stop-color: rgb(255,255,255);"/></linearGradient>
<linearGradient id="2940537322625047gp13" x1="91" y1="0" x2="91" y2="0" gradientUnits="userSpaceOnUse"><stop offset="0%" style="stop-color: rgb(255,255,255);"/><stop offset="100%" style="stop-color: rgb(85,85,255);"/></linearGradient>
<linearGradient id="2940537322625047gp39" x1="96" y1="0" x2="95.77" y2="0" gradientUnits="userSpaceOnUse"><stop offset="0%" style="stop-color: rgb(255,121,121);"/><stop offset="100%" style="stop-color: rgb(255,85,85);"/></linearGradient>
<linearGradient id="2940537322625047gp34" x1="91" y1="0" x2="92" y2="0" gradientUnits="userSpaceOnUse"><stop offset="0%" style="stop-color: rgb(255,85,85);"/><stop offset="100%" style="stop-color: rgb(255,121,121);"/></linearGradient>
<linearGradient id="2940537322625047gp16" x1="331.83" y1="0" x2="332" y2="0" gradientUnits="userSpaceOnUse"><stop offset="0%" style="stop-color: rgb(85,85,255);"/><stop offset="100%" style="stop-color: rgb(255,255,255);"/></linearGradient>
<linearGradient id="2940537322625047gp33" x1="91" y1="0" x2="91" y2="0" gradientUnits="userSpaceOnUse"><stop offset="0%" style="stop-color: rgb(255,255,255);"/><stop offset="100%" style="stop-color: rgb(255,85,85);"/></linearGradient>
<linearGradient id="2940537322625047gp41" x1="123" y1="0" x2="123" y2="0" gradientUnits="userSpaceOnUse"><stop offset="0%" style="stop-color: rgb(255,255,255);"/><stop offset="100%" style="stop-color: rgb(255,85,85);"/></linearGradient>
<linearGradient id="2940537322625047gp2" x1="81" y1="0" x2="83" y2="0" gradientUnits="userSpaceOnUse"><stop offset="0%" style="stop-color: rgb(85,85,255);"/><stop offset="100%" style="stop-color: rgb(121,121,255);"/></linearGradient>
<linearGradient id="2940537322625047gp19" x1="334" y1="0" x2="334.32" y2="0" gradientUnits="userSpaceOnUse"><stop offset="0%" style="stop-color: rgb(121,121,255);"/><stop offset="100%" style="stop-color: rgb(85,85,255);"/></linearGradient>
<linearGradient id="2940537322625047gp15" x1="93" y1="0" x2="93.11" y2="0" gradientUnits="userSpaceOnUse"><stop offset="0%" style="stop-color: rgb(121,121,255);"/><stop offset="100%" style="stop-color: rgb(85,85,255);"/></linearGradient>
<linearGradient id="2940537322625047gp3" x1="83" y1="0" x2="83.17" y2="0" gradientUnits="userSpaceOnUse"><stop offset="0%" style="stop-color: rgb(121,121,255);"/><stop offset="100%" style="stop-color: rgb(85,85,255);"/></linearGradient>
<linearGradient id="2940537322625047gp10" x1="86" y1="0" x2="88" y2="0" gradientUnits="userSpaceOnUse"><stop offset="0%" style="stop-color: rgb(85,85,255);"/><stop offset="100%" style="stop-color: rgb(121,121,255);"/></linearGradient>
<linearGradient id="2940537322625047gp6" x1="84" y1="0" x2="85" y2="0" gradientUnits="userSpaceOnUse"><stop offset="0%" style="stop-color: rgb(85,85,255);"/><stop offset="100%" style="stop-color: rgb(121,121,255);"/></linearGradient>
<linearGradient id="2940537322625047gp38" x1="95" y1="0" x2="96" y2="0" gradientUnits="userSpaceOnUse"><stop offset="0%" style="stop-color: rgb(255,85,85);"/><stop offset="100%" style="stop-color: rgb(255,121,121);"/></linearGradient>
<linearGradient id="2940537322625047gp40" x1="122.54" y1="0" x2="123" y2="0" gradientUnits="userSpaceOnUse"><stop offset="0%" style="stop-color: rgb(255,85,85);"/><stop offset="100%" style="stop-color: rgb(255,255,255);"/></linearGradient>
<linearGradient id="2940537322625047gp4" x1="83.17" y1="0" x2="83" y2="0" gradientUnits="userSpaceOnUse"><stop offset="0%" style="stop-color: rgb(85,85,255);"/><stop offset="100%" style="stop-color: rgb(255,255,255);"/></linearGradient>
<linearGradient id="2940537322625047gp23" x1="81" y1="0" x2="81.68" y2="0" gradientUnits="userSpaceOnUse"><stop offset="0%" style="stop-color: rgb(255,121,121);"/><stop offset="100%" style="stop-color: rgb(255,85,85);"/></linearGradient>
<linearGradient id="2940537322625047gp27" x1="85" y1="0" x2="85" y2="0" gradientUnits="userSpaceOnUse"><stop offset="0%" style="stop-color: rgb(255,121,121);"/><stop offset="100%" style="stop-color: rgb(255,85,85);"/></linearGradient>
<linearGradient id="2940537322625047gp24" x1="84" y1="0" x2="84" y2="0" gradientUnits="userSpaceOnUse"><stop offset="0%" style="stop-color: rgb(255,85,85);"/><stop offset="100%" style="stop-color: rgb(255,255,255);"/></linearGradient>
<linearGradient id="2940537322625047gp0" x1="80.68" y1="0" x2="81" y2="0" gradientUnits="userSpaceOnUse"><stop offset="0%" style="stop-color: rgb(85,85,255);"/><stop offset="100%" style="stop-color: rgb(255,255,255);"/></linearGradient>
<linearGradient id="2940537322625047gp26" x1="84" y1="0" x2="85" y2="0" gradientUnits="userSpaceOnUse"><stop offset="0%" style="stop-color: rgb(255,85,85);"/><stop offset="100%" style="stop-color: rgb(255,121,121);"/></linearGradient>
<linearGradient id="2940537322625047gp14" x1="91" y1="0" x2="93" y2="0" gradientUnits="userSpaceOnUse"><stop offset="0%" style="stop-color: rgb(85,85,255);"/><stop offset="100%" style="stop-color: rgb(121,121,255);"/></linearGradient>
<linearGradient id="2940537322625047gp17" x1="332" y1="0" x2="332" y2="0" gradientUnits="userSpaceOnUse"><stop offset="0%" style="stop-color: rgb(255,255,255);"/><stop offset="100%" style="stop-color: rgb(85,85,255);"/></linearGradient>
<linearGradient id="2940537322625047gp29" x1="88" y1="0" x2="88" y2="0" gradientUnits="userSpaceOnUse"><stop offset="0%" style="stop-color: rgb(255,255,255);"/><stop offset="100%" style="stop-color: rgb(255,85,85);"/></linearGradient>
<linearGradient id="2940537322625047gp22" x1="81" y1="0" x2="81" y2="0" gradientUnits="userSpaceOnUse"><stop offset="0%" style="stop-color: rgb(255,85,85);"/><stop offset="100%" style="stop-color: rgb(255,121,121);"/></linearGradient>
<linearGradient id="2940537322625047gp7" x1="85" y1="0" x2="85.66" y2="0" gradientUnits="userSpaceOnUse"><stop offset="0%" style="stop-color: rgb(121,121,255);"/><stop offset="100%" style="stop-color: rgb(85,85,255);"/></linearGradient>
<clipPath id="2940537322625047clip-0"><path d="M 0 0 L 421 0 L 421 476 L 0 476 L 0 0 M 0 0"/></clipPath>
<clipPath id="2940537322625047clip-1"><path d="M 247.5 187.5 L 247.5 608.5 L -228.5 608.5 L -228.5 187.5 L 247.5 187.5 M 247.5 187.5"/></clipPath>
<clipPath id="2940537322625047clip-2"><path d="M 68 10 L 68 425 L 347 425 L 347 10 M 68 10"/></clipPath>
</defs>
<rect x="0" y="0" width="421" height="476" style="fill: rgb(255,255,255); fill-opacity: 1.0" transform="matrix(1,0,0,1,0,0)" clip-path="url(#2940537322625047clip-0)"/><rect x="360" y="219" width="60" height="40" style="fill: rgb(255,255,255); fill-opacity: 1.0" transform="matrix(1,0,0,1,0,0)" clip-path="url(#2940537322625047clip-0)"/><g style="fill: rgb(255,85,85); fill-opacity: 1.0; stroke: none" transform="matrix(1,0,0,1,0,0)" clip-path="url(#2940537322625047clip-0)"><path d="M 363 224.5 L 369 224.5 L 369 234.5 L 363 234.5 L 363 224.5 M 363 224.5"/></g><g transform="matrix(1,0,0,1,0,0)"><text x="373" y="230.75" style="fill: rgb(64,64,64); fill-opacity: 1.0; font-family: sans-serif; font-size: 12px; " clip-path="url(#2940537322625047clip-0)">+ strand</text></g><g style="fill: rgb(85,85,255); fill-opacity: 1.0; stroke: none" transform="matrix(1,0,0,1,0,0)" clip-path="url(#2940537322625047clip-0)"><path d="M 363 243.5 L 369 243.5 L 369 253.5 L 363 253.5 L 363 243.5 M 363 243.5"/></g><g transform="matrix(1,0,0,1,0,0)"><text x="373" y="249.75" style="fill: rgb(64,64,64); fill-opacity: 1.0; font-family: sans-serif; font-size: 12px; " clip-path="url(#2940537322625047clip-0)">- strand</text></g><rect x="68" y="10" width="279" height="415" style="fill: rgb(255,255,255); fill-opacity: 1.0" transform="matrix(1,0,0,1,0,0)" clip-path="url(#2940537322625047clip-0)"/><line x1="68" y1="429" x2="347" y2="429" style="stroke-width: 0.5;stroke: rgb(128,128,128);stroke-opacity: 1.0;shape-rendering:crispEdges;" transform="matrix(1,0,0,1,0,0)" clip-path="url(#2940537322625047clip-0)"/><g transform="matrix(1,0,0,1,0,0)"><text x="73.68" y="442.35" style="fill: rgb(64,64,64); fill-opacity: 1.0; font-family: sans-serif; font-size: 12px; " clip-path="url(#2940537322625047clip-0)">30</text></g><line x1="80.68" y1="431" x2="80.68" y2="429" style="stroke-width: 0.5;stroke: rgb(128,128,128);stroke-opacity: 1.0;shape-rendering:crispEdges;" transform="matrix(1,0,0,1,0,0)" clip-path="url(#2940537322625047clip-0)"/><g transform="matrix(1,0,0,1,0,0)"><text x="108.91" y="442.35" style="fill: rgb(64,64,64); fill-opacity: 1.0; font-family: sans-serif; font-size: 12px; " clip-path="url(#2940537322625047clip-0)">40</text></g><line x1="115.91" y1="431" x2="115.91" y2="429" style="stroke-width: 0.5;stroke: rgb(128,128,128);stroke-opacity: 1.0;shape-rendering:crispEdges;" transform="matrix(1,0,0,1,0,0)" clip-path="url(#2940537322625047clip-0)"/><g transform="matrix(1,0,0,1,0,0)"><text x="144.14" y="442.35" style="fill: rgb(64,64,64); fill-opacity: 1.0; font-family: sans-serif; font-size: 12px; " clip-path="url(#2940537322625047clip-0)">50</text></g><line x1="151.14" y1="431" x2="151.14" y2="429" style="stroke-width: 0.5;stroke: rgb(128,128,128);stroke-opacity: 1.0;shape-rendering:crispEdges;" transform="matrix(1,0,0,1,0,0)" clip-path="url(#2940537322625047clip-0)"/><g transform="matrix(1,0,0,1,0,0)"><text x="179.36" y="442.35" style="fill: rgb(64,64,64); fill-opacity: 1.0; font-family: sans-serif; font-size: 12px; " clip-path="url(#2940537322625047clip-0)">60</text></g><line x1="186.36" y1="431" x2="186.36" y2="429" style="stroke-width: 0.5;stroke: rgb(128,128,128);stroke-opacity: 1.0;shape-rendering:crispEdges;" transform="matrix(1,0,0,1,0,0)" clip-path="url(#2940537322625047clip-0)"/><g transform="matrix(1,0,0,1,0,0)"><text x="214.59" y="442.35" style="fill: rgb(64,64,64); fill-opacity: 1.0; font-family: sans-serif; font-size: 12px; " clip-path="url(#2940537322625047clip-0)">70</text></g><line x1="221.59" y1="431" x2="221.59" y2="429" style="stroke-width: 0.5;stroke: rgb(128,128,128);stroke-opacity: 1.0;shape-rendering:crispEdges;" transform="matrix(1,0,0,1,0,0)" clip-path="url(#2940537322625047clip-0)"/><g transform="matrix(1,0,0,1,0,0)"><text x="249.82" y="442.35" style="fill: rgb(64,64,64); fill-opacity: 1.0; font-family: sans-serif; font-size: 12px; " clip-path="url(#2940537322625047clip-0)">80</text></g><line x1="256.82" y1="431" x2="256.82" y2="429" style="stroke-width: 0.5;stroke: rgb(128,128,128);stroke-opacity: 1.0;shape-rendering:crispEdges;" transform="matrix(1,0,0,1,0,0)" clip-path="url(#2940537322625047clip-0)"/><g transform="matrix(1,0,0,1,0,0)"><text x="285.05" y="442.35" style="fill: rgb(64,64,64); fill-opacity: 1.0; font-family: sans-serif; font-size: 12px; " clip-path="url(#2940537322625047clip-0)">90</text></g><line x1="292.05" y1="431" x2="292.05" y2="429" style="stroke-width: 0.5;stroke: rgb(128,128,128);stroke-opacity: 1.0;shape-rendering:crispEdges;" transform="matrix(1,0,0,1,0,0)" clip-path="url(#2940537322625047clip-0)"/><g transform="matrix(1,0,0,1,0,0)"><text x="316.77" y="442.35" style="fill: rgb(64,64,64); fill-opacity: 1.0; font-family: sans-serif; font-size: 12px; " clip-path="url(#2940537322625047clip-0)">100</text></g><line x1="327.27" y1="431" x2="327.27" y2="429" style="stroke-width: 0.5;stroke: rgb(128,128,128);stroke-opacity: 1.0;shape-rendering:crispEdges;" transform="matrix(1,0,0,1,0,0)" clip-path="url(#2940537322625047clip-0)"/><g transform="matrix(1,0,0,1,0,0)"><text x="166" y="461.81" style="fill: rgb(64,64,64); fill-opacity: 1.0; font-family: sans-serif; font-size: 14px; font-weight: bold; " clip-path="url(#2940537322625047clip-0)">Read length</text></g><line x1="64" y1="10" x2="64" y2="425" style="stroke-width: 0.5;stroke: rgb(128,128,128);stroke-opacity: 1.0;shape-rendering:crispEdges;" transform="matrix(1,0,0,1,0,0)" clip-path="url(#2940537322625047clip-0)"/><g transform="matrix(1,0,0,1,0,0)"><text x="51" y="426.85" style="fill: rgb(64,64,64); fill-opacity: 1.0; font-family: sans-serif; font-size: 12px; " clip-path="url(#2940537322625047clip-0)">0</text></g><line x1="62" y1="425" x2="64" y2="425" style="stroke-width: 0.5;stroke: rgb(128,128,128);stroke-opacity: 1.0;shape-rendering:crispEdges;" transform="matrix(1,0,0,1,0,0)" clip-path="url(#2940537322625047clip-0)"/><g transform="matrix(1,0,0,1,0,0)"><text x="51" y="393.91" style="fill: rgb(64,64,64); fill-opacity: 1.0; font-family: sans-serif; font-size: 12px; " clip-path="url(#2940537322625047clip-0)">1</text></g><line x1="62" y1="392.06" x2="64" y2="392.06" style="stroke-width: 0.5;stroke: rgb(128,128,128);stroke-opacity: 1.0;shape-rendering:crispEdges;" transform="matrix(1,0,0,1,0,0)" clip-path="url(#2940537322625047clip-0)"/><g transform="matrix(1,0,0,1,0,0)"><text x="51" y="360.97" style="fill: rgb(64,64,64); fill-opacity: 1.0; font-family: sans-serif; font-size: 12px; " clip-path="url(#2940537322625047clip-0)">2</text></g><line x1="62" y1="359.13" x2="64" y2="359.13" style="stroke-width: 0.5;stroke: rgb(128,128,128);stroke-opacity: 1.0;shape-rendering:crispEdges;" transform="matrix(1,0,0,1,0,0)" clip-path="url(#2940537322625047clip-0)"/><g transform="matrix(1,0,0,1,0,0)"><text x="51" y="328.04" style="fill: rgb(64,64,64); fill-opacity: 1.0; font-family: sans-serif; font-size: 12px; " clip-path="url(#2940537322625047clip-0)">3</text></g><line x1="62" y1="326.19" x2="64" y2="326.19" style="stroke-width: 0.5;stroke: rgb(128,128,128);stroke-opacity: 1.0;shape-rendering:crispEdges;" transform="matrix(1,0,0,1,0,0)" clip-path="url(#2940537322625047clip-0)"/><g transform="matrix(1,0,0,1,0,0)"><text x="51" y="295.1" style="fill: rgb(64,64,64); fill-opacity: 1.0; font-family: sans-serif; font-size: 12px; " clip-path="url(#2940537322625047clip-0)">4</text></g><line x1="62" y1="293.25" x2="64" y2="293.25" style="stroke-width: 0.5;stroke: rgb(128,128,128);stroke-opacity: 1.0;shape-rendering:crispEdges;" transform="matrix(1,0,0,1,0,0)" clip-path="url(#2940537322625047clip-0)"/><g transform="matrix(1,0,0,1,0,0)"><text x="51" y="262.17" style="fill: rgb(64,64,64); fill-opacity: 1.0; font-family: sans-serif; font-size: 12px; " clip-path="url(#2940537322625047clip-0)">5</text></g><line x1="62" y1="260.32" x2="64" y2="260.32" style="stroke-width: 0.5;stroke: rgb(128,128,128);stroke-opacity: 1.0;shape-rendering:crispEdges;" transform="matrix(1,0,0,1,0,0)" clip-path="url(#2940537322625047clip-0)"/><g transform="matrix(1,0,0,1,0,0)"><text x="51" y="229.23" style="fill: rgb(64,64,64); fill-opacity: 1.0; font-family: sans-serif; font-size: 12px; " clip-path="url(#2940537322625047clip-0)">6</text></g><line x1="62" y1="227.38" x2="64" y2="227.38" style="stroke-width: 0.5;stroke: rgb(128,128,128);stroke-opacity: 1.0;shape-rendering:crispEdges;" transform="matrix(1,0,0,1,0,0)" clip-path="url(#2940537322625047clip-0)"/><g transform="matrix(1,0,0,1,0,0)"><text x="51" y="196.29" style="fill: rgb(64,64,64); fill-opacity: 1.0; font-family: sans-serif; font-size: 12px; " clip-path="url(#2940537322625047clip-0)">7</text></g><line x1="62" y1="194.44" x2="64" y2="194.44" style="stroke-width: 0.5;stroke: rgb(128,128,128);stroke-opacity: 1.0;shape-rendering:crispEdges;" transform="matrix(1,0,0,1,0,0)" clip-path="url(#2940537322625047clip-0)"/><g transform="matrix(1,0,0,1,0,0)"><text x="51" y="163.36" style="fill: rgb(64,64,64); fill-opacity: 1.0; font-family: sans-serif; font-size: 12px; " clip-path="url(#2940537322625047clip-0)">8</text></g><line x1="62" y1="161.51" x2="64" y2="161.51" style="stroke-width: 0.5;stroke: rgb(128,128,128);stroke-opacity: 1.0;shape-rendering:crispEdges;" transform="matrix(1,0,0,1,0,0)" clip-path="url(#2940537322625047clip-0)"/><g transform="matrix(1,0,0,1,0,0)"><text x="51" y="130.42" style="fill: rgb(64,64,64); fill-opacity: 1.0; font-family: sans-serif; font-size: 12px; " clip-path="url(#2940537322625047clip-0)">9</text></g><line x1="62" y1="128.57" x2="64" y2="128.57" style="stroke-width: 0.5;stroke: rgb(128,128,128);stroke-opacity: 1.0;shape-rendering:crispEdges;" transform="matrix(1,0,0,1,0,0)" clip-path="url(#2940537322625047clip-0)"/><g transform="matrix(1,0,0,1,0,0)"><text x="44" y="97.48" style="fill: rgb(64,64,64); fill-opacity: 1.0; font-family: sans-serif; font-size: 12px; " clip-path="url(#2940537322625047clip-0)">10</text></g><line x1="62" y1="95.63" x2="64" y2="95.63" style="stroke-width: 0.5;stroke: rgb(128,128,128);stroke-opacity: 1.0;shape-rendering:crispEdges;" transform="matrix(1,0,0,1,0,0)" clip-path="url(#2940537322625047clip-0)"/><g transform="matrix(1,0,0,1,0,0)"><text x="44" y="64.55" style="fill: rgb(64,64,64); fill-opacity: 1.0; font-family: sans-serif; font-size: 12px; " clip-path="url(#2940537322625047clip-0)">11</text></g><line x1="62" y1="62.7" x2="64" y2="62.7" style="stroke-width: 0.5;stroke: rgb(128,128,128);stroke-opacity: 1.0;shape-rendering:crispEdges;" transform="matrix(1,0,0,1,0,0)" clip-path="url(#2940537322625047clip-0)"/><g transform="matrix(1,0,0,1,0,0)"><text x="44" y="31.61" style="fill: rgb(64,64,64); fill-opacity: 1.0; font-family: sans-serif; font-size: 12px; " clip-path="url(#2940537322625047clip-0)">12</text></g><line x1="62" y1="29.76" x2="64" y2="29.76" style="stroke-width: 0.5;stroke: rgb(128,128,128);stroke-opacity: 1.0;shape-rendering:crispEdges;" transform="matrix(1,0,0,1,0,0)" clip-path="url(#2940537322625047clip-0)"/><g style="fill: rgb(64,64,64); fill-opacity: 1.0; stroke: none" transform="matrix(0,-1,1,0,-187.5,247.5)" clip-path="url(#2940537322625047clip-1)"><path d="M -8.05 209.53 C -9.47 209.53 -10.64 210.02 -11.52 210.95 C -12.42 211.92 -12.94 213.36 -12.94 214.87 C -12.94 216.41 -12.42 217.84 -11.52 218.81 C -10.62 219.77 -9.48 220.23 -8.03 220.23 C -6.56 220.23 -5.42 219.77 -4.55 218.81 C -3.66 217.87 -3.11 216.39 -3.11 214.95 C -3.11 213.36 -3.62 211.91 -4.55 210.95 C -5.44 209.98 -6.56 209.53 -8.05 209.53 M -8.05 209.53 M -8.03 211.33 C -6.3 211.33 -5.22 212.72 -5.22 214.94 C -5.22 217.03 -6.34 218.44 -8.03 218.44 C -9.73 218.44 -10.84 217.03 -10.84 214.87 C -10.84 212.72 -9.73 211.33 -8.03 211.33 M -8.03 211.33 M 4.7 215.17 C 4.56 213.33 3.35 212.22 1.44 212.22 C -0.83 212.22 -2.14 213.7 -2.14 216.28 C -2.14 218.77 -0.83 220.23 1.41 220.23 C 3.25 220.23 4.52 219.09 4.7 217.28 L 2.83 217.28 C 2.58 218.27 2.19 218.64 1.41 218.64 C 0.42 218.64 -0.17 217.77 -0.17 216.28 C -0.17 215.55 -0.03 214.89 0.2 214.45 C 0.42 214.03 0.86 213.8 1.42 213.8 C 2.22 213.8 2.6 214.19 2.83 215.17 L 4.7 215.17 M 4.7 215.17 M 12.49 215.17 C 12.35 213.33 11.13 212.22 9.22 212.22 C 6.96 212.22 5.64 213.7 5.64 216.28 C 5.64 218.77 6.96 220.23 9.19 220.23 C 11.04 220.23 12.3 219.09 12.49 217.28 L 10.61 217.28 C 10.36 218.27 9.97 218.64 9.19 218.64 C 8.21 218.64 7.61 217.77 7.61 216.28 C 7.61 215.55 7.75 214.89 7.99 214.45 C 8.21 214.03 8.64 213.8 9.21 213.8 C 10 213.8 10.38 214.19 10.61 215.17 L 12.49 215.17 M 12.49 215.17 M 20.54 219.91 L 20.54 212.34 L 18.57 212.34 L 18.57 217.08 C 18.57 217.97 17.96 218.56 16.99 218.56 C 16.15 218.56 15.73 218.11 15.73 217.2 L 15.73 212.34 L 13.77 212.34 L 13.77 217.61 C 13.77 219.3 14.68 220.23 16.3 220.23 C 17.33 220.23 18.01 219.86 18.57 219.02 L 18.57 219.91 L 20.54 219.91 M 20.54 219.91 M 22.39 212.34 L 22.39 219.91 L 24.36 219.91 L 24.36 215.89 C 24.36 214.73 24.94 214.17 26.08 214.17 C 26.3 214.17 26.42 214.19 26.7 214.22 L 26.7 212.23 C 26.58 212.22 26.55 212.22 26.45 212.22 C 25.56 212.22 24.8 212.81 24.36 213.83 L 24.36 212.34 L 22.39 212.34 M 22.39 212.34 M 27.83 212.34 L 27.83 219.91 L 29.8 219.91 L 29.8 215.89 C 29.8 214.73 30.38 214.17 31.52 214.17 C 31.74 214.17 31.87 214.19 32.15 214.22 L 32.15 212.23 C 32.02 212.22 31.99 212.22 31.9 212.22 C 31.01 212.22 30.24 212.81 29.8 213.83 L 29.8 212.34 L 27.83 212.34 M 27.83 212.34 M 39.75 216.75 C 39.75 216.58 39.75 216.5 39.75 216.41 C 39.75 215.66 39.64 214.95 39.47 214.42 C 38.95 213.05 37.73 212.22 36.22 212.22 C 34.05 212.22 32.72 213.78 32.72 216.33 C 32.72 218.75 34.03 220.23 36.17 220.23 C 37.86 220.23 39.23 219.28 39.67 217.78 L 37.73 217.78 C 37.5 218.37 36.95 218.73 36.25 218.73 C 35.69 218.73 35.23 218.5 34.95 218.08 C 34.77 217.8 34.7 217.45 34.67 216.75 L 39.75 216.75 M 39.75 216.75 M 34.7 215.44 C 34.83 214.28 35.31 213.72 36.19 213.72 C 37.08 213.72 37.61 214.31 37.72 215.44 L 34.7 215.44 M 34.7 215.44 M 41.06 212.34 L 41.06 219.91 L 43.03 219.91 L 43.03 215.37 C 43.03 214.47 43.64 213.89 44.61 213.89 C 45.46 213.89 45.88 214.34 45.88 215.25 L 45.88 219.91 L 47.83 219.91 L 47.83 214.84 C 47.83 213.16 46.92 212.22 45.3 212.22 C 44.28 212.22 43.6 212.58 43.03 213.44 L 43.03 212.34 L 41.06 212.34 M 41.06 212.34 M 56.06 215.17 C 55.92 213.33 54.7 212.22 52.79 212.22 C 50.53 212.22 49.21 213.7 49.21 216.28 C 49.21 218.77 50.53 220.23 52.76 220.23 C 54.6 220.23 55.87 219.09 56.06 217.28 L 54.18 217.28 C 53.93 218.27 53.54 218.64 52.76 218.64 C 51.78 218.64 51.18 217.77 51.18 216.28 C 51.18 215.55 51.32 214.89 51.56 214.45 C 51.78 214.03 52.21 213.8 52.78 213.8 C 53.57 213.8 53.95 214.19 54.18 215.17 L 56.06 215.17 M 56.06 215.17 M 63.87 216.75 C 63.87 216.58 63.87 216.5 63.87 216.41 C 63.87 215.66 63.76 214.95 63.59 214.42 C 63.07 213.05 61.86 212.22 60.34 212.22 C 58.17 212.22 56.84 213.78 56.84 216.33 C 56.84 218.75 58.15 220.23 60.29 220.23 C 61.98 220.23 63.36 219.28 63.79 217.78 L 61.86 217.78 C 61.62 218.37 61.07 218.73 60.37 218.73 C 59.81 218.73 59.36 218.5 59.07 218.08 C 58.89 217.8 58.82 217.45 58.79 216.75 L 63.87 216.75 M 63.87 216.75 M 58.82 215.44 C 58.95 214.28 59.43 213.72 60.31 213.72 C 61.2 213.72 61.73 214.31 61.84 215.44 L 58.82 215.44 M 58.82 215.44 M 71.37 214.78 C 71.36 213.19 70.12 212.22 68.09 212.22 C 66.17 212.22 64.98 213.19 64.98 214.73 C 64.98 215.25 65.14 215.67 65.41 215.97 C 65.67 216.23 65.91 216.36 66.64 216.61 L 68.97 217.33 C 69.47 217.48 69.62 217.64 69.62 217.95 C 69.62 218.41 69.09 218.69 68.17 218.69 C 67.66 218.69 67.26 218.61 67.01 218.42 C 66.8 218.27 66.72 218.11 66.64 217.7 L 64.72 217.7 C 64.78 219.37 66 220.23 68.28 220.23 C 69.34 220.23 70.14 220 70.7 219.56 C 71.25 219.11 71.59 218.41 71.59 217.67 C 71.59 216.69 71.11 216.06 70.11 215.77 L 67.62 215.05 C 67.08 214.87 66.94 214.77 66.94 214.45 C 66.94 214.05 67.39 213.77 68.08 213.77 C 69.01 213.77 69.48 214.09 69.5 214.78 L 71.37 214.78 M 71.37 214.78"/></g><line x1="80.68" y1="10" x2="80.68" y2="425" style="stroke-width: 0.5;stroke: rgb(150,150,150);stroke-opacity: 0.7;stroke-dasharray: 2.0, 2.0;shape-rendering:crispEdges;" transform="matrix(1,0,0,1,0,0)" clip-path="url(#2940537322625047clip-2)"/><line x1="115.91" y1="10" x2="115.91" y2="425" style="stroke-width: 0.5;stroke: rgb(150,150,150);stroke-opacity: 0.7;stroke-dasharray: 2.0, 2.0;shape-rendering:crispEdges;" transform="matrix(1,0,0,1,0,0)" clip-path="url(#2940537322625047clip-2)"/><line x1="151.14" y1="10" x2="151.14" y2="425" style="stroke-width: 0.5;stroke: rgb(150,150,150);stroke-opacity: 0.7;stroke-dasharray: 2.0, 2.0;shape-rendering:crispEdges;" transform="matrix(1,0,0,1,0,0)" clip-path="url(#2940537322625047clip-2)"/><line x1="186.36" y1="10" x2="186.36" y2="425" style="stroke-width: 0.5;stroke: rgb(150,150,150);stroke-opacity: 0.7;stroke-dasharray: 2.0, 2.0;shape-rendering:crispEdges;" transform="matrix(1,0,0,1,0,0)" clip-path="url(#2940537322625047clip-2)"/><line x1="221.59" y1="10" x2="221.59" y2="425" style="stroke-width: 0.5;stroke: rgb(150,150,150);stroke-opacity: 0.7;stroke-dasharray: 2.0, 2.0;shape-rendering:crispEdges;" transform="matrix(1,0,0,1,0,0)" clip-path="url(#2940537322625047clip-2)"/><line x1="256.82" y1="10" x2="256.82" y2="425" style="stroke-width: 0.5;stroke: rgb(150,150,150);stroke-opacity: 0.7;stroke-dasharray: 2.0, 2.0;shape-rendering:crispEdges;" transform="matrix(1,0,0,1,0,0)" clip-path="url(#2940537322625047clip-2)"/><line x1="292.05" y1="10" x2="292.05" y2="425" style="stroke-width: 0.5;stroke: rgb(150,150,150);stroke-opacity: 0.7;stroke-dasharray: 2.0, 2.0;shape-rendering:crispEdges;" transform="matrix(1,0,0,1,0,0)" clip-path="url(#2940537322625047clip-2)"/><line x1="327.27" y1="10" x2="327.27" y2="425" style="stroke-width: 0.5;stroke: rgb(150,150,150);stroke-opacity: 0.7;stroke-dasharray: 2.0, 2.0;shape-rendering:crispEdges;" transform="matrix(1,0,0,1,0,0)" clip-path="url(#2940537322625047clip-2)"/><line x1="68" y1="392.06" x2="347" y2="392.06" style="stroke-width: 0.5;stroke: rgb(150,150,150);stroke-opacity: 0.7;stroke-dasharray: 2.0, 2.0;shape-rendering:crispEdges;" transform="matrix(1,0,0,1,0,0)" clip-path="url(#2940537322625047clip-2)"/><line x1="68" y1="359.13" x2="347" y2="359.13" style="stroke-width: 0.5;stroke: rgb(150,150,150);stroke-opacity: 0.7;stroke-dasharray: 2.0, 2.0;shape-rendering:crispEdges;" transform="matrix(1,0,0,1,0,0)" clip-path="url(#2940537322625047clip-2)"/><line x1="68" y1="326.19" x2="347" y2="326.19" style="stroke-width: 0.5;stroke: rgb(150,150,150);stroke-opacity: 0.7;stroke-dasharray: 2.0, 2.0;shape-rendering:crispEdges;" transform="matrix(1,0,0,1,0,0)" clip-path="url(#2940537322625047clip-2)"/><line x1="68" y1="293.25" x2="347" y2="293.25" style="stroke-width: 0.5;stroke: rgb(150,150,150);stroke-opacity: 0.7;stroke-dasharray: 2.0, 2.0;shape-rendering:crispEdges;" transform="matrix(1,0,0,1,0,0)" clip-path="url(#2940537322625047clip-2)"/><line x1="68" y1="260.32" x2="347" y2="260.32" style="stroke-width: 0.5;stroke: rgb(150,150,150);stroke-opacity: 0.7;stroke-dasharray: 2.0, 2.0;shape-rendering:crispEdges;" transform="matrix(1,0,0,1,0,0)" clip-path="url(#2940537322625047clip-2)"/><line x1="68" y1="227.38" x2="347" y2="227.38" style="stroke-width: 0.5;stroke: rgb(150,150,150);stroke-opacity: 0.7;stroke-dasharray: 2.0, 2.0;shape-rendering:crispEdges;" transform="matrix(1,0,0,1,0,0)" clip-path="url(#2940537322625047clip-2)"/><line x1="68" y1="194.44" x2="347" y2="194.44" style="stroke-width: 0.5;stroke: rgb(150,150,150);stroke-opacity: 0.7;stroke-dasharray: 2.0, 2.0;shape-rendering:crispEdges;" transform="matrix(1,0,0,1,0,0)" clip-path="url(#2940537322625047clip-2)"/><line x1="68" y1="161.51" x2="347" y2="161.51" style="stroke-width: 0.5;stroke: rgb(150,150,150);stroke-opacity: 0.7;stroke-dasharray: 2.0, 2.0;shape-rendering:crispEdges;" transform="matrix(1,0,0,1,0,0)" clip-path="url(#2940537322625047clip-2)"/><line x1="68" y1="128.57" x2="347" y2="128.57" style="stroke-width: 0.5;stroke: rgb(150,150,150);stroke-opacity: 0.7;stroke-dasharray: 2.0, 2.0;shape-rendering:crispEdges;" transform="matrix(1,0,0,1,0,0)" clip-path="url(#2940537322625047clip-2)"/><line x1="68" y1="95.63" x2="347" y2="95.63" style="stroke-width: 0.5;stroke: rgb(150,150,150);stroke-opacity: 0.7;stroke-dasharray: 2.0, 2.0;shape-rendering:crispEdges;" transform="matrix(1,0,0,1,0,0)" clip-path="url(#2940537322625047clip-2)"/><line x1="68" y1="62.7" x2="347" y2="62.7" style="stroke-width: 0.5;stroke: rgb(150,150,150);stroke-opacity: 0.7;stroke-dasharray: 2.0, 2.0;shape-rendering:crispEdges;" transform="matrix(1,0,0,1,0,0)" clip-path="url(#2940537322625047clip-2)"/><line x1="68" y1="29.76" x2="347" y2="29.76" style="stroke-width: 0.5;stroke: rgb(150,150,150);stroke-opacity: 0.7;stroke-dasharray: 2.0, 2.0;shape-rendering:crispEdges;" transform="matrix(1,0,0,1,0,0)" clip-path="url(#2940537322625047clip-2)"/><line x1="68" y1="425" x2="347" y2="425" style="stroke-width: 0.5;stroke: rgb(0,0,0);stroke-opacity: 0.7;shape-rendering:crispEdges;" transform="matrix(1,0,0,1,0,0)" clip-path="url(#2940537322625047clip-2)"/><rect x="80.68" y="128.57" width="0.32" height="296.43" style="fill: url(#2940537322625047gp0); fill-opacity: 0.7" transform="matrix(1,0,0,1,0,0)" clip-path="url(#2940537322625047clip-2)"/><rect x="81" y="128.57" width="2" height="296.43" style="fill: url(#2940537322625047gp2); fill-opacity: 0.7" transform="matrix(1,0,0,1,0,0)" clip-path="url(#2940537322625047clip-2)"/><rect x="83" y="128.57" width="0.17" height="296.43" style="fill: url(#2940537322625047gp3); fill-opacity: 0.7" transform="matrix(1,0,0,1,0,0)" clip-path="url(#2940537322625047clip-2)"/><rect x="83" y="161.51" width="1" height="263.49" style="fill: url(#2940537322625047gp5); fill-opacity: 0.7" transform="matrix(1,0,0,1,0,0)" clip-path="url(#2940537322625047clip-2)"/><rect x="84" y="161.51" width="1" height="263.49" style="fill: url(#2940537322625047gp6); fill-opacity: 0.7" transform="matrix(1,0,0,1,0,0)" clip-path="url(#2940537322625047clip-2)"/><rect x="85" y="161.51" width="0.66" height="263.49" style="fill: url(#2940537322625047gp7); fill-opacity: 0.7" transform="matrix(1,0,0,1,0,0)" clip-path="url(#2940537322625047clip-2)"/><rect x="85.66" y="392.06" width="0.34" height="32.94" style="fill: url(#2940537322625047gp8); fill-opacity: 0.7" transform="matrix(1,0,0,1,0,0)" clip-path="url(#2940537322625047clip-2)"/><rect x="86" y="392.06" width="2" height="32.94" style="fill: url(#2940537322625047gp10); fill-opacity: 0.7" transform="matrix(1,0,0,1,0,0)" clip-path="url(#2940537322625047clip-2)"/><rect x="88" y="392.06" width="0.14" height="32.94" style="fill: url(#2940537322625047gp11); fill-opacity: 0.7" transform="matrix(1,0,0,1,0,0)" clip-path="url(#2940537322625047clip-2)"/><rect x="90.63" y="392.06" width="0.37" height="32.94" style="fill: url(#2940537322625047gp12); fill-opacity: 0.7" transform="matrix(1,0,0,1,0,0)" clip-path="url(#2940537322625047clip-2)"/><rect x="91" y="392.06" width="2" height="32.94" style="fill: url(#2940537322625047gp14); fill-opacity: 0.7" transform="matrix(1,0,0,1,0,0)" clip-path="url(#2940537322625047clip-2)"/><rect x="93" y="392.06" width="0.11" height="32.94" style="fill: url(#2940537322625047gp15); fill-opacity: 0.7" transform="matrix(1,0,0,1,0,0)" clip-path="url(#2940537322625047clip-2)"/><rect x="331.83" y="392.06" width="0.17" height="32.94" style="fill: url(#2940537322625047gp16); fill-opacity: 0.7" transform="matrix(1,0,0,1,0,0)" clip-path="url(#2940537322625047clip-2)"/><rect x="332" y="392.06" width="2" height="32.94" style="fill: url(#2940537322625047gp18); fill-opacity: 0.7" transform="matrix(1,0,0,1,0,0)" clip-path="url(#2940537322625047clip-2)"/><rect x="334" y="392.06" width="0.32" height="32.94" style="fill: url(#2940537322625047gp19); fill-opacity: 0.7" transform="matrix(1,0,0,1,0,0)" clip-path="url(#2940537322625047clip-2)"/><rect x="80.68" y="29.76" width="0.32" height="395.24" style="fill: url(#2940537322625047gp20); fill-opacity: 0.7" transform="matrix(1,0,0,1,0,0)" clip-path="url(#2940537322625047clip-2)"/><rect x="81" y="29.76" width="0.68" height="395.24" style="fill: url(#2940537322625047gp23); fill-opacity: 0.7" transform="matrix(1,0,0,1,0,0)" clip-path="url(#2940537322625047clip-2)"/><rect x="84" y="359.13" width="0" height="65.87" style="fill: url(#2940537322625047gp24); fill-opacity: 0.7" transform="matrix(1,0,0,1,0,0)" clip-path="url(#2940537322625047clip-2)"/><rect x="84" y="359.13" width="1" height="65.87" style="fill: url(#2940537322625047gp26); fill-opacity: 0.7" transform="matrix(1,0,0,1,0,0)" clip-path="url(#2940537322625047clip-2)"/><rect x="87.73" y="392.06" width="0.27" height="32.94" style="fill: url(#2940537322625047gp28); fill-opacity: 0.7" transform="matrix(1,0,0,1,0,0)" clip-path="url(#2940537322625047clip-2)"/><rect x="88" y="392.06" width="1" height="32.94" style="fill: url(#2940537322625047gp30); fill-opacity: 0.7" transform="matrix(1,0,0,1,0,0)" clip-path="url(#2940537322625047clip-2)"/><rect x="91" y="392.06" width="1" height="32.94" style="fill: url(#2940537322625047gp34); fill-opacity: 0.7" transform="matrix(1,0,0,1,0,0)" clip-path="url(#2940537322625047clip-2)"/><rect x="92" y="392.06" width="0.04" height="32.94" style="fill: url(#2940537322625047gp35); fill-opacity: 0.7" transform="matrix(1,0,0,1,0,0)" clip-path="url(#2940537322625047clip-2)"/><rect x="94.77" y="392.06" width="0.23" height="32.94" style="fill: url(#2940537322625047gp36); fill-opacity: 0.7" transform="matrix(1,0,0,1,0,0)" clip-path="url(#2940537322625047clip-2)"/><rect x="95" y="392.06" width="1" height="32.94" style="fill: url(#2940537322625047gp38); fill-opacity: 0.7" transform="matrix(1,0,0,1,0,0)" clip-path="url(#2940537322625047clip-2)"/><rect x="122.54" y="392.06" width="0.46" height="32.94" style="fill: url(#2940537322625047gp40); fill-opacity: 0.7" transform="matrix(1,0,0,1,0,0)" clip-path="url(#2940537322625047clip-2)"/><rect x="123" y="392.06" width="0.54" height="32.94" style="fill: url(#2940537322625047gp43); fill-opacity: 0.7" transform="matrix(1,0,0,1,0,0)" clip-path="url(#2940537322625047clip-2)"/><rect x="68" y="10" width="279" height="415" style="stroke-width: 0.5;stroke: rgb(0,0,0);stroke-opacity: 1.0;shape-rendering:crispEdges;; fill: none" transform="matrix(1,0,0,1,0,0)" clip-path="url(#2940537322625047clip-0)"/></svg>
