<!DOCTYPE svg PUBLIC "-//W3C//DTD SVG 1.1//EN" "http://www.w3.org/Graphics/SVG/1.1/DTD/svg11.dtd">
<svg xmlns="http://www.w3.org/2000/svg" xmlns:xlink="http://www.w3.org/1999/xlink" xmlns:jfreesvg="http://www.jfree.org/jfreesvg/svg" width="421" height="476" text-rendering="auto" shape-rendering="auto">
<defs><linearGradient id="2939642525264365gp25" x1="113" y1="0" x2="113" y2="0" gradientUnits="userSpaceOnUse"><stop offset="0%" style="stop-color: rgb(255,255,255);"/><stop offset="100%" style="stop-color: rgb(85,85,255);"/></linearGradient>
<linearGradient id="2939642525264365gp33" x1="222" y1="0" x2="223" y2="0" gradientUnits="userSpaceOnUse"><stop offset="0%" style="stop-color: rgb(255,255,255);"/><stop offset="100%" style="stop-color: rgb(85,85,255);"/></linearGradient>
<linearGradient id="2939642525264365gp5" x1="78" y1="0" x2="79" y2="0" gradientUnits="userSpaceOnUse"><stop offset="0%" style="stop-color: rgb(255,255,255);"/><stop offset="100%" style="stop-color: rgb(85,85,255);"/></linearGradient>
<linearGradient id="2939642525264365gp13" x1="92" y1="0" x2="92" y2="0" gradientUnits="userSpaceOnUse"><stop offset="0%" style="stop-color: rgb(255,255,255);"/><stop offset="100%" style="stop-color: rgb(85,85,255);"/></linearGradient>
<linearGradient id="2939642525264365gp30" x1="164" y1="0" x2="166" y2="0" gradientUnits="userSpaceOnUse"><stop offset="0%" style="stop-color: rgb(85,85,255);"/><stop offset="100%" style="stop-color: rgb(121,121,255);"/></linearGradient>
<linearGradient id="2939642525264365gp54" x1="100" y1="0" x2="102" y2="0" gradientUnits="userSpaceOnUse"><stop offset="0%" style="stop-color: rgb(255,85,85);"/><stop offset="100%" style="stop-color: rgb(255,121,121);"/></linearGradient>
<linearGradient id="2939642525264365gp60" x1="114.92" y1="0" x2="115" y2="0" gradientUnits="userSpaceOnUse"><stop offset="0%" style="stop-color: rgb(255,85,85);"/><stop offset="100%" style="stop-color: rgb(255,255,255);"/></linearGradient>
<linearGradient id="2939642525264365gp45" x1="83" y1="0" x2="84" y2="0" gradientUnits="userSpaceOnUse"><stop offset="0%" style="stop-color: rgb(255,255,255);"/><stop offset="100%" style="stop-color: rgb(255,85,85);"/></linearGradient>
<linearGradient id="2939642525264365gp48" x1="91.04" y1="0" x2="91" y2="0" gradientUnits="userSpaceOnUse"><stop offset="0%" style="stop-color: rgb(255,85,85);"/><stop offset="100%" style="stop-color: rgb(255,255,255);"/></linearGradient>
<linearGradient id="2939642525264365gp61" x1="115" y1="0" x2="116" y2="0" gradientUnits="userSpaceOnUse"><stop offset="0%" style="stop-color: rgb(255,255,255);"/><stop offset="100%" style="stop-color: rgb(255,85,85);"/></linearGradient>
<linearGradient id="2939642525264365gp51" x1="94" y1="0" x2="95.02" y2="0" gradientUnits="userSpaceOnUse"><stop offset="0%" style="stop-color: rgb(255,121,121);"/><stop offset="100%" style="stop-color: rgb(255,85,85);"/></linearGradient>
<linearGradient id="2939642525264365gp44" x1="83.08" y1="0" x2="83" y2="0" gradientUnits="userSpaceOnUse"><stop offset="0%" style="stop-color: rgb(255,85,85);"/><stop offset="100%" style="stop-color: rgb(255,255,255);"/></linearGradient>
<linearGradient id="2939642525264365gp18" x1="99" y1="0" x2="101" y2="0" gradientUnits="userSpaceOnUse"><stop offset="0%" style="stop-color: rgb(85,85,255);"/><stop offset="100%" style="stop-color: rgb(121,121,255);"/></linearGradient>
<linearGradient id="2939642525264365gp23" x1="108" y1="0" x2="108.29" y2="0" gradientUnits="userSpaceOnUse"><stop offset="0%" style="stop-color: rgb(121,121,255);"/><stop offset="100%" style="stop-color: rgb(85,85,255);"/></linearGradient>
<linearGradient id="2939642525264365gp27" x1="115" y1="0" x2="115.26" y2="0" gradientUnits="userSpaceOnUse"><stop offset="0%" style="stop-color: rgb(121,121,255);"/><stop offset="100%" style="stop-color: rgb(85,85,255);"/></linearGradient>
<linearGradient id="2939642525264365gp40" x1="75.12" y1="0" x2="76" y2="0" gradientUnits="userSpaceOnUse"><stop offset="0%" style="stop-color: rgb(255,85,85);"/><stop offset="100%" style="stop-color: rgb(255,255,255);"/></linearGradient>
<linearGradient id="2939642525264365gp26" x1="113" y1="0" x2="115" y2="0" gradientUnits="userSpaceOnUse"><stop offset="0%" style="stop-color: rgb(85,85,255);"/><stop offset="100%" style="stop-color: rgb(121,121,255);"/></linearGradient>
<linearGradient id="2939642525264365gp24" x1="112.93" y1="0" x2="113" y2="0" gradientUnits="userSpaceOnUse"><stop offset="0%" style="stop-color: rgb(85,85,255);"/><stop offset="100%" style="stop-color: rgb(255,255,255);"/></linearGradient>
<linearGradient id="2939642525264365gp55" x1="102" y1="0" x2="102.98" y2="0" gradientUnits="userSpaceOnUse"><stop offset="0%" style="stop-color: rgb(255,121,121);"/><stop offset="100%" style="stop-color: rgb(255,85,85);"/></linearGradient>
<linearGradient id="2939642525264365gp14" x1="92" y1="0" x2="94" y2="0" gradientUnits="userSpaceOnUse"><stop offset="0%" style="stop-color: rgb(85,85,255);"/><stop offset="100%" style="stop-color: rgb(121,121,255);"/></linearGradient>
<linearGradient id="2939642525264365gp19" x1="101" y1="0" x2="101.32" y2="0" gradientUnits="userSpaceOnUse"><stop offset="0%" style="stop-color: rgb(121,121,255);"/><stop offset="100%" style="stop-color: rgb(85,85,255);"/></linearGradient>
<linearGradient id="2939642525264365gp50" x1="92" y1="0" x2="94" y2="0" gradientUnits="userSpaceOnUse"><stop offset="0%" style="stop-color: rgb(255,85,85);"/><stop offset="100%" style="stop-color: rgb(255,121,121);"/></linearGradient>
<linearGradient id="2939642525264365gp63" x1="118" y1="0" x2="118.9" y2="0" gradientUnits="userSpaceOnUse"><stop offset="0%" style="stop-color: rgb(255,121,121);"/><stop offset="100%" style="stop-color: rgb(255,85,85);"/></linearGradient>
<linearGradient id="2939642525264365gp66" x1="331" y1="0" x2="333" y2="0" gradientUnits="userSpaceOnUse"><stop offset="0%" style="stop-color: rgb(255,85,85);"/><stop offset="100%" style="stop-color: rgb(255,121,121);"/></linearGradient>
<linearGradient id="2939642525264365gp43" x1="78" y1="0" x2="79.1" y2="0" gradientUnits="userSpaceOnUse"><stop offset="0%" style="stop-color: rgb(255,121,121);"/><stop offset="100%" style="stop-color: rgb(255,85,85);"/></linearGradient>
<linearGradient id="2939642525264365gp52" x1="99" y1="0" x2="99" y2="0" gradientUnits="userSpaceOnUse"><stop offset="0%" style="stop-color: rgb(255,85,85);"/><stop offset="100%" style="stop-color: rgb(255,255,255);"/></linearGradient>
<linearGradient id="2939642525264365gp34" x1="223" y1="0" x2="224" y2="0" gradientUnits="userSpaceOnUse"><stop offset="0%" style="stop-color: rgb(85,85,255);"/><stop offset="100%" style="stop-color: rgb(121,121,255);"/></linearGradient>
<linearGradient id="2939642525264365gp56" x1="106.96" y1="0" x2="107" y2="0" gradientUnits="userSpaceOnUse"><stop offset="0%" style="stop-color: rgb(255,85,85);"/><stop offset="100%" style="stop-color: rgb(255,255,255);"/></linearGradient>
<linearGradient id="2939642525264365gp29" x1="164" y1="0" x2="164" y2="0" gradientUnits="userSpaceOnUse"><stop offset="0%" style="stop-color: rgb(255,255,255);"/><stop offset="100%" style="stop-color: rgb(85,85,255);"/></linearGradient>
<linearGradient id="2939642525264365gp39" x1="74" y1="0" x2="75.12" y2="0" gradientUnits="userSpaceOnUse"><stop offset="0%" style="stop-color: rgb(255,121,121);"/><stop offset="100%" style="stop-color: rgb(255,85,85);"/></linearGradient>
<linearGradient id="2939642525264365gp49" x1="91" y1="0" x2="92" y2="0" gradientUnits="userSpaceOnUse"><stop offset="0%" style="stop-color: rgb(255,255,255);"/><stop offset="100%" style="stop-color: rgb(255,85,85);"/></linearGradient>
<linearGradient id="2939642525264365gp2" x1="72" y1="0" x2="73" y2="0" gradientUnits="userSpaceOnUse"><stop offset="0%" style="stop-color: rgb(85,85,255);"/><stop offset="100%" style="stop-color: rgb(121,121,255);"/></linearGradient>
<linearGradient id="2939642525264365gp15" x1="94" y1="0" x2="94.36" y2="0" gradientUnits="userSpaceOnUse"><stop offset="0%" style="stop-color: rgb(121,121,255);"/><stop offset="100%" style="stop-color: rgb(85,85,255);"/></linearGradient>
<linearGradient id="2939642525264365gp20" x1="105.97" y1="0" x2="106" y2="0" gradientUnits="userSpaceOnUse"><stop offset="0%" style="stop-color: rgb(85,85,255);"/><stop offset="100%" style="stop-color: rgb(255,255,255);"/></linearGradient>
<linearGradient id="2939642525264365gp11" x1="87" y1="0" x2="87.39" y2="0" gradientUnits="userSpaceOnUse"><stop offset="0%" style="stop-color: rgb(121,121,255);"/><stop offset="100%" style="stop-color: rgb(85,85,255);"/></linearGradient>
<linearGradient id="2939642525264365gp12" x1="92.04" y1="0" x2="92" y2="0" gradientUnits="userSpaceOnUse"><stop offset="0%" style="stop-color: rgb(85,85,255);"/><stop offset="100%" style="stop-color: rgb(255,255,255);"/></linearGradient>
<linearGradient id="2939642525264365gp37" x1="72" y1="0" x2="72" y2="0" gradientUnits="userSpaceOnUse"><stop offset="0%" style="stop-color: rgb(255,255,255);"/><stop offset="100%" style="stop-color: rgb(255,85,85);"/></linearGradient>
<linearGradient id="2939642525264365gp4" x1="78.1" y1="0" x2="78" y2="0" gradientUnits="userSpaceOnUse"><stop offset="0%" style="stop-color: rgb(85,85,255);"/><stop offset="100%" style="stop-color: rgb(255,255,255);"/></linearGradient>
<linearGradient id="2939642525264365gp16" x1="99" y1="0" x2="99" y2="0" gradientUnits="userSpaceOnUse"><stop offset="0%" style="stop-color: rgb(85,85,255);"/><stop offset="100%" style="stop-color: rgb(255,255,255);"/></linearGradient>
<linearGradient id="2939642525264365gp8" x1="85.07" y1="0" x2="85" y2="0" gradientUnits="userSpaceOnUse"><stop offset="0%" style="stop-color: rgb(85,85,255);"/><stop offset="100%" style="stop-color: rgb(255,255,255);"/></linearGradient>
<linearGradient id="2939642525264365gp0" x1="71.14" y1="0" x2="71" y2="0" gradientUnits="userSpaceOnUse"><stop offset="0%" style="stop-color: rgb(85,85,255);"/><stop offset="100%" style="stop-color: rgb(255,255,255);"/></linearGradient>
<linearGradient id="2939642525264365gp7" x1="80" y1="0" x2="80.42" y2="0" gradientUnits="userSpaceOnUse"><stop offset="0%" style="stop-color: rgb(121,121,255);"/><stop offset="100%" style="stop-color: rgb(85,85,255);"/></linearGradient>
<linearGradient id="2939642525264365gp64" x1="329.88" y1="0" x2="330" y2="0" gradientUnits="userSpaceOnUse"><stop offset="0%" style="stop-color: rgb(255,85,85);"/><stop offset="100%" style="stop-color: rgb(255,255,255);"/></linearGradient>
<linearGradient id="2939642525264365gp3" x1="73" y1="0" x2="73.46" y2="0" gradientUnits="userSpaceOnUse"><stop offset="0%" style="stop-color: rgb(121,121,255);"/><stop offset="100%" style="stop-color: rgb(85,85,255);"/></linearGradient>
<linearGradient id="2939642525264365gp46" x1="84" y1="0" x2="86" y2="0" gradientUnits="userSpaceOnUse"><stop offset="0%" style="stop-color: rgb(255,85,85);"/><stop offset="100%" style="stop-color: rgb(255,121,121);"/></linearGradient>
<linearGradient id="2939642525264365gp62" x1="116" y1="0" x2="118" y2="0" gradientUnits="userSpaceOnUse"><stop offset="0%" style="stop-color: rgb(255,85,85);"/><stop offset="100%" style="stop-color: rgb(255,121,121);"/></linearGradient>
<linearGradient id="2939642525264365gp1" x1="71" y1="0" x2="72" y2="0" gradientUnits="userSpaceOnUse"><stop offset="0%" style="stop-color: rgb(255,255,255);"/><stop offset="100%" style="stop-color: rgb(85,85,255);"/></linearGradient>
<linearGradient id="2939642525264365gp35" x1="224" y1="0" x2="224.39" y2="0" gradientUnits="userSpaceOnUse"><stop offset="0%" style="stop-color: rgb(121,121,255);"/><stop offset="100%" style="stop-color: rgb(85,85,255);"/></linearGradient>
<linearGradient id="2939642525264365gp21" x1="106" y1="0" x2="106" y2="0" gradientUnits="userSpaceOnUse"><stop offset="0%" style="stop-color: rgb(255,255,255);"/><stop offset="100%" style="stop-color: rgb(85,85,255);"/></linearGradient>
<linearGradient id="2939642525264365gp53" x1="99" y1="0" x2="100" y2="0" gradientUnits="userSpaceOnUse"><stop offset="0%" style="stop-color: rgb(255,255,255);"/><stop offset="100%" style="stop-color: rgb(255,85,85);"/></linearGradient>
<linearGradient id="2939642525264365gp67" x1="333" y1="0" x2="333.86" y2="0" gradientUnits="userSpaceOnUse"><stop offset="0%" style="stop-color: rgb(255,121,121);"/><stop offset="100%" style="stop-color: rgb(255,85,85);"/></linearGradient>
<linearGradient id="2939642525264365gp31" x1="166" y1="0" x2="166.34" y2="0" gradientUnits="userSpaceOnUse"><stop offset="0%" style="stop-color: rgb(121,121,255);"/><stop offset="100%" style="stop-color: rgb(85,85,255);"/></linearGradient>
<linearGradient id="2939642525264365gp10" x1="86" y1="0" x2="87" y2="0" gradientUnits="userSpaceOnUse"><stop offset="0%" style="stop-color: rgb(85,85,255);"/><stop offset="100%" style="stop-color: rgb(121,121,255);"/></linearGradient>
<linearGradient id="2939642525264365gp38" x1="72" y1="0" x2="74" y2="0" gradientUnits="userSpaceOnUse"><stop offset="0%" style="stop-color: rgb(255,85,85);"/><stop offset="100%" style="stop-color: rgb(255,121,121);"/></linearGradient>
<linearGradient id="2939642525264365gp6" x1="79" y1="0" x2="80" y2="0" gradientUnits="userSpaceOnUse"><stop offset="0%" style="stop-color: rgb(85,85,255);"/><stop offset="100%" style="stop-color: rgb(121,121,255);"/></linearGradient>
<linearGradient id="2939642525264365gp36" x1="71.14" y1="0" x2="72" y2="0" gradientUnits="userSpaceOnUse"><stop offset="0%" style="stop-color: rgb(255,85,85);"/><stop offset="100%" style="stop-color: rgb(255,255,255);"/></linearGradient>
<linearGradient id="2939642525264365gp41" x1="76" y1="0" x2="76" y2="0" gradientUnits="userSpaceOnUse"><stop offset="0%" style="stop-color: rgb(255,255,255);"/><stop offset="100%" style="stop-color: rgb(255,85,85);"/></linearGradient>
<linearGradient id="2939642525264365gp42" x1="76" y1="0" x2="78" y2="0" gradientUnits="userSpaceOnUse"><stop offset="0%" style="stop-color: rgb(255,85,85);"/><stop offset="100%" style="stop-color: rgb(255,121,121);"/></linearGradient>
<linearGradient id="2939642525264365gp58" x1="108" y1="0" x2="110" y2="0" gradientUnits="userSpaceOnUse"><stop offset="0%" style="stop-color: rgb(255,85,85);"/><stop offset="100%" style="stop-color: rgb(255,121,121);"/></linearGradient>
<linearGradient id="2939642525264365gp47" x1="86" y1="0" x2="87.06" y2="0" gradientUnits="userSpaceOnUse"><stop offset="0%" style="stop-color: rgb(255,121,121);"/><stop offset="100%" style="stop-color: rgb(255,85,85);"/></linearGradient>
<linearGradient id="2939642525264365gp65" x1="330" y1="0" x2="331" y2="0" gradientUnits="userSpaceOnUse"><stop offset="0%" style="stop-color: rgb(255,255,255);"/><stop offset="100%" style="stop-color: rgb(255,85,85);"/></linearGradient>
<linearGradient id="2939642525264365gp28" x1="164.02" y1="0" x2="164" y2="0" gradientUnits="userSpaceOnUse"><stop offset="0%" style="stop-color: rgb(85,85,255);"/><stop offset="100%" style="stop-color: rgb(255,255,255);"/></linearGradient>
<linearGradient id="2939642525264365gp22" x1="106" y1="0" x2="108" y2="0" gradientUnits="userSpaceOnUse"><stop offset="0%" style="stop-color: rgb(85,85,255);"/><stop offset="100%" style="stop-color: rgb(121,121,255);"/></linearGradient>
<linearGradient id="2939642525264365gp57" x1="107" y1="0" x2="108" y2="0" gradientUnits="userSpaceOnUse"><stop offset="0%" style="stop-color: rgb(255,255,255);"/><stop offset="100%" style="stop-color: rgb(255,85,85);"/></linearGradient>
<linearGradient id="2939642525264365gp9" x1="85" y1="0" x2="86" y2="0" gradientUnits="userSpaceOnUse"><stop offset="0%" style="stop-color: rgb(255,255,255);"/><stop offset="100%" style="stop-color: rgb(85,85,255);"/></linearGradient>
<linearGradient id="2939642525264365gp17" x1="99" y1="0" x2="99" y2="0" gradientUnits="userSpaceOnUse"><stop offset="0%" style="stop-color: rgb(255,255,255);"/><stop offset="100%" style="stop-color: rgb(85,85,255);"/></linearGradient>
<linearGradient id="2939642525264365gp59" x1="110" y1="0" x2="110.94" y2="0" gradientUnits="userSpaceOnUse"><stop offset="0%" style="stop-color: rgb(255,121,121);"/><stop offset="100%" style="stop-color: rgb(255,85,85);"/></linearGradient>
<linearGradient id="2939642525264365gp32" x1="222.07" y1="0" x2="222" y2="0" gradientUnits="userSpaceOnUse"><stop offset="0%" style="stop-color: rgb(85,85,255);"/><stop offset="100%" style="stop-color: rgb(255,255,255);"/></linearGradient>
<clipPath id="2939642525264365clip-0"><path d="M 0 0 L 421 0 L 421 476 L 0 476 L 0 0 M 0 0"/></clipPath>
<clipPath id="2939642525264365clip-1"><path d="M 237.5 197.5 L 237.5 618.5 L -238.5 618.5 L -238.5 197.5 L 237.5 197.5 M 237.5 197.5"/></clipPath>
<clipPath id="2939642525264365clip-2"><path d="M 58 10 L 58 425 L 347 425 L 347 10 M 58 10"/></clipPath>
</defs>
<rect x="0" y="0" width="421" height="476" style="fill: rgb(255,255,255); fill-opacity: 1.0" transform="matrix(1,0,0,1,0,0)" clip-path="url(#2939642525264365clip-0)"/><rect x="360" y="219" width="60" height="40" style="fill: rgb(255,255,255); fill-opacity: 1.0" transform="matrix(1,0,0,1,0,0)" clip-path="url(#2939642525264365clip-0)"/><g style="fill: rgb(255,85,85); fill-opacity: 1.0; stroke: none" transform="matrix(1,0,0,1,0,0)" clip-path="url(#2939642525264365clip-0)"><path d="M 363 224.5 L 369 224.5 L 369 234.5 L 363 234.5 L 363 224.5 M 363 224.5"/></g><g transform="matrix(1,0,0,1,0,0)"><text x="373" y="230.75" style="fill: rgb(64,64,64); fill-opacity: 1.0; font-family: sans-serif; font-size: 12px; " clip-path="url(#2939642525264365clip-0)">+ strand</text></g><g style="fill: rgb(85,85,255); fill-opacity: 1.0; stroke: none" transform="matrix(1,0,0,1,0,0)" clip-path="url(#2939642525264365clip-0)"><path d="M 363 243.5 L 369 243.5 L 369 253.5 L 363 253.5 L 363 243.5 M 363 243.5"/></g><g transform="matrix(1,0,0,1,0,0)"><text x="373" y="249.75" style="fill: rgb(64,64,64); fill-opacity: 1.0; font-family: sans-serif; font-size: 12px; " clip-path="url(#2939642525264365clip-0)">- strand</text></g><rect x="58" y="10" width="289" height="415" style="fill: rgb(255,255,255); fill-opacity: 1.0" transform="matrix(1,0,0,1,0,0)" clip-path="url(#2939642525264365clip-0)"/><line x1="58" y1="429" x2="347" y2="429" style="stroke-width: 0.5;stroke: rgb(128,128,128);stroke-opacity: 1.0;shape-rendering:crispEdges;" transform="matrix(1,0,0,1,0,0)" clip-path="url(#2939642525264365clip-0)"/><g transform="matrix(1,0,0,1,0,0)"><text x="64.14" y="442.35" style="fill: rgb(64,64,64); fill-opacity: 1.0; font-family: sans-serif; font-size: 12px; " clip-path="url(#2939642525264365clip-0)">30</text></g><line x1="71.14" y1="431" x2="71.14" y2="429" style="stroke-width: 0.5;stroke: rgb(128,128,128);stroke-opacity: 1.0;shape-rendering:crispEdges;" transform="matrix(1,0,0,1,0,0)" clip-path="url(#2939642525264365clip-0)"/><g transform="matrix(1,0,0,1,0,0)"><text x="100.63" y="442.35" style="fill: rgb(64,64,64); fill-opacity: 1.0; font-family: sans-serif; font-size: 12px; " clip-path="url(#2939642525264365clip-0)">35</text></g><line x1="107.63" y1="431" x2="107.63" y2="429" style="stroke-width: 0.5;stroke: rgb(128,128,128);stroke-opacity: 1.0;shape-rendering:crispEdges;" transform="matrix(1,0,0,1,0,0)" clip-path="url(#2939642525264365clip-0)"/><g transform="matrix(1,0,0,1,0,0)"><text x="137.12" y="442.35" style="fill: rgb(64,64,64); fill-opacity: 1.0; font-family: sans-serif; font-size: 12px; " clip-path="url(#2939642525264365clip-0)">40</text></g><line x1="144.12" y1="431" x2="144.12" y2="429" style="stroke-width: 0.5;stroke: rgb(128,128,128);stroke-opacity: 1.0;shape-rendering:crispEdges;" transform="matrix(1,0,0,1,0,0)" clip-path="url(#2939642525264365clip-0)"/><g transform="matrix(1,0,0,1,0,0)"><text x="173.61" y="442.35" style="fill: rgb(64,64,64); fill-opacity: 1.0; font-family: sans-serif; font-size: 12px; " clip-path="url(#2939642525264365clip-0)">45</text></g><line x1="180.61" y1="431" x2="180.61" y2="429" style="stroke-width: 0.5;stroke: rgb(128,128,128);stroke-opacity: 1.0;shape-rendering:crispEdges;" transform="matrix(1,0,0,1,0,0)" clip-path="url(#2939642525264365clip-0)"/><g transform="matrix(1,0,0,1,0,0)"><text x="210.1" y="442.35" style="fill: rgb(64,64,64); fill-opacity: 1.0; font-family: sans-serif; font-size: 12px; " clip-path="url(#2939642525264365clip-0)">50</text></g><line x1="217.1" y1="431" x2="217.1" y2="429" style="stroke-width: 0.5;stroke: rgb(128,128,128);stroke-opacity: 1.0;shape-rendering:crispEdges;" transform="matrix(1,0,0,1,0,0)" clip-path="url(#2939642525264365clip-0)"/><g transform="matrix(1,0,0,1,0,0)"><text x="246.59" y="442.35" style="fill: rgb(64,64,64); fill-opacity: 1.0; font-family: sans-serif; font-size: 12px; " clip-path="url(#2939642525264365clip-0)">55</text></g><line x1="253.59" y1="431" x2="253.59" y2="429" style="stroke-width: 0.5;stroke: rgb(128,128,128);stroke-opacity: 1.0;shape-rendering:crispEdges;" transform="matrix(1,0,0,1,0,0)" clip-path="url(#2939642525264365clip-0)"/><g transform="matrix(1,0,0,1,0,0)"><text x="283.08" y="442.35" style="fill: rgb(64,64,64); fill-opacity: 1.0; font-family: sans-serif; font-size: 12px; " clip-path="url(#2939642525264365clip-0)">60</text></g><line x1="290.08" y1="431" x2="290.08" y2="429" style="stroke-width: 0.5;stroke: rgb(128,128,128);stroke-opacity: 1.0;shape-rendering:crispEdges;" transform="matrix(1,0,0,1,0,0)" clip-path="url(#2939642525264365clip-0)"/><g transform="matrix(1,0,0,1,0,0)"><text x="319.57" y="442.35" style="fill: rgb(64,64,64); fill-opacity: 1.0; font-family: sans-serif; font-size: 12px; " clip-path="url(#2939642525264365clip-0)">65</text></g><line x1="326.57" y1="431" x2="326.57" y2="429" style="stroke-width: 0.5;stroke: rgb(128,128,128);stroke-opacity: 1.0;shape-rendering:crispEdges;" transform="matrix(1,0,0,1,0,0)" clip-path="url(#2939642525264365clip-0)"/><g transform="matrix(1,0,0,1,0,0)"><text x="161" y="461.81" style="fill: rgb(64,64,64); fill-opacity: 1.0; font-family: sans-serif; font-size: 14px; font-weight: bold; " clip-path="url(#2939642525264365clip-0)">Read length</text></g><line x1="54" y1="10" x2="54" y2="425" style="stroke-width: 0.5;stroke: rgb(128,128,128);stroke-opacity: 1.0;shape-rendering:crispEdges;" transform="matrix(1,0,0,1,0,0)" clip-path="url(#2939642525264365clip-0)"/><g transform="matrix(1,0,0,1,0,0)"><text x="41" y="426.85" style="fill: rgb(64,64,64); fill-opacity: 1.0; font-family: sans-serif; font-size: 12px; " clip-path="url(#2939642525264365clip-0)">0</text></g><line x1="52" y1="425" x2="54" y2="425" style="stroke-width: 0.5;stroke: rgb(128,128,128);stroke-opacity: 1.0;shape-rendering:crispEdges;" transform="matrix(1,0,0,1,0,0)" clip-path="url(#2939642525264365clip-0)"/><g transform="matrix(1,0,0,1,0,0)"><text x="41" y="395.23" style="fill: rgb(64,64,64); fill-opacity: 1.0; font-family: sans-serif; font-size: 12px; " clip-path="url(#2939642525264365clip-0)">2</text></g><line x1="52" y1="393.38" x2="54" y2="393.38" style="stroke-width: 0.5;stroke: rgb(128,128,128);stroke-opacity: 1.0;shape-rendering:crispEdges;" transform="matrix(1,0,0,1,0,0)" clip-path="url(#2939642525264365clip-0)"/><g transform="matrix(1,0,0,1,0,0)"><text x="41" y="363.61" style="fill: rgb(64,64,64); fill-opacity: 1.0; font-family: sans-serif; font-size: 12px; " clip-path="url(#2939642525264365clip-0)">4</text></g><line x1="52" y1="361.76" x2="54" y2="361.76" style="stroke-width: 0.5;stroke: rgb(128,128,128);stroke-opacity: 1.0;shape-rendering:crispEdges;" transform="matrix(1,0,0,1,0,0)" clip-path="url(#2939642525264365clip-0)"/><g transform="matrix(1,0,0,1,0,0)"><text x="41" y="331.99" style="fill: rgb(64,64,64); fill-opacity: 1.0; font-family: sans-serif; font-size: 12px; " clip-path="url(#2939642525264365clip-0)">6</text></g><line x1="52" y1="330.14" x2="54" y2="330.14" style="stroke-width: 0.5;stroke: rgb(128,128,128);stroke-opacity: 1.0;shape-rendering:crispEdges;" transform="matrix(1,0,0,1,0,0)" clip-path="url(#2939642525264365clip-0)"/><g transform="matrix(1,0,0,1,0,0)"><text x="41" y="300.37" style="fill: rgb(64,64,64); fill-opacity: 1.0; font-family: sans-serif; font-size: 12px; " clip-path="url(#2939642525264365clip-0)">8</text></g><line x1="52" y1="298.52" x2="54" y2="298.52" style="stroke-width: 0.5;stroke: rgb(128,128,128);stroke-opacity: 1.0;shape-rendering:crispEdges;" transform="matrix(1,0,0,1,0,0)" clip-path="url(#2939642525264365clip-0)"/><g transform="matrix(1,0,0,1,0,0)"><text x="34" y="268.75" style="fill: rgb(64,64,64); fill-opacity: 1.0; font-family: sans-serif; font-size: 12px; " clip-path="url(#2939642525264365clip-0)">10</text></g><line x1="52" y1="266.9" x2="54" y2="266.9" style="stroke-width: 0.5;stroke: rgb(128,128,128);stroke-opacity: 1.0;shape-rendering:crispEdges;" transform="matrix(1,0,0,1,0,0)" clip-path="url(#2939642525264365clip-0)"/><g transform="matrix(1,0,0,1,0,0)"><text x="34" y="237.13" style="fill: rgb(64,64,64); fill-opacity: 1.0; font-family: sans-serif; font-size: 12px; " clip-path="url(#2939642525264365clip-0)">12</text></g><line x1="52" y1="235.29" x2="54" y2="235.29" style="stroke-width: 0.5;stroke: rgb(128,128,128);stroke-opacity: 1.0;shape-rendering:crispEdges;" transform="matrix(1,0,0,1,0,0)" clip-path="url(#2939642525264365clip-0)"/><g transform="matrix(1,0,0,1,0,0)"><text x="34" y="205.51" style="fill: rgb(64,64,64); fill-opacity: 1.0; font-family: sans-serif; font-size: 12px; " clip-path="url(#2939642525264365clip-0)">14</text></g><line x1="52" y1="203.67" x2="54" y2="203.67" style="stroke-width: 0.5;stroke: rgb(128,128,128);stroke-opacity: 1.0;shape-rendering:crispEdges;" transform="matrix(1,0,0,1,0,0)" clip-path="url(#2939642525264365clip-0)"/><g transform="matrix(1,0,0,1,0,0)"><text x="34" y="173.9" style="fill: rgb(64,64,64); fill-opacity: 1.0; font-family: sans-serif; font-size: 12px; " clip-path="url(#2939642525264365clip-0)">16</text></g><line x1="52" y1="172.05" x2="54" y2="172.05" style="stroke-width: 0.5;stroke: rgb(128,128,128);stroke-opacity: 1.0;shape-rendering:crispEdges;" transform="matrix(1,0,0,1,0,0)" clip-path="url(#2939642525264365clip-0)"/><g transform="matrix(1,0,0,1,0,0)"><text x="34" y="142.28" style="fill: rgb(64,64,64); fill-opacity: 1.0; font-family: sans-serif; font-size: 12px; " clip-path="url(#2939642525264365clip-0)">18</text></g><line x1="52" y1="140.43" x2="54" y2="140.43" style="stroke-width: 0.5;stroke: rgb(128,128,128);stroke-opacity: 1.0;shape-rendering:crispEdges;" transform="matrix(1,0,0,1,0,0)" clip-path="url(#2939642525264365clip-0)"/><g transform="matrix(1,0,0,1,0,0)"><text x="34" y="110.66" style="fill: rgb(64,64,64); fill-opacity: 1.0; font-family: sans-serif; font-size: 12px; " clip-path="url(#2939642525264365clip-0)">20</text></g><line x1="52" y1="108.81" x2="54" y2="108.81" style="stroke-width: 0.5;stroke: rgb(128,128,128);stroke-opacity: 1.0;shape-rendering:crispEdges;" transform="matrix(1,0,0,1,0,0)" clip-path="url(#2939642525264365clip-0)"/><g transform="matrix(1,0,0,1,0,0)"><text x="34" y="79.04" style="fill: rgb(64,64,64); fill-opacity: 1.0; font-family: sans-serif; font-size: 12px; " clip-path="url(#2939642525264365clip-0)">22</text></g><line x1="52" y1="77.19" x2="54" y2="77.19" style="stroke-width: 0.5;stroke: rgb(128,128,128);stroke-opacity: 1.0;shape-rendering:crispEdges;" transform="matrix(1,0,0,1,0,0)" clip-path="url(#2939642525264365clip-0)"/><g transform="matrix(1,0,0,1,0,0)"><text x="34" y="47.42" style="fill: rgb(64,64,64); fill-opacity: 1.0; font-family: sans-serif; font-size: 12px; " clip-path="url(#2939642525264365clip-0)">24</text></g><line x1="52" y1="45.57" x2="54" y2="45.57" style="stroke-width: 0.5;stroke: rgb(128,128,128);stroke-opacity: 1.0;shape-rendering:crispEdges;" transform="matrix(1,0,0,1,0,0)" clip-path="url(#2939642525264365clip-0)"/><g transform="matrix(1,0,0,1,0,0)"><text x="34" y="15.8" style="fill: rgb(64,64,64); fill-opacity: 1.0; font-family: sans-serif; font-size: 12px; " clip-path="url(#2939642525264365clip-0)">26</text></g><line x1="52" y1="13.95" x2="54" y2="13.95" style="stroke-width: 0.5;stroke: rgb(128,128,128);stroke-opacity: 1.0;shape-rendering:crispEdges;" transform="matrix(1,0,0,1,0,0)" clip-path="url(#2939642525264365clip-0)"/><g style="fill: rgb(64,64,64); fill-opacity: 1.0; stroke: none" transform="matrix(0,-1,1,0,-197.5,237.5)" clip-path="url(#2939642525264365clip-1)"><path d="M -18.05 209.53 C -19.47 209.53 -20.64 210.02 -21.52 210.95 C -22.42 211.92 -22.94 213.36 -22.94 214.87 C -22.94 216.41 -22.42 217.84 -21.52 218.81 C -20.62 219.77 -19.48 220.23 -18.03 220.23 C -16.56 220.23 -15.42 219.77 -14.55 218.81 C -13.66 217.87 -13.11 216.39 -13.11 214.95 C -13.11 213.36 -13.62 211.91 -14.55 210.95 C -15.44 209.98 -16.56 209.53 -18.05 209.53 M -18.05 209.53 M -18.03 211.33 C -16.3 211.33 -15.22 212.72 -15.22 214.94 C -15.22 217.03 -16.34 218.44 -18.03 218.44 C -19.73 218.44 -20.84 217.03 -20.84 214.87 C -20.84 212.72 -19.73 211.33 -18.03 211.33 M -18.03 211.33 M -5.3 215.17 C -5.44 213.33 -6.65 212.22 -8.56 212.22 C -10.83 212.22 -12.14 213.7 -12.14 216.28 C -12.14 218.77 -10.83 220.23 -8.59 220.23 C -6.75 220.23 -5.48 219.09 -5.3 217.28 L -7.17 217.28 C -7.42 218.27 -7.81 218.64 -8.59 218.64 C -9.58 218.64 -10.17 217.77 -10.17 216.28 C -10.17 215.55 -10.03 214.89 -9.8 214.45 C -9.58 214.03 -9.14 213.8 -8.58 213.8 C -7.78 213.8 -7.4 214.19 -7.17 215.17 L -5.3 215.17 M -5.3 215.17 M 2.49 215.17 C 2.35 213.33 1.13 212.22 -0.78 212.22 C -3.04 212.22 -4.36 213.7 -4.36 216.28 C -4.36 218.77 -3.04 220.23 -0.81 220.23 C 1.04 220.23 2.3 219.09 2.49 217.28 L 0.61 217.28 C 0.36 218.27 -0.03 218.64 -0.81 218.64 C -1.79 218.64 -2.39 217.77 -2.39 216.28 C -2.39 215.55 -2.25 214.89 -2.01 214.45 C -1.79 214.03 -1.36 213.8 -0.79 213.8 C 0 213.8 0.38 214.19 0.61 215.17 L 2.49 215.17 M 2.49 215.17 M 10.54 219.91 L 10.54 212.34 L 8.57 212.34 L 8.57 217.08 C 8.57 217.97 7.96 218.56 6.99 218.56 C 6.15 218.56 5.73 218.11 5.73 217.2 L 5.73 212.34 L 3.77 212.34 L 3.77 217.61 C 3.77 219.3 4.68 220.23 6.3 220.23 C 7.33 220.23 8.01 219.86 8.57 219.02 L 8.57 219.91 L 10.54 219.91 M 10.54 219.91 M 12.39 212.34 L 12.39 219.91 L 14.36 219.91 L 14.36 215.89 C 14.36 214.73 14.94 214.17 16.08 214.17 C 16.3 214.17 16.42 214.19 16.7 214.22 L 16.7 212.23 C 16.58 212.22 16.55 212.22 16.45 212.22 C 15.56 212.22 14.8 212.81 14.36 213.83 L 14.36 212.34 L 12.39 212.34 M 12.39 212.34 M 17.83 212.34 L 17.83 219.91 L 19.8 219.91 L 19.8 215.89 C 19.8 214.73 20.38 214.17 21.52 214.17 C 21.74 214.17 21.87 214.19 22.15 214.22 L 22.15 212.23 C 22.02 212.22 21.99 212.22 21.9 212.22 C 21.01 212.22 20.24 212.81 19.8 213.83 L 19.8 212.34 L 17.83 212.34 M 17.83 212.34 M 29.75 216.75 C 29.75 216.58 29.75 216.5 29.75 216.41 C 29.75 215.66 29.64 214.95 29.47 214.42 C 28.95 213.05 27.73 212.22 26.22 212.22 C 24.05 212.22 22.72 213.78 22.72 216.33 C 22.72 218.75 24.03 220.23 26.17 220.23 C 27.86 220.23 29.23 219.28 29.67 217.78 L 27.73 217.78 C 27.5 218.37 26.95 218.73 26.25 218.73 C 25.69 218.73 25.23 218.5 24.95 218.08 C 24.77 217.8 24.7 217.45 24.67 216.75 L 29.75 216.75 M 29.75 216.75 M 24.7 215.44 C 24.83 214.28 25.31 213.72 26.19 213.72 C 27.08 213.72 27.61 214.31 27.72 215.44 L 24.7 215.44 M 24.7 215.44 M 31.06 212.34 L 31.06 219.91 L 33.03 219.91 L 33.03 215.37 C 33.03 214.47 33.64 213.89 34.61 213.89 C 35.46 213.89 35.88 214.34 35.88 215.25 L 35.88 219.91 L 37.83 219.91 L 37.83 214.84 C 37.83 213.16 36.92 212.22 35.3 212.22 C 34.28 212.22 33.6 212.58 33.03 213.44 L 33.03 212.34 L 31.06 212.34 M 31.06 212.34 M 46.06 215.17 C 45.92 213.33 44.7 212.22 42.79 212.22 C 40.53 212.22 39.21 213.7 39.21 216.28 C 39.21 218.77 40.53 220.23 42.76 220.23 C 44.6 220.23 45.87 219.09 46.06 217.28 L 44.18 217.28 C 43.93 218.27 43.54 218.64 42.76 218.64 C 41.78 218.64 41.18 217.77 41.18 216.28 C 41.18 215.55 41.32 214.89 41.56 214.45 C 41.78 214.03 42.21 213.8 42.78 213.8 C 43.57 213.8 43.95 214.19 44.18 215.17 L 46.06 215.17 M 46.06 215.17 M 53.87 216.75 C 53.87 216.58 53.87 216.5 53.87 216.41 C 53.87 215.66 53.76 214.95 53.59 214.42 C 53.07 213.05 51.86 212.22 50.34 212.22 C 48.17 212.22 46.84 213.78 46.84 216.33 C 46.84 218.75 48.15 220.23 50.29 220.23 C 51.98 220.23 53.36 219.28 53.79 217.78 L 51.86 217.78 C 51.62 218.37 51.07 218.73 50.37 218.73 C 49.81 218.73 49.36 218.5 49.07 218.08 C 48.89 217.8 48.82 217.45 48.79 216.75 L 53.87 216.75 M 53.87 216.75 M 48.82 215.44 C 48.95 214.28 49.43 213.72 50.31 213.72 C 51.2 213.72 51.73 214.31 51.84 215.44 L 48.82 215.44 M 48.82 215.44 M 61.37 214.78 C 61.36 213.19 60.12 212.22 58.09 212.22 C 56.17 212.22 54.98 213.19 54.98 214.73 C 54.98 215.25 55.14 215.67 55.41 215.97 C 55.67 216.23 55.91 216.36 56.64 216.61 L 58.97 217.33 C 59.47 217.48 59.62 217.64 59.62 217.95 C 59.62 218.41 59.09 218.69 58.17 218.69 C 57.66 218.69 57.26 218.61 57.01 218.42 C 56.8 218.27 56.72 218.11 56.64 217.7 L 54.72 217.7 C 54.78 219.37 56 220.23 58.28 220.23 C 59.34 220.23 60.14 220 60.7 219.56 C 61.25 219.11 61.59 218.41 61.59 217.67 C 61.59 216.69 61.11 216.06 60.11 215.77 L 57.62 215.05 C 57.08 214.87 56.94 214.77 56.94 214.45 C 56.94 214.05 57.39 213.77 58.08 213.77 C 59.01 213.77 59.48 214.09 59.5 214.78 L 61.37 214.78 M 61.37 214.78"/></g><line x1="71.14" y1="10" x2="71.14" y2="425" style="stroke-width: 0.5;stroke: rgb(150,150,150);stroke-opacity: 0.7;stroke-dasharray: 2.0, 2.0;shape-rendering:crispEdges;" transform="matrix(1,0,0,1,0,0)" clip-path="url(#2939642525264365clip-2)"/><line x1="107.63" y1="10" x2="107.63" y2="425" style="stroke-width: 0.5;stroke: rgb(150,150,150);stroke-opacity: 0.7;stroke-dasharray: 2.0, 2.0;shape-rendering:crispEdges;" transform="matrix(1,0,0,1,0,0)" clip-path="url(#2939642525264365clip-2)"/><line x1="144.12" y1="10" x2="144.12" y2="425" style="stroke-width: 0.5;stroke: rgb(150,150,150);stroke-opacity: 0.7;stroke-dasharray: 2.0, 2.0;shape-rendering:crispEdges;" transform="matrix(1,0,0,1,0,0)" clip-path="url(#2939642525264365clip-2)"/><line x1="180.61" y1="10" x2="180.61" y2="425" style="stroke-width: 0.5;stroke: rgb(150,150,150);stroke-opacity: 0.7;stroke-dasharray: 2.0, 2.0;shape-rendering:crispEdges;" transform="matrix(1,0,0,1,0,0)" clip-path="url(#2939642525264365clip-2)"/><line x1="217.1" y1="10" x2="217.1" y2="425" style="stroke-width: 0.5;stroke: rgb(150,150,150);stroke-opacity: 0.7;stroke-dasharray: 2.0, 2.0;shape-rendering:crispEdges;" transform="matrix(1,0,0,1,0,0)" clip-path="url(#2939642525264365clip-2)"/><line x1="253.59" y1="10" x2="253.59" y2="425" style="stroke-width: 0.5;stroke: rgb(150,150,150);stroke-opacity: 0.7;stroke-dasharray: 2.0, 2.0;shape-rendering:crispEdges;" transform="matrix(1,0,0,1,0,0)" clip-path="url(#2939642525264365clip-2)"/><line x1="290.08" y1="10" x2="290.08" y2="425" style="stroke-width: 0.5;stroke: rgb(150,150,150);stroke-opacity: 0.7;stroke-dasharray: 2.0, 2.0;shape-rendering:crispEdges;" transform="matrix(1,0,0,1,0,0)" clip-path="url(#2939642525264365clip-2)"/><line x1="326.57" y1="10" x2="326.57" y2="425" style="stroke-width: 0.5;stroke: rgb(150,150,150);stroke-opacity: 0.7;stroke-dasharray: 2.0, 2.0;shape-rendering:crispEdges;" transform="matrix(1,0,0,1,0,0)" clip-path="url(#2939642525264365clip-2)"/><line x1="58" y1="393.38" x2="347" y2="393.38" style="stroke-width: 0.5;stroke: rgb(150,150,150);stroke-opacity: 0.7;stroke-dasharray: 2.0, 2.0;shape-rendering:crispEdges;" transform="matrix(1,0,0,1,0,0)" clip-path="url(#2939642525264365clip-2)"/><line x1="58" y1="361.76" x2="347" y2="361.76" style="stroke-width: 0.5;stroke: rgb(150,150,150);stroke-opacity: 0.7;stroke-dasharray: 2.0, 2.0;shape-rendering:crispEdges;" transform="matrix(1,0,0,1,0,0)" clip-path="url(#2939642525264365clip-2)"/><line x1="58" y1="330.14" x2="347" y2="330.14" style="stroke-width: 0.5;stroke: rgb(150,150,150);stroke-opacity: 0.7;stroke-dasharray: 2.0, 2.0;shape-rendering:crispEdges;" transform="matrix(1,0,0,1,0,0)" clip-path="url(#2939642525264365clip-2)"/><line x1="58" y1="298.52" x2="347" y2="298.52" style="stroke-width: 0.5;stroke: rgb(150,150,150);stroke-opacity: 0.7;stroke-dasharray: 2.0, 2.0;shape-rendering:crispEdges;" transform="matrix(1,0,0,1,0,0)" clip-path="url(#2939642525264365clip-2)"/><line x1="58" y1="266.9" x2="347" y2="266.9" style="stroke-width: 0.5;stroke: rgb(150,150,150);stroke-opacity: 0.7;stroke-dasharray: 2.0, 2.0;shape-rendering:crispEdges;" transform="matrix(1,0,0,1,0,0)" clip-path="url(#2939642525264365clip-2)"/><line x1="58" y1="235.29" x2="347" y2="235.29" style="stroke-width: 0.5;stroke: rgb(150,150,150);stroke-opacity: 0.7;stroke-dasharray: 2.0, 2.0;shape-rendering:crispEdges;" transform="matrix(1,0,0,1,0,0)" clip-path="url(#2939642525264365clip-2)"/><line x1="58" y1="203.67" x2="347" y2="203.67" style="stroke-width: 0.5;stroke: rgb(150,150,150);stroke-opacity: 0.7;stroke-dasharray: 2.0, 2.0;shape-rendering:crispEdges;" transform="matrix(1,0,0,1,0,0)" clip-path="url(#2939642525264365clip-2)"/><line x1="58" y1="172.05" x2="347" y2="172.05" style="stroke-width: 0.5;stroke: rgb(150,150,150);stroke-opacity: 0.7;stroke-dasharray: 2.0, 2.0;shape-rendering:crispEdges;" transform="matrix(1,0,0,1,0,0)" clip-path="url(#2939642525264365clip-2)"/><line x1="58" y1="140.43" x2="347" y2="140.43" style="stroke-width: 0.5;stroke: rgb(150,150,150);stroke-opacity: 0.7;stroke-dasharray: 2.0, 2.0;shape-rendering:crispEdges;" transform="matrix(1,0,0,1,0,0)" clip-path="url(#2939642525264365clip-2)"/><line x1="58" y1="108.81" x2="347" y2="108.81" style="stroke-width: 0.5;stroke: rgb(150,150,150);stroke-opacity: 0.7;stroke-dasharray: 2.0, 2.0;shape-rendering:crispEdges;" transform="matrix(1,0,0,1,0,0)" clip-path="url(#2939642525264365clip-2)"/><line x1="58" y1="77.19" x2="347" y2="77.19" style="stroke-width: 0.5;stroke: rgb(150,150,150);stroke-opacity: 0.7;stroke-dasharray: 2.0, 2.0;shape-rendering:crispEdges;" transform="matrix(1,0,0,1,0,0)" clip-path="url(#2939642525264365clip-2)"/><line x1="58" y1="45.57" x2="347" y2="45.57" style="stroke-width: 0.5;stroke: rgb(150,150,150);stroke-opacity: 0.7;stroke-dasharray: 2.0, 2.0;shape-rendering:crispEdges;" transform="matrix(1,0,0,1,0,0)" clip-path="url(#2939642525264365clip-2)"/><line x1="58" y1="13.95" x2="347" y2="13.95" style="stroke-width: 0.5;stroke: rgb(150,150,150);stroke-opacity: 0.7;stroke-dasharray: 2.0, 2.0;shape-rendering:crispEdges;" transform="matrix(1,0,0,1,0,0)" clip-path="url(#2939642525264365clip-2)"/><line x1="58" y1="425" x2="347" y2="425" style="stroke-width: 0.5;stroke: rgb(0,0,0);stroke-opacity: 0.7;shape-rendering:crispEdges;" transform="matrix(1,0,0,1,0,0)" clip-path="url(#2939642525264365clip-2)"/><rect x="71" y="29.76" width="1" height="395.24" style="fill: url(#2939642525264365gp1); fill-opacity: 0.7" transform="matrix(1,0,0,1,0,0)" clip-path="url(#2939642525264365clip-2)"/><rect x="72" y="29.76" width="1" height="395.24" style="fill: url(#2939642525264365gp2); fill-opacity: 0.7" transform="matrix(1,0,0,1,0,0)" clip-path="url(#2939642525264365clip-2)"/><rect x="73" y="29.76" width="0.46" height="395.24" style="fill: url(#2939642525264365gp3); fill-opacity: 0.7" transform="matrix(1,0,0,1,0,0)" clip-path="url(#2939642525264365clip-2)"/><rect x="78" y="266.9" width="1" height="158.1" style="fill: url(#2939642525264365gp5); fill-opacity: 0.7" transform="matrix(1,0,0,1,0,0)" clip-path="url(#2939642525264365clip-2)"/><rect x="79" y="266.9" width="1" height="158.1" style="fill: url(#2939642525264365gp6); fill-opacity: 0.7" transform="matrix(1,0,0,1,0,0)" clip-path="url(#2939642525264365clip-2)"/><rect x="80" y="266.9" width="0.42" height="158.1" style="fill: url(#2939642525264365gp7); fill-opacity: 0.7" transform="matrix(1,0,0,1,0,0)" clip-path="url(#2939642525264365clip-2)"/><rect x="85" y="361.76" width="1" height="63.24" style="fill: url(#2939642525264365gp9); fill-opacity: 0.7" transform="matrix(1,0,0,1,0,0)" clip-path="url(#2939642525264365clip-2)"/><rect x="86" y="361.76" width="1" height="63.24" style="fill: url(#2939642525264365gp10); fill-opacity: 0.7" transform="matrix(1,0,0,1,0,0)" clip-path="url(#2939642525264365clip-2)"/><rect x="87" y="361.76" width="0.39" height="63.24" style="fill: url(#2939642525264365gp11); fill-opacity: 0.7" transform="matrix(1,0,0,1,0,0)" clip-path="url(#2939642525264365clip-2)"/><rect x="92" y="393.38" width="2" height="31.62" style="fill: url(#2939642525264365gp14); fill-opacity: 0.7" transform="matrix(1,0,0,1,0,0)" clip-path="url(#2939642525264365clip-2)"/><rect x="94" y="393.38" width="0.36" height="31.62" style="fill: url(#2939642525264365gp15); fill-opacity: 0.7" transform="matrix(1,0,0,1,0,0)" clip-path="url(#2939642525264365clip-2)"/><rect x="99" y="393.38" width="2" height="31.62" style="fill: url(#2939642525264365gp18); fill-opacity: 0.7" transform="matrix(1,0,0,1,0,0)" clip-path="url(#2939642525264365clip-2)"/><rect x="101" y="393.38" width="0.32" height="31.62" style="fill: url(#2939642525264365gp19); fill-opacity: 0.7" transform="matrix(1,0,0,1,0,0)" clip-path="url(#2939642525264365clip-2)"/><rect x="105.97" y="409.19" width="0.03" height="15.81" style="fill: url(#2939642525264365gp20); fill-opacity: 0.7" transform="matrix(1,0,0,1,0,0)" clip-path="url(#2939642525264365clip-2)"/><rect x="106" y="409.19" width="2" height="15.81" style="fill: url(#2939642525264365gp22); fill-opacity: 0.7" transform="matrix(1,0,0,1,0,0)" clip-path="url(#2939642525264365clip-2)"/><rect x="108" y="409.19" width="0.29" height="15.81" style="fill: url(#2939642525264365gp23); fill-opacity: 0.7" transform="matrix(1,0,0,1,0,0)" clip-path="url(#2939642525264365clip-2)"/><rect x="112.93" y="409.19" width="0.07" height="15.81" style="fill: url(#2939642525264365gp24); fill-opacity: 0.7" transform="matrix(1,0,0,1,0,0)" clip-path="url(#2939642525264365clip-2)"/><rect x="113" y="409.19" width="2" height="15.81" style="fill: url(#2939642525264365gp26); fill-opacity: 0.7" transform="matrix(1,0,0,1,0,0)" clip-path="url(#2939642525264365clip-2)"/><rect x="115" y="409.19" width="0.26" height="15.81" style="fill: url(#2939642525264365gp27); fill-opacity: 0.7" transform="matrix(1,0,0,1,0,0)" clip-path="url(#2939642525264365clip-2)"/><rect x="164" y="409.19" width="2" height="15.81" style="fill: url(#2939642525264365gp30); fill-opacity: 0.7" transform="matrix(1,0,0,1,0,0)" clip-path="url(#2939642525264365clip-2)"/><rect x="166" y="409.19" width="0.34" height="15.81" style="fill: url(#2939642525264365gp31); fill-opacity: 0.7" transform="matrix(1,0,0,1,0,0)" clip-path="url(#2939642525264365clip-2)"/><rect x="222" y="409.19" width="1" height="15.81" style="fill: url(#2939642525264365gp33); fill-opacity: 0.7" transform="matrix(1,0,0,1,0,0)" clip-path="url(#2939642525264365clip-2)"/><rect x="223" y="409.19" width="1" height="15.81" style="fill: url(#2939642525264365gp34); fill-opacity: 0.7" transform="matrix(1,0,0,1,0,0)" clip-path="url(#2939642525264365clip-2)"/><rect x="224" y="409.19" width="0.39" height="15.81" style="fill: url(#2939642525264365gp35); fill-opacity: 0.7" transform="matrix(1,0,0,1,0,0)" clip-path="url(#2939642525264365clip-2)"/><rect x="71.14" y="77.19" width="0.86" height="347.81" style="fill: url(#2939642525264365gp36); fill-opacity: 0.7" transform="matrix(1,0,0,1,0,0)" clip-path="url(#2939642525264365clip-2)"/><rect x="72" y="77.19" width="2" height="347.81" style="fill: url(#2939642525264365gp38); fill-opacity: 0.7" transform="matrix(1,0,0,1,0,0)" clip-path="url(#2939642525264365clip-2)"/><rect x="74" y="77.19" width="1.12" height="347.81" style="fill: url(#2939642525264365gp39); fill-opacity: 0.7" transform="matrix(1,0,0,1,0,0)" clip-path="url(#2939642525264365clip-2)"/><rect x="75.12" y="282.71" width="0.88" height="142.29" style="fill: url(#2939642525264365gp40); fill-opacity: 0.7" transform="matrix(1,0,0,1,0,0)" clip-path="url(#2939642525264365clip-2)"/><rect x="76" y="282.71" width="2" height="142.29" style="fill: url(#2939642525264365gp42); fill-opacity: 0.7" transform="matrix(1,0,0,1,0,0)" clip-path="url(#2939642525264365clip-2)"/><rect x="78" y="282.71" width="1.1" height="142.29" style="fill: url(#2939642525264365gp43); fill-opacity: 0.7" transform="matrix(1,0,0,1,0,0)" clip-path="url(#2939642525264365clip-2)"/><rect x="83" y="345.95" width="1" height="79.05" style="fill: url(#2939642525264365gp45); fill-opacity: 0.7" transform="matrix(1,0,0,1,0,0)" clip-path="url(#2939642525264365clip-2)"/><rect x="84" y="345.95" width="2" height="79.05" style="fill: url(#2939642525264365gp46); fill-opacity: 0.7" transform="matrix(1,0,0,1,0,0)" clip-path="url(#2939642525264365clip-2)"/><rect x="86" y="345.95" width="1.06" height="79.05" style="fill: url(#2939642525264365gp47); fill-opacity: 0.7" transform="matrix(1,0,0,1,0,0)" clip-path="url(#2939642525264365clip-2)"/><rect x="91" y="409.19" width="1" height="15.81" style="fill: url(#2939642525264365gp49); fill-opacity: 0.7" transform="matrix(1,0,0,1,0,0)" clip-path="url(#2939642525264365clip-2)"/><rect x="92" y="409.19" width="2" height="15.81" style="fill: url(#2939642525264365gp50); fill-opacity: 0.7" transform="matrix(1,0,0,1,0,0)" clip-path="url(#2939642525264365clip-2)"/><rect x="94" y="409.19" width="1.02" height="15.81" style="fill: url(#2939642525264365gp51); fill-opacity: 0.7" transform="matrix(1,0,0,1,0,0)" clip-path="url(#2939642525264365clip-2)"/><rect x="99" y="409.19" width="1" height="15.81" style="fill: url(#2939642525264365gp53); fill-opacity: 0.7" transform="matrix(1,0,0,1,0,0)" clip-path="url(#2939642525264365clip-2)"/><rect x="100" y="409.19" width="2" height="15.81" style="fill: url(#2939642525264365gp54); fill-opacity: 0.7" transform="matrix(1,0,0,1,0,0)" clip-path="url(#2939642525264365clip-2)"/><rect x="102" y="409.19" width="0.98" height="15.81" style="fill: url(#2939642525264365gp55); fill-opacity: 0.7" transform="matrix(1,0,0,1,0,0)" clip-path="url(#2939642525264365clip-2)"/><rect x="106.96" y="409.19" width="0.04" height="15.81" style="fill: url(#2939642525264365gp56); fill-opacity: 0.7" transform="matrix(1,0,0,1,0,0)" clip-path="url(#2939642525264365clip-2)"/><rect x="107" y="409.19" width="1" height="15.81" style="fill: url(#2939642525264365gp57); fill-opacity: 0.7" transform="matrix(1,0,0,1,0,0)" clip-path="url(#2939642525264365clip-2)"/><rect x="108" y="409.19" width="2" height="15.81" style="fill: url(#2939642525264365gp58); fill-opacity: 0.7" transform="matrix(1,0,0,1,0,0)" clip-path="url(#2939642525264365clip-2)"/><rect x="110" y="409.19" width="0.94" height="15.81" style="fill: url(#2939642525264365gp59); fill-opacity: 0.7" transform="matrix(1,0,0,1,0,0)" clip-path="url(#2939642525264365clip-2)"/><rect x="114.92" y="409.19" width="0.08" height="15.81" style="fill: url(#2939642525264365gp60); fill-opacity: 0.7" transform="matrix(1,0,0,1,0,0)" clip-path="url(#2939642525264365clip-2)"/><rect x="115" y="409.19" width="1" height="15.81" style="fill: url(#2939642525264365gp61); fill-opacity: 0.7" transform="matrix(1,0,0,1,0,0)" clip-path="url(#2939642525264365clip-2)"/><rect x="116" y="409.19" width="2" height="15.81" style="fill: url(#2939642525264365gp62); fill-opacity: 0.7" transform="matrix(1,0,0,1,0,0)" clip-path="url(#2939642525264365clip-2)"/><rect x="118" y="409.19" width="0.9" height="15.81" style="fill: url(#2939642525264365gp63); fill-opacity: 0.7" transform="matrix(1,0,0,1,0,0)" clip-path="url(#2939642525264365clip-2)"/><rect x="329.88" y="409.19" width="0.12" height="15.81" style="fill: url(#2939642525264365gp64); fill-opacity: 0.7" transform="matrix(1,0,0,1,0,0)" clip-path="url(#2939642525264365clip-2)"/><rect x="330" y="409.19" width="1" height="15.81" style="fill: url(#2939642525264365gp65); fill-opacity: 0.7" transform="matrix(1,0,0,1,0,0)" clip-path="url(#2939642525264365clip-2)"/><rect x="331" y="409.19" width="2" height="15.81" style="fill: url(#2939642525264365gp66); fill-opacity: 0.7" transform="matrix(1,0,0,1,0,0)" clip-path="url(#2939642525264365clip-2)"/><rect x="333" y="409.19" width="0.86" height="15.81" style="fill: url(#2939642525264365gp67); fill-opacity: 0.7" transform="matrix(1,0,0,1,0,0)" clip-path="url(#2939642525264365clip-2)"/><rect x="58" y="10" width="289" height="415" style="stroke-width: 0.5;stroke: rgb(0,0,0);stroke-opacity: 1.0;shape-rendering:crispEdges;; fill: none" transform="matrix(1,0,0,1,0,0)" clip-path="url(#2939642525264365clip-0)"/></svg>
