<!DOCTYPE svg PUBLIC "-//W3C//DTD SVG 1.1//EN" "http://www.w3.org/Graphics/SVG/1.1/DTD/svg11.dtd">
<svg xmlns="http://www.w3.org/2000/svg" xmlns:xlink="http://www.w3.org/1999/xlink" xmlns:jfreesvg="http://www.jfree.org/jfreesvg/svg" width="421" height="476" text-rendering="auto" shape-rendering="auto">
<defs><linearGradient id="2939902123537152gp14" x1="85" y1="0" x2="85" y2="0" gradientUnits="userSpaceOnUse"><stop offset="0%" style="stop-color: rgb(85,85,255);"/><stop offset="100%" style="stop-color: rgb(121,121,255);"/></linearGradient>
<linearGradient id="2939902123537152gp62" x1="93" y1="0" x2="94" y2="0" gradientUnits="userSpaceOnUse"><stop offset="0%" style="stop-color: rgb(255,85,85);"/><stop offset="100%" style="stop-color: rgb(255,121,121);"/></linearGradient>
<linearGradient id="2939902123537152gp68" x1="190.09" y1="0" x2="190" y2="0" gradientUnits="userSpaceOnUse"><stop offset="0%" style="stop-color: rgb(255,85,85);"/><stop offset="100%" style="stop-color: rgb(255,255,255);"/></linearGradient>
<linearGradient id="2939902123537152gp11" x1="83" y1="0" x2="83.3" y2="0" gradientUnits="userSpaceOnUse"><stop offset="0%" style="stop-color: rgb(121,121,255);"/><stop offset="100%" style="stop-color: rgb(85,85,255);"/></linearGradient>
<linearGradient id="2939902123537152gp26" x1="92" y1="0" x2="93" y2="0" gradientUnits="userSpaceOnUse"><stop offset="0%" style="stop-color: rgb(85,85,255);"/><stop offset="100%" style="stop-color: rgb(121,121,255);"/></linearGradient>
<linearGradient id="2939902123537152gp71" x1="192" y1="0" x2="191.97" y2="0" gradientUnits="userSpaceOnUse"><stop offset="0%" style="stop-color: rgb(255,121,121);"/><stop offset="100%" style="stop-color: rgb(255,85,85);"/></linearGradient>
<linearGradient id="2939902123537152gp53" x1="84" y1="0" x2="84" y2="0" gradientUnits="userSpaceOnUse"><stop offset="0%" style="stop-color: rgb(255,255,255);"/><stop offset="100%" style="stop-color: rgb(255,85,85);"/></linearGradient>
<linearGradient id="2939902123537152gp34" x1="150" y1="0" x2="150" y2="0" gradientUnits="userSpaceOnUse"><stop offset="0%" style="stop-color: rgb(85,85,255);"/><stop offset="100%" style="stop-color: rgb(121,121,255);"/></linearGradient>
<linearGradient id="2939902123537152gp58" x1="89" y1="0" x2="91" y2="0" gradientUnits="userSpaceOnUse"><stop offset="0%" style="stop-color: rgb(255,85,85);"/><stop offset="100%" style="stop-color: rgb(255,121,121);"/></linearGradient>
<linearGradient id="2939902123537152gp77" x1="332" y1="0" x2="333" y2="0" gradientUnits="userSpaceOnUse"><stop offset="0%" style="stop-color: rgb(255,255,255);"/><stop offset="100%" style="stop-color: rgb(255,85,85);"/></linearGradient>
<linearGradient id="2939902123537152gp64" x1="180.74" y1="0" x2="181" y2="0" gradientUnits="userSpaceOnUse"><stop offset="0%" style="stop-color: rgb(255,85,85);"/><stop offset="100%" style="stop-color: rgb(255,255,255);"/></linearGradient>
<linearGradient id="2939902123537152gp25" x1="92" y1="0" x2="92" y2="0" gradientUnits="userSpaceOnUse"><stop offset="0%" style="stop-color: rgb(255,255,255);"/><stop offset="100%" style="stop-color: rgb(85,85,255);"/></linearGradient>
<linearGradient id="2939902123537152gp69" x1="190" y1="0" x2="190" y2="0" gradientUnits="userSpaceOnUse"><stop offset="0%" style="stop-color: rgb(255,255,255);"/><stop offset="100%" style="stop-color: rgb(255,85,85);"/></linearGradient>
<linearGradient id="2939902123537152gp10" x1="82" y1="0" x2="83" y2="0" gradientUnits="userSpaceOnUse"><stop offset="0%" style="stop-color: rgb(85,85,255);"/><stop offset="100%" style="stop-color: rgb(121,121,255);"/></linearGradient>
<linearGradient id="2939902123537152gp31" x1="102" y1="0" x2="102.32" y2="0" gradientUnits="userSpaceOnUse"><stop offset="0%" style="stop-color: rgb(121,121,255);"/><stop offset="100%" style="stop-color: rgb(85,85,255);"/></linearGradient>
<linearGradient id="2939902123537152gp50" x1="82" y1="0" x2="83" y2="0" gradientUnits="userSpaceOnUse"><stop offset="0%" style="stop-color: rgb(255,85,85);"/><stop offset="100%" style="stop-color: rgb(255,121,121);"/></linearGradient>
<linearGradient id="2939902123537152gp72" x1="246.23" y1="0" x2="246" y2="0" gradientUnits="userSpaceOnUse"><stop offset="0%" style="stop-color: rgb(255,85,85);"/><stop offset="100%" style="stop-color: rgb(255,255,255);"/></linearGradient>
<linearGradient id="2939902123537152gp17" x1="87" y1="0" x2="88" y2="0" gradientUnits="userSpaceOnUse"><stop offset="0%" style="stop-color: rgb(255,255,255);"/><stop offset="100%" style="stop-color: rgb(85,85,255);"/></linearGradient>
<linearGradient id="2939902123537152gp27" x1="93" y1="0" x2="92.81" y2="0" gradientUnits="userSpaceOnUse"><stop offset="0%" style="stop-color: rgb(121,121,255);"/><stop offset="100%" style="stop-color: rgb(85,85,255);"/></linearGradient>
<linearGradient id="2939902123537152gp21" x1="90" y1="0" x2="90" y2="0" gradientUnits="userSpaceOnUse"><stop offset="0%" style="stop-color: rgb(255,255,255);"/><stop offset="100%" style="stop-color: rgb(85,85,255);"/></linearGradient>
<linearGradient id="2939902123537152gp6" x1="80" y1="0" x2="81" y2="0" gradientUnits="userSpaceOnUse"><stop offset="0%" style="stop-color: rgb(85,85,255);"/><stop offset="100%" style="stop-color: rgb(121,121,255);"/></linearGradient>
<linearGradient id="2939902123537152gp36" x1="153.93" y1="0" x2="154" y2="0" gradientUnits="userSpaceOnUse"><stop offset="0%" style="stop-color: rgb(85,85,255);"/><stop offset="100%" style="stop-color: rgb(255,255,255);"/></linearGradient>
<linearGradient id="2939902123537152gp4" x1="80.06" y1="0" x2="80" y2="0" gradientUnits="userSpaceOnUse"><stop offset="0%" style="stop-color: rgb(85,85,255);"/><stop offset="100%" style="stop-color: rgb(255,255,255);"/></linearGradient>
<linearGradient id="2939902123537152gp65" x1="181" y1="0" x2="181" y2="0" gradientUnits="userSpaceOnUse"><stop offset="0%" style="stop-color: rgb(255,255,255);"/><stop offset="100%" style="stop-color: rgb(255,85,85);"/></linearGradient>
<linearGradient id="2939902123537152gp5" x1="80" y1="0" x2="80" y2="0" gradientUnits="userSpaceOnUse"><stop offset="0%" style="stop-color: rgb(255,255,255);"/><stop offset="100%" style="stop-color: rgb(85,85,255);"/></linearGradient>
<linearGradient id="2939902123537152gp49" x1="82" y1="0" x2="82" y2="0" gradientUnits="userSpaceOnUse"><stop offset="0%" style="stop-color: rgb(255,255,255);"/><stop offset="100%" style="stop-color: rgb(255,85,85);"/></linearGradient>
<linearGradient id="2939902123537152gp73" x1="246" y1="0" x2="247" y2="0" gradientUnits="userSpaceOnUse"><stop offset="0%" style="stop-color: rgb(255,255,255);"/><stop offset="100%" style="stop-color: rgb(255,85,85);"/></linearGradient>
<linearGradient id="2939902123537152gp61" x1="93" y1="0" x2="93" y2="0" gradientUnits="userSpaceOnUse"><stop offset="0%" style="stop-color: rgb(255,255,255);"/><stop offset="100%" style="stop-color: rgb(255,85,85);"/></linearGradient>
<linearGradient id="2939902123537152gp60" x1="92.79" y1="0" x2="93" y2="0" gradientUnits="userSpaceOnUse"><stop offset="0%" style="stop-color: rgb(255,85,85);"/><stop offset="100%" style="stop-color: rgb(255,255,255);"/></linearGradient>
<linearGradient id="2939902123537152gp44" x1="79.69" y1="0" x2="80" y2="0" gradientUnits="userSpaceOnUse"><stop offset="0%" style="stop-color: rgb(255,85,85);"/><stop offset="100%" style="stop-color: rgb(255,255,255);"/></linearGradient>
<linearGradient id="2939902123537152gp52" x1="83.43" y1="0" x2="84" y2="0" gradientUnits="userSpaceOnUse"><stop offset="0%" style="stop-color: rgb(255,85,85);"/><stop offset="100%" style="stop-color: rgb(255,255,255);"/></linearGradient>
<linearGradient id="2939902123537152gp79" x1="334" y1="0" x2="334.18" y2="0" gradientUnits="userSpaceOnUse"><stop offset="0%" style="stop-color: rgb(255,121,121);"/><stop offset="100%" style="stop-color: rgb(255,85,85);"/></linearGradient>
<linearGradient id="2939902123537152gp12" x1="84.53" y1="0" x2="85" y2="0" gradientUnits="userSpaceOnUse"><stop offset="0%" style="stop-color: rgb(85,85,255);"/><stop offset="100%" style="stop-color: rgb(255,255,255);"/></linearGradient>
<linearGradient id="2939902123537152gp70" x1="190" y1="0" x2="192" y2="0" gradientUnits="userSpaceOnUse"><stop offset="0%" style="stop-color: rgb(255,85,85);"/><stop offset="100%" style="stop-color: rgb(255,121,121);"/></linearGradient>
<linearGradient id="2939902123537152gp74" x1="247" y1="0" x2="248" y2="0" gradientUnits="userSpaceOnUse"><stop offset="0%" style="stop-color: rgb(255,85,85);"/><stop offset="100%" style="stop-color: rgb(255,121,121);"/></linearGradient>
<linearGradient id="2939902123537152gp18" x1="88" y1="0" x2="88" y2="0" gradientUnits="userSpaceOnUse"><stop offset="0%" style="stop-color: rgb(85,85,255);"/><stop offset="100%" style="stop-color: rgb(121,121,255);"/></linearGradient>
<linearGradient id="2939902123537152gp47" x1="81" y1="0" x2="81.56" y2="0" gradientUnits="userSpaceOnUse"><stop offset="0%" style="stop-color: rgb(255,121,121);"/><stop offset="100%" style="stop-color: rgb(255,85,85);"/></linearGradient>
<linearGradient id="2939902123537152gp9" x1="82" y1="0" x2="82" y2="0" gradientUnits="userSpaceOnUse"><stop offset="0%" style="stop-color: rgb(255,255,255);"/><stop offset="100%" style="stop-color: rgb(85,85,255);"/></linearGradient>
<linearGradient id="2939902123537152gp54" x1="84" y1="0" x2="85" y2="0" gradientUnits="userSpaceOnUse"><stop offset="0%" style="stop-color: rgb(255,85,85);"/><stop offset="100%" style="stop-color: rgb(255,121,121);"/></linearGradient>
<linearGradient id="2939902123537152gp29" x1="101" y1="0" x2="102" y2="0" gradientUnits="userSpaceOnUse"><stop offset="0%" style="stop-color: rgb(255,255,255);"/><stop offset="100%" style="stop-color: rgb(85,85,255);"/></linearGradient>
<linearGradient id="2939902123537152gp51" x1="83" y1="0" x2="83.43" y2="0" gradientUnits="userSpaceOnUse"><stop offset="0%" style="stop-color: rgb(255,121,121);"/><stop offset="100%" style="stop-color: rgb(255,85,85);"/></linearGradient>
<linearGradient id="2939902123537152gp48" x1="81.56" y1="0" x2="82" y2="0" gradientUnits="userSpaceOnUse"><stop offset="0%" style="stop-color: rgb(255,85,85);"/><stop offset="100%" style="stop-color: rgb(255,255,255);"/></linearGradient>
<linearGradient id="2939902123537152gp24" x1="91.81" y1="0" x2="92" y2="0" gradientUnits="userSpaceOnUse"><stop offset="0%" style="stop-color: rgb(85,85,255);"/><stop offset="100%" style="stop-color: rgb(255,255,255);"/></linearGradient>
<linearGradient id="2939902123537152gp66" x1="181" y1="0" x2="182" y2="0" gradientUnits="userSpaceOnUse"><stop offset="0%" style="stop-color: rgb(255,85,85);"/><stop offset="100%" style="stop-color: rgb(255,121,121);"/></linearGradient>
<linearGradient id="2939902123537152gp22" x1="90" y1="0" x2="90" y2="0" gradientUnits="userSpaceOnUse"><stop offset="0%" style="stop-color: rgb(85,85,255);"/><stop offset="100%" style="stop-color: rgb(121,121,255);"/></linearGradient>
<linearGradient id="2939902123537152gp55" x1="85" y1="0" x2="85.3" y2="0" gradientUnits="userSpaceOnUse"><stop offset="0%" style="stop-color: rgb(255,121,121);"/><stop offset="100%" style="stop-color: rgb(255,85,85);"/></linearGradient>
<linearGradient id="2939902123537152gp67" x1="182" y1="0" x2="182.61" y2="0" gradientUnits="userSpaceOnUse"><stop offset="0%" style="stop-color: rgb(255,121,121);"/><stop offset="100%" style="stop-color: rgb(255,85,85);"/></linearGradient>
<linearGradient id="2939902123537152gp32" x1="149.45" y1="0" x2="150" y2="0" gradientUnits="userSpaceOnUse"><stop offset="0%" style="stop-color: rgb(85,85,255);"/><stop offset="100%" style="stop-color: rgb(255,255,255);"/></linearGradient>
<linearGradient id="2939902123537152gp28" x1="101.32" y1="0" x2="101" y2="0" gradientUnits="userSpaceOnUse"><stop offset="0%" style="stop-color: rgb(85,85,255);"/><stop offset="100%" style="stop-color: rgb(255,255,255);"/></linearGradient>
<linearGradient id="2939902123537152gp13" x1="85" y1="0" x2="85" y2="0" gradientUnits="userSpaceOnUse"><stop offset="0%" style="stop-color: rgb(255,255,255);"/><stop offset="100%" style="stop-color: rgb(85,85,255);"/></linearGradient>
<linearGradient id="2939902123537152gp59" x1="91" y1="0" x2="90.92" y2="0" gradientUnits="userSpaceOnUse"><stop offset="0%" style="stop-color: rgb(255,121,121);"/><stop offset="100%" style="stop-color: rgb(255,85,85);"/></linearGradient>
<linearGradient id="2939902123537152gp7" x1="81" y1="0" x2="81.06" y2="0" gradientUnits="userSpaceOnUse"><stop offset="0%" style="stop-color: rgb(121,121,255);"/><stop offset="100%" style="stop-color: rgb(85,85,255);"/></linearGradient>
<linearGradient id="2939902123537152gp35" x1="150" y1="0" x2="150.45" y2="0" gradientUnits="userSpaceOnUse"><stop offset="0%" style="stop-color: rgb(121,121,255);"/><stop offset="100%" style="stop-color: rgb(85,85,255);"/></linearGradient>
<linearGradient id="2939902123537152gp33" x1="150" y1="0" x2="150" y2="0" gradientUnits="userSpaceOnUse"><stop offset="0%" style="stop-color: rgb(255,255,255);"/><stop offset="100%" style="stop-color: rgb(85,85,255);"/></linearGradient>
<linearGradient id="2939902123537152gp45" x1="80" y1="0" x2="80" y2="0" gradientUnits="userSpaceOnUse"><stop offset="0%" style="stop-color: rgb(255,255,255);"/><stop offset="100%" style="stop-color: rgb(255,85,85);"/></linearGradient>
<linearGradient id="2939902123537152gp43" x1="79" y1="0" x2="79.69" y2="0" gradientUnits="userSpaceOnUse"><stop offset="0%" style="stop-color: rgb(255,121,121);"/><stop offset="100%" style="stop-color: rgb(255,85,85);"/></linearGradient>
<linearGradient id="2939902123537152gp23" x1="90" y1="0" x2="90.57" y2="0" gradientUnits="userSpaceOnUse"><stop offset="0%" style="stop-color: rgb(121,121,255);"/><stop offset="100%" style="stop-color: rgb(85,85,255);"/></linearGradient>
<linearGradient id="2939902123537152gp38" x1="154" y1="0" x2="155" y2="0" gradientUnits="userSpaceOnUse"><stop offset="0%" style="stop-color: rgb(85,85,255);"/><stop offset="100%" style="stop-color: rgb(121,121,255);"/></linearGradient>
<linearGradient id="2939902123537152gp0" x1="77.82" y1="0" x2="78" y2="0" gradientUnits="userSpaceOnUse"><stop offset="0%" style="stop-color: rgb(85,85,255);"/><stop offset="100%" style="stop-color: rgb(255,255,255);"/></linearGradient>
<linearGradient id="2939902123537152gp40" x1="77.82" y1="0" x2="78" y2="0" gradientUnits="userSpaceOnUse"><stop offset="0%" style="stop-color: rgb(255,85,85);"/><stop offset="100%" style="stop-color: rgb(255,255,255);"/></linearGradient>
<linearGradient id="2939902123537152gp39" x1="155" y1="0" x2="154.93" y2="0" gradientUnits="userSpaceOnUse"><stop offset="0%" style="stop-color: rgb(121,121,255);"/><stop offset="100%" style="stop-color: rgb(85,85,255);"/></linearGradient>
<linearGradient id="2939902123537152gp1" x1="78" y1="0" x2="78" y2="0" gradientUnits="userSpaceOnUse"><stop offset="0%" style="stop-color: rgb(255,255,255);"/><stop offset="100%" style="stop-color: rgb(85,85,255);"/></linearGradient>
<linearGradient id="2939902123537152gp8" x1="82.3" y1="0" x2="82" y2="0" gradientUnits="userSpaceOnUse"><stop offset="0%" style="stop-color: rgb(85,85,255);"/><stop offset="100%" style="stop-color: rgb(255,255,255);"/></linearGradient>
<linearGradient id="2939902123537152gp46" x1="80" y1="0" x2="81" y2="0" gradientUnits="userSpaceOnUse"><stop offset="0%" style="stop-color: rgb(255,85,85);"/><stop offset="100%" style="stop-color: rgb(255,121,121);"/></linearGradient>
<linearGradient id="2939902123537152gp75" x1="248" y1="0" x2="248.1" y2="0" gradientUnits="userSpaceOnUse"><stop offset="0%" style="stop-color: rgb(255,121,121);"/><stop offset="100%" style="stop-color: rgb(255,85,85);"/></linearGradient>
<linearGradient id="2939902123537152gp15" x1="85" y1="0" x2="85.53" y2="0" gradientUnits="userSpaceOnUse"><stop offset="0%" style="stop-color: rgb(121,121,255);"/><stop offset="100%" style="stop-color: rgb(85,85,255);"/></linearGradient>
<linearGradient id="2939902123537152gp63" x1="94" y1="0" x2="94.66" y2="0" gradientUnits="userSpaceOnUse"><stop offset="0%" style="stop-color: rgb(255,121,121);"/><stop offset="100%" style="stop-color: rgb(255,85,85);"/></linearGradient>
<linearGradient id="2939902123537152gp16" x1="87.33" y1="0" x2="87" y2="0" gradientUnits="userSpaceOnUse"><stop offset="0%" style="stop-color: rgb(85,85,255);"/><stop offset="100%" style="stop-color: rgb(255,255,255);"/></linearGradient>
<linearGradient id="2939902123537152gp37" x1="154" y1="0" x2="154" y2="0" gradientUnits="userSpaceOnUse"><stop offset="0%" style="stop-color: rgb(255,255,255);"/><stop offset="100%" style="stop-color: rgb(85,85,255);"/></linearGradient>
<linearGradient id="2939902123537152gp41" x1="78" y1="0" x2="78" y2="0" gradientUnits="userSpaceOnUse"><stop offset="0%" style="stop-color: rgb(255,255,255);"/><stop offset="100%" style="stop-color: rgb(255,85,85);"/></linearGradient>
<linearGradient id="2939902123537152gp3" x1="79" y1="0" x2="78.82" y2="0" gradientUnits="userSpaceOnUse"><stop offset="0%" style="stop-color: rgb(121,121,255);"/><stop offset="100%" style="stop-color: rgb(85,85,255);"/></linearGradient>
<linearGradient id="2939902123537152gp56" x1="89.05" y1="0" x2="89" y2="0" gradientUnits="userSpaceOnUse"><stop offset="0%" style="stop-color: rgb(255,85,85);"/><stop offset="100%" style="stop-color: rgb(255,255,255);"/></linearGradient>
<linearGradient id="2939902123537152gp57" x1="89" y1="0" x2="89" y2="0" gradientUnits="userSpaceOnUse"><stop offset="0%" style="stop-color: rgb(255,255,255);"/><stop offset="100%" style="stop-color: rgb(255,85,85);"/></linearGradient>
<linearGradient id="2939902123537152gp30" x1="102" y1="0" x2="102" y2="0" gradientUnits="userSpaceOnUse"><stop offset="0%" style="stop-color: rgb(85,85,255);"/><stop offset="100%" style="stop-color: rgb(121,121,255);"/></linearGradient>
<linearGradient id="2939902123537152gp20" x1="89.57" y1="0" x2="90" y2="0" gradientUnits="userSpaceOnUse"><stop offset="0%" style="stop-color: rgb(85,85,255);"/><stop offset="100%" style="stop-color: rgb(255,255,255);"/></linearGradient>
<linearGradient id="2939902123537152gp78" x1="333" y1="0" x2="334" y2="0" gradientUnits="userSpaceOnUse"><stop offset="0%" style="stop-color: rgb(255,85,85);"/><stop offset="100%" style="stop-color: rgb(255,121,121);"/></linearGradient>
<linearGradient id="2939902123537152gp2" x1="78" y1="0" x2="79" y2="0" gradientUnits="userSpaceOnUse"><stop offset="0%" style="stop-color: rgb(85,85,255);"/><stop offset="100%" style="stop-color: rgb(121,121,255);"/></linearGradient>
<linearGradient id="2939902123537152gp19" x1="88" y1="0" x2="88.33" y2="0" gradientUnits="userSpaceOnUse"><stop offset="0%" style="stop-color: rgb(121,121,255);"/><stop offset="100%" style="stop-color: rgb(85,85,255);"/></linearGradient>
<linearGradient id="2939902123537152gp42" x1="78" y1="0" x2="79" y2="0" gradientUnits="userSpaceOnUse"><stop offset="0%" style="stop-color: rgb(255,85,85);"/><stop offset="100%" style="stop-color: rgb(255,121,121);"/></linearGradient>
<linearGradient id="2939902123537152gp76" x1="332.31" y1="0" x2="332" y2="0" gradientUnits="userSpaceOnUse"><stop offset="0%" style="stop-color: rgb(255,85,85);"/><stop offset="100%" style="stop-color: rgb(255,255,255);"/></linearGradient>
<clipPath id="2939902123537152clip-0"><path d="M 0 0 L 421 0 L 421 476 L 0 476 L 0 0 M 0 0"/></clipPath>
<clipPath id="2939902123537152clip-1"><path d="M 237.5 197.5 L 237.5 618.5 L -238.5 618.5 L -238.5 197.5 L 237.5 197.5 M 237.5 197.5"/></clipPath>
<clipPath id="2939902123537152clip-2"><path d="M 65 10 L 65 425 L 347 425 L 347 10 M 65 10"/></clipPath>
</defs>
<rect x="0" y="0" width="421" height="476" style="fill: rgb(255,255,255); fill-opacity: 1.0" transform="matrix(1,0,0,1,0,0)" clip-path="url(#2939902123537152clip-0)"/><rect x="360" y="219" width="60" height="40" style="fill: rgb(255,255,255); fill-opacity: 1.0" transform="matrix(1,0,0,1,0,0)" clip-path="url(#2939902123537152clip-0)"/><g style="fill: rgb(255,85,85); fill-opacity: 1.0; stroke: none" transform="matrix(1,0,0,1,0,0)" clip-path="url(#2939902123537152clip-0)"><path d="M 363 224.5 L 369 224.5 L 369 234.5 L 363 234.5 L 363 224.5 M 363 224.5"/></g><g transform="matrix(1,0,0,1,0,0)"><text x="373" y="230.75" style="fill: rgb(64,64,64); fill-opacity: 1.0; font-family: sans-serif; font-size: 12px; " clip-path="url(#2939902123537152clip-0)">+ strand</text></g><g style="fill: rgb(85,85,255); fill-opacity: 1.0; stroke: none" transform="matrix(1,0,0,1,0,0)" clip-path="url(#2939902123537152clip-0)"><path d="M 363 243.5 L 369 243.5 L 369 253.5 L 363 253.5 L 363 243.5 M 363 243.5"/></g><g transform="matrix(1,0,0,1,0,0)"><text x="373" y="249.75" style="fill: rgb(64,64,64); fill-opacity: 1.0; font-family: sans-serif; font-size: 12px; " clip-path="url(#2939902123537152clip-0)">- strand</text></g><rect x="65" y="10" width="282" height="415" style="fill: rgb(255,255,255); fill-opacity: 1.0" transform="matrix(1,0,0,1,0,0)" clip-path="url(#2939902123537152clip-0)"/><line x1="65" y1="429" x2="347" y2="429" style="stroke-width: 0.5;stroke: rgb(128,128,128);stroke-opacity: 1.0;shape-rendering:crispEdges;" transform="matrix(1,0,0,1,0,0)" clip-path="url(#2939902123537152clip-0)"/><g transform="matrix(1,0,0,1,0,0)"><text x="94.78" y="442.35" style="fill: rgb(64,64,64); fill-opacity: 1.0; font-family: sans-serif; font-size: 12px; " clip-path="url(#2939902123537152clip-0)">40</text></g><line x1="101.78" y1="431" x2="101.78" y2="429" style="stroke-width: 0.5;stroke: rgb(128,128,128);stroke-opacity: 1.0;shape-rendering:crispEdges;" transform="matrix(1,0,0,1,0,0)" clip-path="url(#2939902123537152clip-0)"/><g transform="matrix(1,0,0,1,0,0)"><text x="142.7" y="442.35" style="fill: rgb(64,64,64); fill-opacity: 1.0; font-family: sans-serif; font-size: 12px; " clip-path="url(#2939902123537152clip-0)">60</text></g><line x1="149.7" y1="431" x2="149.7" y2="429" style="stroke-width: 0.5;stroke: rgb(128,128,128);stroke-opacity: 1.0;shape-rendering:crispEdges;" transform="matrix(1,0,0,1,0,0)" clip-path="url(#2939902123537152clip-0)"/><g transform="matrix(1,0,0,1,0,0)"><text x="190.61" y="442.35" style="fill: rgb(64,64,64); fill-opacity: 1.0; font-family: sans-serif; font-size: 12px; " clip-path="url(#2939902123537152clip-0)">80</text></g><line x1="197.61" y1="431" x2="197.61" y2="429" style="stroke-width: 0.5;stroke: rgb(128,128,128);stroke-opacity: 1.0;shape-rendering:crispEdges;" transform="matrix(1,0,0,1,0,0)" clip-path="url(#2939902123537152clip-0)"/><g transform="matrix(1,0,0,1,0,0)"><text x="235.03" y="442.35" style="fill: rgb(64,64,64); fill-opacity: 1.0; font-family: sans-serif; font-size: 12px; " clip-path="url(#2939902123537152clip-0)">100</text></g><line x1="245.53" y1="431" x2="245.53" y2="429" style="stroke-width: 0.5;stroke: rgb(128,128,128);stroke-opacity: 1.0;shape-rendering:crispEdges;" transform="matrix(1,0,0,1,0,0)" clip-path="url(#2939902123537152clip-0)"/><g transform="matrix(1,0,0,1,0,0)"><text x="282.95" y="442.35" style="fill: rgb(64,64,64); fill-opacity: 1.0; font-family: sans-serif; font-size: 12px; " clip-path="url(#2939902123537152clip-0)">120</text></g><line x1="293.45" y1="431" x2="293.45" y2="429" style="stroke-width: 0.5;stroke: rgb(128,128,128);stroke-opacity: 1.0;shape-rendering:crispEdges;" transform="matrix(1,0,0,1,0,0)" clip-path="url(#2939902123537152clip-0)"/><g transform="matrix(1,0,0,1,0,0)"><text x="330.87" y="442.35" style="fill: rgb(64,64,64); fill-opacity: 1.0; font-family: sans-serif; font-size: 12px; " clip-path="url(#2939902123537152clip-0)">140</text></g><line x1="341.37" y1="431" x2="341.37" y2="429" style="stroke-width: 0.5;stroke: rgb(128,128,128);stroke-opacity: 1.0;shape-rendering:crispEdges;" transform="matrix(1,0,0,1,0,0)" clip-path="url(#2939902123537152clip-0)"/><g transform="matrix(1,0,0,1,0,0)"><text x="164.5" y="461.81" style="fill: rgb(64,64,64); fill-opacity: 1.0; font-family: sans-serif; font-size: 14px; font-weight: bold; " clip-path="url(#2939902123537152clip-0)">Read length</text></g><line x1="61" y1="10" x2="61" y2="425" style="stroke-width: 0.5;stroke: rgb(128,128,128);stroke-opacity: 1.0;shape-rendering:crispEdges;" transform="matrix(1,0,0,1,0,0)" clip-path="url(#2939902123537152clip-0)"/><g transform="matrix(1,0,0,1,0,0)"><text x="48" y="426.85" style="fill: rgb(64,64,64); fill-opacity: 1.0; font-family: sans-serif; font-size: 12px; " clip-path="url(#2939902123537152clip-0)">0</text></g><line x1="59" y1="425" x2="61" y2="425" style="stroke-width: 0.5;stroke: rgb(128,128,128);stroke-opacity: 1.0;shape-rendering:crispEdges;" transform="matrix(1,0,0,1,0,0)" clip-path="url(#2939902123537152clip-0)"/><g transform="matrix(1,0,0,1,0,0)"><text x="41" y="398" style="fill: rgb(64,64,64); fill-opacity: 1.0; font-family: sans-serif; font-size: 12px; " clip-path="url(#2939902123537152clip-0)">20</text></g><line x1="59" y1="396.15" x2="61" y2="396.15" style="stroke-width: 0.5;stroke: rgb(128,128,128);stroke-opacity: 1.0;shape-rendering:crispEdges;" transform="matrix(1,0,0,1,0,0)" clip-path="url(#2939902123537152clip-0)"/><g transform="matrix(1,0,0,1,0,0)"><text x="41" y="369.15" style="fill: rgb(64,64,64); fill-opacity: 1.0; font-family: sans-serif; font-size: 12px; " clip-path="url(#2939902123537152clip-0)">40</text></g><line x1="59" y1="367.3" x2="61" y2="367.3" style="stroke-width: 0.5;stroke: rgb(128,128,128);stroke-opacity: 1.0;shape-rendering:crispEdges;" transform="matrix(1,0,0,1,0,0)" clip-path="url(#2939902123537152clip-0)"/><g transform="matrix(1,0,0,1,0,0)"><text x="41" y="340.3" style="fill: rgb(64,64,64); fill-opacity: 1.0; font-family: sans-serif; font-size: 12px; " clip-path="url(#2939902123537152clip-0)">60</text></g><line x1="59" y1="338.45" x2="61" y2="338.45" style="stroke-width: 0.5;stroke: rgb(128,128,128);stroke-opacity: 1.0;shape-rendering:crispEdges;" transform="matrix(1,0,0,1,0,0)" clip-path="url(#2939902123537152clip-0)"/><g transform="matrix(1,0,0,1,0,0)"><text x="41" y="311.45" style="fill: rgb(64,64,64); fill-opacity: 1.0; font-family: sans-serif; font-size: 12px; " clip-path="url(#2939902123537152clip-0)">80</text></g><line x1="59" y1="309.6" x2="61" y2="309.6" style="stroke-width: 0.5;stroke: rgb(128,128,128);stroke-opacity: 1.0;shape-rendering:crispEdges;" transform="matrix(1,0,0,1,0,0)" clip-path="url(#2939902123537152clip-0)"/><g transform="matrix(1,0,0,1,0,0)"><text x="34" y="282.6" style="fill: rgb(64,64,64); fill-opacity: 1.0; font-family: sans-serif; font-size: 12px; " clip-path="url(#2939902123537152clip-0)">100</text></g><line x1="59" y1="280.75" x2="61" y2="280.75" style="stroke-width: 0.5;stroke: rgb(128,128,128);stroke-opacity: 1.0;shape-rendering:crispEdges;" transform="matrix(1,0,0,1,0,0)" clip-path="url(#2939902123537152clip-0)"/><g transform="matrix(1,0,0,1,0,0)"><text x="34" y="253.75" style="fill: rgb(64,64,64); fill-opacity: 1.0; font-family: sans-serif; font-size: 12px; " clip-path="url(#2939902123537152clip-0)">120</text></g><line x1="59" y1="251.9" x2="61" y2="251.9" style="stroke-width: 0.5;stroke: rgb(128,128,128);stroke-opacity: 1.0;shape-rendering:crispEdges;" transform="matrix(1,0,0,1,0,0)" clip-path="url(#2939902123537152clip-0)"/><g transform="matrix(1,0,0,1,0,0)"><text x="34" y="224.9" style="fill: rgb(64,64,64); fill-opacity: 1.0; font-family: sans-serif; font-size: 12px; " clip-path="url(#2939902123537152clip-0)">140</text></g><line x1="59" y1="223.05" x2="61" y2="223.05" style="stroke-width: 0.5;stroke: rgb(128,128,128);stroke-opacity: 1.0;shape-rendering:crispEdges;" transform="matrix(1,0,0,1,0,0)" clip-path="url(#2939902123537152clip-0)"/><g transform="matrix(1,0,0,1,0,0)"><text x="34" y="196.05" style="fill: rgb(64,64,64); fill-opacity: 1.0; font-family: sans-serif; font-size: 12px; " clip-path="url(#2939902123537152clip-0)">160</text></g><line x1="59" y1="194.2" x2="61" y2="194.2" style="stroke-width: 0.5;stroke: rgb(128,128,128);stroke-opacity: 1.0;shape-rendering:crispEdges;" transform="matrix(1,0,0,1,0,0)" clip-path="url(#2939902123537152clip-0)"/><g transform="matrix(1,0,0,1,0,0)"><text x="34" y="167.2" style="fill: rgb(64,64,64); fill-opacity: 1.0; font-family: sans-serif; font-size: 12px; " clip-path="url(#2939902123537152clip-0)">180</text></g><line x1="59" y1="165.35" x2="61" y2="165.35" style="stroke-width: 0.5;stroke: rgb(128,128,128);stroke-opacity: 1.0;shape-rendering:crispEdges;" transform="matrix(1,0,0,1,0,0)" clip-path="url(#2939902123537152clip-0)"/><g transform="matrix(1,0,0,1,0,0)"><text x="34" y="138.35" style="fill: rgb(64,64,64); fill-opacity: 1.0; font-family: sans-serif; font-size: 12px; " clip-path="url(#2939902123537152clip-0)">200</text></g><line x1="59" y1="136.51" x2="61" y2="136.51" style="stroke-width: 0.5;stroke: rgb(128,128,128);stroke-opacity: 1.0;shape-rendering:crispEdges;" transform="matrix(1,0,0,1,0,0)" clip-path="url(#2939902123537152clip-0)"/><g transform="matrix(1,0,0,1,0,0)"><text x="34" y="109.5" style="fill: rgb(64,64,64); fill-opacity: 1.0; font-family: sans-serif; font-size: 12px; " clip-path="url(#2939902123537152clip-0)">220</text></g><line x1="59" y1="107.66" x2="61" y2="107.66" style="stroke-width: 0.5;stroke: rgb(128,128,128);stroke-opacity: 1.0;shape-rendering:crispEdges;" transform="matrix(1,0,0,1,0,0)" clip-path="url(#2939902123537152clip-0)"/><g transform="matrix(1,0,0,1,0,0)"><text x="34" y="80.65" style="fill: rgb(64,64,64); fill-opacity: 1.0; font-family: sans-serif; font-size: 12px; " clip-path="url(#2939902123537152clip-0)">240</text></g><line x1="59" y1="78.81" x2="61" y2="78.81" style="stroke-width: 0.5;stroke: rgb(128,128,128);stroke-opacity: 1.0;shape-rendering:crispEdges;" transform="matrix(1,0,0,1,0,0)" clip-path="url(#2939902123537152clip-0)"/><g transform="matrix(1,0,0,1,0,0)"><text x="34" y="51.8" style="fill: rgb(64,64,64); fill-opacity: 1.0; font-family: sans-serif; font-size: 12px; " clip-path="url(#2939902123537152clip-0)">260</text></g><line x1="59" y1="49.96" x2="61" y2="49.96" style="stroke-width: 0.5;stroke: rgb(128,128,128);stroke-opacity: 1.0;shape-rendering:crispEdges;" transform="matrix(1,0,0,1,0,0)" clip-path="url(#2939902123537152clip-0)"/><g transform="matrix(1,0,0,1,0,0)"><text x="34" y="22.96" style="fill: rgb(64,64,64); fill-opacity: 1.0; font-family: sans-serif; font-size: 12px; " clip-path="url(#2939902123537152clip-0)">280</text></g><line x1="59" y1="21.11" x2="61" y2="21.11" style="stroke-width: 0.5;stroke: rgb(128,128,128);stroke-opacity: 1.0;shape-rendering:crispEdges;" transform="matrix(1,0,0,1,0,0)" clip-path="url(#2939902123537152clip-0)"/><g style="fill: rgb(64,64,64); fill-opacity: 1.0; stroke: none" transform="matrix(0,-1,1,0,-197.5,237.5)" clip-path="url(#2939902123537152clip-1)"><path d="M -18.05 209.53 C -19.47 209.53 -20.64 210.02 -21.52 210.95 C -22.42 211.92 -22.94 213.36 -22.94 214.87 C -22.94 216.41 -22.42 217.84 -21.52 218.81 C -20.62 219.77 -19.48 220.23 -18.03 220.23 C -16.56 220.23 -15.42 219.77 -14.55 218.81 C -13.66 217.87 -13.11 216.39 -13.11 214.95 C -13.11 213.36 -13.62 211.91 -14.55 210.95 C -15.44 209.98 -16.56 209.53 -18.05 209.53 M -18.05 209.53 M -18.03 211.33 C -16.3 211.33 -15.22 212.72 -15.22 214.94 C -15.22 217.03 -16.34 218.44 -18.03 218.44 C -19.73 218.44 -20.84 217.03 -20.84 214.87 C -20.84 212.72 -19.73 211.33 -18.03 211.33 M -18.03 211.33 M -5.3 215.17 C -5.44 213.33 -6.65 212.22 -8.56 212.22 C -10.83 212.22 -12.14 213.7 -12.14 216.28 C -12.14 218.77 -10.83 220.23 -8.59 220.23 C -6.75 220.23 -5.48 219.09 -5.3 217.28 L -7.17 217.28 C -7.42 218.27 -7.81 218.64 -8.59 218.64 C -9.58 218.64 -10.17 217.77 -10.17 216.28 C -10.17 215.55 -10.03 214.89 -9.8 214.45 C -9.58 214.03 -9.14 213.8 -8.58 213.8 C -7.78 213.8 -7.4 214.19 -7.17 215.17 L -5.3 215.17 M -5.3 215.17 M 2.49 215.17 C 2.35 213.33 1.13 212.22 -0.78 212.22 C -3.04 212.22 -4.36 213.7 -4.36 216.28 C -4.36 218.77 -3.04 220.23 -0.81 220.23 C 1.04 220.23 2.3 219.09 2.49 217.28 L 0.61 217.28 C 0.36 218.27 -0.03 218.64 -0.81 218.64 C -1.79 218.64 -2.39 217.77 -2.39 216.28 C -2.39 215.55 -2.25 214.89 -2.01 214.45 C -1.79 214.03 -1.36 213.8 -0.79 213.8 C 0 213.8 0.38 214.19 0.61 215.17 L 2.49 215.17 M 2.49 215.17 M 10.54 219.91 L 10.54 212.34 L 8.57 212.34 L 8.57 217.08 C 8.57 217.97 7.96 218.56 6.99 218.56 C 6.15 218.56 5.73 218.11 5.73 217.2 L 5.73 212.34 L 3.77 212.34 L 3.77 217.61 C 3.77 219.3 4.68 220.23 6.3 220.23 C 7.33 220.23 8.01 219.86 8.57 219.02 L 8.57 219.91 L 10.54 219.91 M 10.54 219.91 M 12.39 212.34 L 12.39 219.91 L 14.36 219.91 L 14.36 215.89 C 14.36 214.73 14.94 214.17 16.08 214.17 C 16.3 214.17 16.42 214.19 16.7 214.22 L 16.7 212.23 C 16.58 212.22 16.55 212.22 16.45 212.22 C 15.56 212.22 14.8 212.81 14.36 213.83 L 14.36 212.34 L 12.39 212.34 M 12.39 212.34 M 17.83 212.34 L 17.83 219.91 L 19.8 219.91 L 19.8 215.89 C 19.8 214.73 20.38 214.17 21.52 214.17 C 21.74 214.17 21.87 214.19 22.15 214.22 L 22.15 212.23 C 22.02 212.22 21.99 212.22 21.9 212.22 C 21.01 212.22 20.24 212.81 19.8 213.83 L 19.8 212.34 L 17.83 212.34 M 17.83 212.34 M 29.75 216.75 C 29.75 216.58 29.75 216.5 29.75 216.41 C 29.75 215.66 29.64 214.95 29.47 214.42 C 28.95 213.05 27.73 212.22 26.22 212.22 C 24.05 212.22 22.72 213.78 22.72 216.33 C 22.72 218.75 24.03 220.23 26.17 220.23 C 27.86 220.23 29.23 219.28 29.67 217.78 L 27.73 217.78 C 27.5 218.37 26.95 218.73 26.25 218.73 C 25.69 218.73 25.23 218.5 24.95 218.08 C 24.77 217.8 24.7 217.45 24.67 216.75 L 29.75 216.75 M 29.75 216.75 M 24.7 215.44 C 24.83 214.28 25.31 213.72 26.19 213.72 C 27.08 213.72 27.61 214.31 27.72 215.44 L 24.7 215.44 M 24.7 215.44 M 31.06 212.34 L 31.06 219.91 L 33.03 219.91 L 33.03 215.37 C 33.03 214.47 33.64 213.89 34.61 213.89 C 35.46 213.89 35.88 214.34 35.88 215.25 L 35.88 219.91 L 37.83 219.91 L 37.83 214.84 C 37.83 213.16 36.92 212.22 35.3 212.22 C 34.28 212.22 33.6 212.58 33.03 213.44 L 33.03 212.34 L 31.06 212.34 M 31.06 212.34 M 46.06 215.17 C 45.92 213.33 44.7 212.22 42.79 212.22 C 40.53 212.22 39.21 213.7 39.21 216.28 C 39.21 218.77 40.53 220.23 42.76 220.23 C 44.6 220.23 45.87 219.09 46.06 217.28 L 44.18 217.28 C 43.93 218.27 43.54 218.64 42.76 218.64 C 41.78 218.64 41.18 217.77 41.18 216.28 C 41.18 215.55 41.32 214.89 41.56 214.45 C 41.78 214.03 42.21 213.8 42.78 213.8 C 43.57 213.8 43.95 214.19 44.18 215.17 L 46.06 215.17 M 46.06 215.17 M 53.87 216.75 C 53.87 216.58 53.87 216.5 53.87 216.41 C 53.87 215.66 53.76 214.95 53.59 214.42 C 53.07 213.05 51.86 212.22 50.34 212.22 C 48.17 212.22 46.84 213.78 46.84 216.33 C 46.84 218.75 48.15 220.23 50.29 220.23 C 51.98 220.23 53.36 219.28 53.79 217.78 L 51.86 217.78 C 51.62 218.37 51.07 218.73 50.37 218.73 C 49.81 218.73 49.36 218.5 49.07 218.08 C 48.89 217.8 48.82 217.45 48.79 216.75 L 53.87 216.75 M 53.87 216.75 M 48.82 215.44 C 48.95 214.28 49.43 213.72 50.31 213.72 C 51.2 213.72 51.73 214.31 51.84 215.44 L 48.82 215.44 M 48.82 215.44 M 61.37 214.78 C 61.36 213.19 60.12 212.22 58.09 212.22 C 56.17 212.22 54.98 213.19 54.98 214.73 C 54.98 215.25 55.14 215.67 55.41 215.97 C 55.67 216.23 55.91 216.36 56.64 216.61 L 58.97 217.33 C 59.47 217.48 59.62 217.64 59.62 217.95 C 59.62 218.41 59.09 218.69 58.17 218.69 C 57.66 218.69 57.26 218.61 57.01 218.42 C 56.8 218.27 56.72 218.11 56.64 217.7 L 54.72 217.7 C 54.78 219.37 56 220.23 58.28 220.23 C 59.34 220.23 60.14 220 60.7 219.56 C 61.25 219.11 61.59 218.41 61.59 217.67 C 61.59 216.69 61.11 216.06 60.11 215.77 L 57.62 215.05 C 57.08 214.87 56.94 214.77 56.94 214.45 C 56.94 214.05 57.39 213.77 58.08 213.77 C 59.01 213.77 59.48 214.09 59.5 214.78 L 61.37 214.78 M 61.37 214.78"/></g><line x1="101.78" y1="10" x2="101.78" y2="425" style="stroke-width: 0.5;stroke: rgb(150,150,150);stroke-opacity: 0.7;stroke-dasharray: 2.0, 2.0;shape-rendering:crispEdges;" transform="matrix(1,0,0,1,0,0)" clip-path="url(#2939902123537152clip-2)"/><line x1="149.7" y1="10" x2="149.7" y2="425" style="stroke-width: 0.5;stroke: rgb(150,150,150);stroke-opacity: 0.7;stroke-dasharray: 2.0, 2.0;shape-rendering:crispEdges;" transform="matrix(1,0,0,1,0,0)" clip-path="url(#2939902123537152clip-2)"/><line x1="197.61" y1="10" x2="197.61" y2="425" style="stroke-width: 0.5;stroke: rgb(150,150,150);stroke-opacity: 0.7;stroke-dasharray: 2.0, 2.0;shape-rendering:crispEdges;" transform="matrix(1,0,0,1,0,0)" clip-path="url(#2939902123537152clip-2)"/><line x1="245.53" y1="10" x2="245.53" y2="425" style="stroke-width: 0.5;stroke: rgb(150,150,150);stroke-opacity: 0.7;stroke-dasharray: 2.0, 2.0;shape-rendering:crispEdges;" transform="matrix(1,0,0,1,0,0)" clip-path="url(#2939902123537152clip-2)"/><line x1="293.45" y1="10" x2="293.45" y2="425" style="stroke-width: 0.5;stroke: rgb(150,150,150);stroke-opacity: 0.7;stroke-dasharray: 2.0, 2.0;shape-rendering:crispEdges;" transform="matrix(1,0,0,1,0,0)" clip-path="url(#2939902123537152clip-2)"/><line x1="341.37" y1="10" x2="341.37" y2="425" style="stroke-width: 0.5;stroke: rgb(150,150,150);stroke-opacity: 0.7;stroke-dasharray: 2.0, 2.0;shape-rendering:crispEdges;" transform="matrix(1,0,0,1,0,0)" clip-path="url(#2939902123537152clip-2)"/><line x1="65" y1="396.15" x2="347" y2="396.15" style="stroke-width: 0.5;stroke: rgb(150,150,150);stroke-opacity: 0.7;stroke-dasharray: 2.0, 2.0;shape-rendering:crispEdges;" transform="matrix(1,0,0,1,0,0)" clip-path="url(#2939902123537152clip-2)"/><line x1="65" y1="367.3" x2="347" y2="367.3" style="stroke-width: 0.5;stroke: rgb(150,150,150);stroke-opacity: 0.7;stroke-dasharray: 2.0, 2.0;shape-rendering:crispEdges;" transform="matrix(1,0,0,1,0,0)" clip-path="url(#2939902123537152clip-2)"/><line x1="65" y1="338.45" x2="347" y2="338.45" style="stroke-width: 0.5;stroke: rgb(150,150,150);stroke-opacity: 0.7;stroke-dasharray: 2.0, 2.0;shape-rendering:crispEdges;" transform="matrix(1,0,0,1,0,0)" clip-path="url(#2939902123537152clip-2)"/><line x1="65" y1="309.6" x2="347" y2="309.6" style="stroke-width: 0.5;stroke: rgb(150,150,150);stroke-opacity: 0.7;stroke-dasharray: 2.0, 2.0;shape-rendering:crispEdges;" transform="matrix(1,0,0,1,0,0)" clip-path="url(#2939902123537152clip-2)"/><line x1="65" y1="280.75" x2="347" y2="280.75" style="stroke-width: 0.5;stroke: rgb(150,150,150);stroke-opacity: 0.7;stroke-dasharray: 2.0, 2.0;shape-rendering:crispEdges;" transform="matrix(1,0,0,1,0,0)" clip-path="url(#2939902123537152clip-2)"/><line x1="65" y1="251.9" x2="347" y2="251.9" style="stroke-width: 0.5;stroke: rgb(150,150,150);stroke-opacity: 0.7;stroke-dasharray: 2.0, 2.0;shape-rendering:crispEdges;" transform="matrix(1,0,0,1,0,0)" clip-path="url(#2939902123537152clip-2)"/><line x1="65" y1="223.05" x2="347" y2="223.05" style="stroke-width: 0.5;stroke: rgb(150,150,150);stroke-opacity: 0.7;stroke-dasharray: 2.0, 2.0;shape-rendering:crispEdges;" transform="matrix(1,0,0,1,0,0)" clip-path="url(#2939902123537152clip-2)"/><line x1="65" y1="194.2" x2="347" y2="194.2" style="stroke-width: 0.5;stroke: rgb(150,150,150);stroke-opacity: 0.7;stroke-dasharray: 2.0, 2.0;shape-rendering:crispEdges;" transform="matrix(1,0,0,1,0,0)" clip-path="url(#2939902123537152clip-2)"/><line x1="65" y1="165.35" x2="347" y2="165.35" style="stroke-width: 0.5;stroke: rgb(150,150,150);stroke-opacity: 0.7;stroke-dasharray: 2.0, 2.0;shape-rendering:crispEdges;" transform="matrix(1,0,0,1,0,0)" clip-path="url(#2939902123537152clip-2)"/><line x1="65" y1="136.51" x2="347" y2="136.51" style="stroke-width: 0.5;stroke: rgb(150,150,150);stroke-opacity: 0.7;stroke-dasharray: 2.0, 2.0;shape-rendering:crispEdges;" transform="matrix(1,0,0,1,0,0)" clip-path="url(#2939902123537152clip-2)"/><line x1="65" y1="107.66" x2="347" y2="107.66" style="stroke-width: 0.5;stroke: rgb(150,150,150);stroke-opacity: 0.7;stroke-dasharray: 2.0, 2.0;shape-rendering:crispEdges;" transform="matrix(1,0,0,1,0,0)" clip-path="url(#2939902123537152clip-2)"/><line x1="65" y1="78.81" x2="347" y2="78.81" style="stroke-width: 0.5;stroke: rgb(150,150,150);stroke-opacity: 0.7;stroke-dasharray: 2.0, 2.0;shape-rendering:crispEdges;" transform="matrix(1,0,0,1,0,0)" clip-path="url(#2939902123537152clip-2)"/><line x1="65" y1="49.96" x2="347" y2="49.96" style="stroke-width: 0.5;stroke: rgb(150,150,150);stroke-opacity: 0.7;stroke-dasharray: 2.0, 2.0;shape-rendering:crispEdges;" transform="matrix(1,0,0,1,0,0)" clip-path="url(#2939902123537152clip-2)"/><line x1="65" y1="21.11" x2="347" y2="21.11" style="stroke-width: 0.5;stroke: rgb(150,150,150);stroke-opacity: 0.7;stroke-dasharray: 2.0, 2.0;shape-rendering:crispEdges;" transform="matrix(1,0,0,1,0,0)" clip-path="url(#2939902123537152clip-2)"/><line x1="65" y1="425" x2="347" y2="425" style="stroke-width: 0.5;stroke: rgb(0,0,0);stroke-opacity: 0.7;shape-rendering:crispEdges;" transform="matrix(1,0,0,1,0,0)" clip-path="url(#2939902123537152clip-2)"/><rect x="77.82" y="90.35" width="0.18" height="334.65" style="fill: url(#2939902123537152gp0); fill-opacity: 0.7" transform="matrix(1,0,0,1,0,0)" clip-path="url(#2939902123537152clip-2)"/><rect x="78" y="90.35" width="1" height="334.65" style="fill: url(#2939902123537152gp2); fill-opacity: 0.7" transform="matrix(1,0,0,1,0,0)" clip-path="url(#2939902123537152clip-2)"/><rect x="80" y="290.85" width="1" height="134.15" style="fill: url(#2939902123537152gp6); fill-opacity: 0.7" transform="matrix(1,0,0,1,0,0)" clip-path="url(#2939902123537152clip-2)"/><rect x="81" y="290.85" width="0.06" height="134.15" style="fill: url(#2939902123537152gp7); fill-opacity: 0.7" transform="matrix(1,0,0,1,0,0)" clip-path="url(#2939902123537152clip-2)"/><rect x="82" y="391.82" width="1" height="33.18" style="fill: url(#2939902123537152gp10); fill-opacity: 0.7" transform="matrix(1,0,0,1,0,0)" clip-path="url(#2939902123537152clip-2)"/><rect x="83" y="391.82" width="0.3" height="33.18" style="fill: url(#2939902123537152gp11); fill-opacity: 0.7" transform="matrix(1,0,0,1,0,0)" clip-path="url(#2939902123537152clip-2)"/><rect x="84.53" y="404.81" width="0.47" height="20.19" style="fill: url(#2939902123537152gp12); fill-opacity: 0.7" transform="matrix(1,0,0,1,0,0)" clip-path="url(#2939902123537152clip-2)"/><rect x="85" y="404.81" width="0.53" height="20.19" style="fill: url(#2939902123537152gp15); fill-opacity: 0.7" transform="matrix(1,0,0,1,0,0)" clip-path="url(#2939902123537152clip-2)"/><rect x="87" y="417.79" width="1" height="7.21" style="fill: url(#2939902123537152gp17); fill-opacity: 0.7" transform="matrix(1,0,0,1,0,0)" clip-path="url(#2939902123537152clip-2)"/><rect x="88" y="417.79" width="0.33" height="7.21" style="fill: url(#2939902123537152gp19); fill-opacity: 0.7" transform="matrix(1,0,0,1,0,0)" clip-path="url(#2939902123537152clip-2)"/><rect x="89.57" y="422.12" width="0.43" height="2.88" style="fill: url(#2939902123537152gp20); fill-opacity: 0.7" transform="matrix(1,0,0,1,0,0)" clip-path="url(#2939902123537152clip-2)"/><rect x="90" y="422.12" width="0.57" height="2.88" style="fill: url(#2939902123537152gp23); fill-opacity: 0.7" transform="matrix(1,0,0,1,0,0)" clip-path="url(#2939902123537152clip-2)"/><rect x="91.81" y="423.56" width="0.19" height="1.44" style="fill: url(#2939902123537152gp24); fill-opacity: 0.7" transform="matrix(1,0,0,1,0,0)" clip-path="url(#2939902123537152clip-2)"/><rect x="92" y="423.56" width="1" height="1.44" style="fill: url(#2939902123537152gp26); fill-opacity: 0.7" transform="matrix(1,0,0,1,0,0)" clip-path="url(#2939902123537152clip-2)"/><rect x="101" y="423.56" width="1" height="1.44" style="fill: url(#2939902123537152gp29); fill-opacity: 0.7" transform="matrix(1,0,0,1,0,0)" clip-path="url(#2939902123537152clip-2)"/><rect x="102" y="423.56" width="0.32" height="1.44" style="fill: url(#2939902123537152gp31); fill-opacity: 0.7" transform="matrix(1,0,0,1,0,0)" clip-path="url(#2939902123537152clip-2)"/><rect x="149.45" y="423.56" width="0.55" height="1.44" style="fill: url(#2939902123537152gp32); fill-opacity: 0.7" transform="matrix(1,0,0,1,0,0)" clip-path="url(#2939902123537152clip-2)"/><rect x="150" y="423.56" width="0.45" height="1.44" style="fill: url(#2939902123537152gp35); fill-opacity: 0.7" transform="matrix(1,0,0,1,0,0)" clip-path="url(#2939902123537152clip-2)"/><rect x="153.93" y="423.56" width="0.07" height="1.44" style="fill: url(#2939902123537152gp36); fill-opacity: 0.7" transform="matrix(1,0,0,1,0,0)" clip-path="url(#2939902123537152clip-2)"/><rect x="154" y="423.56" width="1" height="1.44" style="fill: url(#2939902123537152gp38); fill-opacity: 0.7" transform="matrix(1,0,0,1,0,0)" clip-path="url(#2939902123537152clip-2)"/><rect x="77.82" y="29.76" width="0.18" height="395.24" style="fill: url(#2939902123537152gp40); fill-opacity: 0.7" transform="matrix(1,0,0,1,0,0)" clip-path="url(#2939902123537152clip-2)"/><rect x="78" y="29.76" width="1" height="395.24" style="fill: url(#2939902123537152gp42); fill-opacity: 0.7" transform="matrix(1,0,0,1,0,0)" clip-path="url(#2939902123537152clip-2)"/><rect x="79" y="29.76" width="0.69" height="395.24" style="fill: url(#2939902123537152gp43); fill-opacity: 0.7" transform="matrix(1,0,0,1,0,0)" clip-path="url(#2939902123537152clip-2)"/><rect x="79.69" y="296.62" width="0.31" height="128.38" style="fill: url(#2939902123537152gp44); fill-opacity: 0.7" transform="matrix(1,0,0,1,0,0)" clip-path="url(#2939902123537152clip-2)"/><rect x="80" y="296.62" width="1" height="128.38" style="fill: url(#2939902123537152gp46); fill-opacity: 0.7" transform="matrix(1,0,0,1,0,0)" clip-path="url(#2939902123537152clip-2)"/><rect x="81" y="296.62" width="0.56" height="128.38" style="fill: url(#2939902123537152gp47); fill-opacity: 0.7" transform="matrix(1,0,0,1,0,0)" clip-path="url(#2939902123537152clip-2)"/><rect x="81.56" y="390.38" width="0.44" height="34.62" style="fill: url(#2939902123537152gp48); fill-opacity: 0.7" transform="matrix(1,0,0,1,0,0)" clip-path="url(#2939902123537152clip-2)"/><rect x="82" y="390.38" width="1" height="34.62" style="fill: url(#2939902123537152gp50); fill-opacity: 0.7" transform="matrix(1,0,0,1,0,0)" clip-path="url(#2939902123537152clip-2)"/><rect x="83" y="390.38" width="0.43" height="34.62" style="fill: url(#2939902123537152gp51); fill-opacity: 0.7" transform="matrix(1,0,0,1,0,0)" clip-path="url(#2939902123537152clip-2)"/><rect x="83.43" y="407.69" width="0.57" height="17.31" style="fill: url(#2939902123537152gp52); fill-opacity: 0.7" transform="matrix(1,0,0,1,0,0)" clip-path="url(#2939902123537152clip-2)"/><rect x="84" y="407.69" width="1" height="17.31" style="fill: url(#2939902123537152gp54); fill-opacity: 0.7" transform="matrix(1,0,0,1,0,0)" clip-path="url(#2939902123537152clip-2)"/><rect x="85" y="407.69" width="0.3" height="17.31" style="fill: url(#2939902123537152gp55); fill-opacity: 0.7" transform="matrix(1,0,0,1,0,0)" clip-path="url(#2939902123537152clip-2)"/><rect x="89" y="423.56" width="2" height="1.44" style="fill: url(#2939902123537152gp58); fill-opacity: 0.7" transform="matrix(1,0,0,1,0,0)" clip-path="url(#2939902123537152clip-2)"/><rect x="92.79" y="422.12" width="0.21" height="2.88" style="fill: url(#2939902123537152gp60); fill-opacity: 0.7" transform="matrix(1,0,0,1,0,0)" clip-path="url(#2939902123537152clip-2)"/><rect x="93" y="422.12" width="1" height="2.88" style="fill: url(#2939902123537152gp62); fill-opacity: 0.7" transform="matrix(1,0,0,1,0,0)" clip-path="url(#2939902123537152clip-2)"/><rect x="94" y="422.12" width="0.66" height="2.88" style="fill: url(#2939902123537152gp63); fill-opacity: 0.7" transform="matrix(1,0,0,1,0,0)" clip-path="url(#2939902123537152clip-2)"/><rect x="180.74" y="423.56" width="0.26" height="1.44" style="fill: url(#2939902123537152gp64); fill-opacity: 0.7" transform="matrix(1,0,0,1,0,0)" clip-path="url(#2939902123537152clip-2)"/><rect x="181" y="423.56" width="1" height="1.44" style="fill: url(#2939902123537152gp66); fill-opacity: 0.7" transform="matrix(1,0,0,1,0,0)" clip-path="url(#2939902123537152clip-2)"/><rect x="182" y="423.56" width="0.61" height="1.44" style="fill: url(#2939902123537152gp67); fill-opacity: 0.7" transform="matrix(1,0,0,1,0,0)" clip-path="url(#2939902123537152clip-2)"/><rect x="190" y="423.56" width="2" height="1.44" style="fill: url(#2939902123537152gp70); fill-opacity: 0.7" transform="matrix(1,0,0,1,0,0)" clip-path="url(#2939902123537152clip-2)"/><rect x="246" y="423.56" width="1" height="1.44" style="fill: url(#2939902123537152gp73); fill-opacity: 0.7" transform="matrix(1,0,0,1,0,0)" clip-path="url(#2939902123537152clip-2)"/><rect x="247" y="423.56" width="1" height="1.44" style="fill: url(#2939902123537152gp74); fill-opacity: 0.7" transform="matrix(1,0,0,1,0,0)" clip-path="url(#2939902123537152clip-2)"/><rect x="248" y="423.56" width="0.1" height="1.44" style="fill: url(#2939902123537152gp75); fill-opacity: 0.7" transform="matrix(1,0,0,1,0,0)" clip-path="url(#2939902123537152clip-2)"/><rect x="332" y="423.56" width="1" height="1.44" style="fill: url(#2939902123537152gp77); fill-opacity: 0.7" transform="matrix(1,0,0,1,0,0)" clip-path="url(#2939902123537152clip-2)"/><rect x="333" y="423.56" width="1" height="1.44" style="fill: url(#2939902123537152gp78); fill-opacity: 0.7" transform="matrix(1,0,0,1,0,0)" clip-path="url(#2939902123537152clip-2)"/><rect x="334" y="423.56" width="0.18" height="1.44" style="fill: url(#2939902123537152gp79); fill-opacity: 0.7" transform="matrix(1,0,0,1,0,0)" clip-path="url(#2939902123537152clip-2)"/><rect x="65" y="10" width="282" height="415" style="stroke-width: 0.5;stroke: rgb(0,0,0);stroke-opacity: 1.0;shape-rendering:crispEdges;; fill: none" transform="matrix(1,0,0,1,0,0)" clip-path="url(#2939902123537152clip-0)"/></svg>
