<!DOCTYPE svg PUBLIC "-//W3C//DTD SVG 1.1//EN" "http://www.w3.org/Graphics/SVG/1.1/DTD/svg11.dtd">
<svg xmlns="http://www.w3.org/2000/svg" xmlns:xlink="http://www.w3.org/1999/xlink" xmlns:jfreesvg="http://www.jfree.org/jfreesvg/svg" width="421" height="476" text-rendering="auto" shape-rendering="auto">
<defs><linearGradient id="2940634101440784gp3" x1="78" y1="0" x2="78.18" y2="0" gradientUnits="userSpaceOnUse"><stop offset="0%" style="stop-color: rgb(255,121,121);"/><stop offset="100%" style="stop-color: rgb(255,85,85);"/></linearGradient>
<linearGradient id="2940634101440784gp5" x1="85" y1="0" x2="85" y2="0" gradientUnits="userSpaceOnUse"><stop offset="0%" style="stop-color: rgb(255,255,255);"/><stop offset="100%" style="stop-color: rgb(255,85,85);"/></linearGradient>
<linearGradient id="2940634101440784gp16" x1="116.35" y1="0" x2="117" y2="0" gradientUnits="userSpaceOnUse"><stop offset="0%" style="stop-color: rgb(255,85,85);"/><stop offset="100%" style="stop-color: rgb(255,255,255);"/></linearGradient>
<linearGradient id="2940634101440784gp17" x1="117" y1="0" x2="117" y2="0" gradientUnits="userSpaceOnUse"><stop offset="0%" style="stop-color: rgb(255,255,255);"/><stop offset="100%" style="stop-color: rgb(255,85,85);"/></linearGradient>
<linearGradient id="2940634101440784gp47" x1="208" y1="0" x2="208.6" y2="0" gradientUnits="userSpaceOnUse"><stop offset="0%" style="stop-color: rgb(255,121,121);"/><stop offset="100%" style="stop-color: rgb(255,85,85);"/></linearGradient>
<linearGradient id="2940634101440784gp24" x1="138.62" y1="0" x2="139" y2="0" gradientUnits="userSpaceOnUse"><stop offset="0%" style="stop-color: rgb(255,85,85);"/><stop offset="100%" style="stop-color: rgb(255,255,255);"/></linearGradient>
<linearGradient id="2940634101440784gp0" x1="75" y1="0" x2="75" y2="0" gradientUnits="userSpaceOnUse"><stop offset="0%" style="stop-color: rgb(255,85,85);"/><stop offset="100%" style="stop-color: rgb(255,255,255);"/></linearGradient>
<linearGradient id="2940634101440784gp12" x1="106.81" y1="0" x2="107" y2="0" gradientUnits="userSpaceOnUse"><stop offset="0%" style="stop-color: rgb(255,85,85);"/><stop offset="100%" style="stop-color: rgb(255,255,255);"/></linearGradient>
<linearGradient id="2940634101440784gp46" x1="206" y1="0" x2="208" y2="0" gradientUnits="userSpaceOnUse"><stop offset="0%" style="stop-color: rgb(255,85,85);"/><stop offset="100%" style="stop-color: rgb(255,121,121);"/></linearGradient>
<linearGradient id="2940634101440784gp20" x1="129.08" y1="0" x2="129" y2="0" gradientUnits="userSpaceOnUse"><stop offset="0%" style="stop-color: rgb(255,85,85);"/><stop offset="100%" style="stop-color: rgb(255,255,255);"/></linearGradient>
<linearGradient id="2940634101440784gp42" x1="193" y1="0" x2="195" y2="0" gradientUnits="userSpaceOnUse"><stop offset="0%" style="stop-color: rgb(255,85,85);"/><stop offset="100%" style="stop-color: rgb(255,121,121);"/></linearGradient>
<linearGradient id="2940634101440784gp13" x1="107" y1="0" x2="107" y2="0" gradientUnits="userSpaceOnUse"><stop offset="0%" style="stop-color: rgb(255,255,255);"/><stop offset="100%" style="stop-color: rgb(255,85,85);"/></linearGradient>
<linearGradient id="2940634101440784gp7" x1="87" y1="0" x2="87.72" y2="0" gradientUnits="userSpaceOnUse"><stop offset="0%" style="stop-color: rgb(255,121,121);"/><stop offset="100%" style="stop-color: rgb(255,85,85);"/></linearGradient>
<linearGradient id="2940634101440784gp51" x1="392" y1="0" x2="393.1" y2="0" gradientUnits="userSpaceOnUse"><stop offset="0%" style="stop-color: rgb(255,121,121);"/><stop offset="100%" style="stop-color: rgb(255,85,85);"/></linearGradient>
<linearGradient id="2940634101440784gp25" x1="139" y1="0" x2="139" y2="0" gradientUnits="userSpaceOnUse"><stop offset="0%" style="stop-color: rgb(255,255,255);"/><stop offset="100%" style="stop-color: rgb(255,85,85);"/></linearGradient>
<linearGradient id="2940634101440784gp35" x1="163" y1="0" x2="164.07" y2="0" gradientUnits="userSpaceOnUse"><stop offset="0%" style="stop-color: rgb(255,121,121);"/><stop offset="100%" style="stop-color: rgb(255,85,85);"/></linearGradient>
<linearGradient id="2940634101440784gp49" x1="390" y1="0" x2="391" y2="0" gradientUnits="userSpaceOnUse"><stop offset="0%" style="stop-color: rgb(255,255,255);"/><stop offset="100%" style="stop-color: rgb(255,85,85);"/></linearGradient>
<linearGradient id="2940634101440784gp19" x1="119" y1="0" x2="119.53" y2="0" gradientUnits="userSpaceOnUse"><stop offset="0%" style="stop-color: rgb(255,121,121);"/><stop offset="100%" style="stop-color: rgb(255,85,85);"/></linearGradient>
<linearGradient id="2940634101440784gp21" x1="129" y1="0" x2="130" y2="0" gradientUnits="userSpaceOnUse"><stop offset="0%" style="stop-color: rgb(255,255,255);"/><stop offset="100%" style="stop-color: rgb(255,85,85);"/></linearGradient>
<linearGradient id="2940634101440784gp26" x1="139" y1="0" x2="141" y2="0" gradientUnits="userSpaceOnUse"><stop offset="0%" style="stop-color: rgb(255,85,85);"/><stop offset="100%" style="stop-color: rgb(255,121,121);"/></linearGradient>
<linearGradient id="2940634101440784gp39" x1="176" y1="0" x2="176.79" y2="0" gradientUnits="userSpaceOnUse"><stop offset="0%" style="stop-color: rgb(255,121,121);"/><stop offset="100%" style="stop-color: rgb(255,85,85);"/></linearGradient>
<linearGradient id="2940634101440784gp15" x1="109" y1="0" x2="109.99" y2="0" gradientUnits="userSpaceOnUse"><stop offset="0%" style="stop-color: rgb(255,121,121);"/><stop offset="100%" style="stop-color: rgb(255,85,85);"/></linearGradient>
<linearGradient id="2940634101440784gp45" x1="206" y1="0" x2="206" y2="0" gradientUnits="userSpaceOnUse"><stop offset="0%" style="stop-color: rgb(255,255,255);"/><stop offset="100%" style="stop-color: rgb(255,85,85);"/></linearGradient>
<linearGradient id="2940634101440784gp40" x1="192.7" y1="0" x2="193" y2="0" gradientUnits="userSpaceOnUse"><stop offset="0%" style="stop-color: rgb(255,85,85);"/><stop offset="100%" style="stop-color: rgb(255,255,255);"/></linearGradient>
<linearGradient id="2940634101440784gp10" x1="95" y1="0" x2="97" y2="0" gradientUnits="userSpaceOnUse"><stop offset="0%" style="stop-color: rgb(255,85,85);"/><stop offset="100%" style="stop-color: rgb(255,121,121);"/></linearGradient>
<linearGradient id="2940634101440784gp44" x1="205.42" y1="0" x2="206" y2="0" gradientUnits="userSpaceOnUse"><stop offset="0%" style="stop-color: rgb(255,85,85);"/><stop offset="100%" style="stop-color: rgb(255,255,255);"/></linearGradient>
<linearGradient id="2940634101440784gp48" x1="389.91" y1="0" x2="390" y2="0" gradientUnits="userSpaceOnUse"><stop offset="0%" style="stop-color: rgb(255,85,85);"/><stop offset="100%" style="stop-color: rgb(255,255,255);"/></linearGradient>
<linearGradient id="2940634101440784gp38" x1="174" y1="0" x2="176" y2="0" gradientUnits="userSpaceOnUse"><stop offset="0%" style="stop-color: rgb(255,85,85);"/><stop offset="100%" style="stop-color: rgb(255,121,121);"/></linearGradient>
<linearGradient id="2940634101440784gp50" x1="391" y1="0" x2="392" y2="0" gradientUnits="userSpaceOnUse"><stop offset="0%" style="stop-color: rgb(255,85,85);"/><stop offset="100%" style="stop-color: rgb(255,121,121);"/></linearGradient>
<linearGradient id="2940634101440784gp8" x1="94.09" y1="0" x2="94" y2="0" gradientUnits="userSpaceOnUse"><stop offset="0%" style="stop-color: rgb(255,85,85);"/><stop offset="100%" style="stop-color: rgb(255,255,255);"/></linearGradient>
<linearGradient id="2940634101440784gp27" x1="141" y1="0" x2="141.8" y2="0" gradientUnits="userSpaceOnUse"><stop offset="0%" style="stop-color: rgb(255,121,121);"/><stop offset="100%" style="stop-color: rgb(255,85,85);"/></linearGradient>
<linearGradient id="2940634101440784gp22" x1="130" y1="0" x2="132" y2="0" gradientUnits="userSpaceOnUse"><stop offset="0%" style="stop-color: rgb(255,85,85);"/><stop offset="100%" style="stop-color: rgb(255,121,121);"/></linearGradient>
<linearGradient id="2940634101440784gp41" x1="193" y1="0" x2="193" y2="0" gradientUnits="userSpaceOnUse"><stop offset="0%" style="stop-color: rgb(255,255,255);"/><stop offset="100%" style="stop-color: rgb(255,85,85);"/></linearGradient>
<linearGradient id="2940634101440784gp30" x1="152" y1="0" x2="154" y2="0" gradientUnits="userSpaceOnUse"><stop offset="0%" style="stop-color: rgb(255,85,85);"/><stop offset="100%" style="stop-color: rgb(255,121,121);"/></linearGradient>
<linearGradient id="2940634101440784gp43" x1="195" y1="0" x2="195.88" y2="0" gradientUnits="userSpaceOnUse"><stop offset="0%" style="stop-color: rgb(255,121,121);"/><stop offset="100%" style="stop-color: rgb(255,85,85);"/></linearGradient>
<linearGradient id="2940634101440784gp33" x1="161" y1="0" x2="162" y2="0" gradientUnits="userSpaceOnUse"><stop offset="0%" style="stop-color: rgb(255,255,255);"/><stop offset="100%" style="stop-color: rgb(255,85,85);"/></linearGradient>
<linearGradient id="2940634101440784gp9" x1="94" y1="0" x2="95" y2="0" gradientUnits="userSpaceOnUse"><stop offset="0%" style="stop-color: rgb(255,255,255);"/><stop offset="100%" style="stop-color: rgb(255,85,85);"/></linearGradient>
<linearGradient id="2940634101440784gp29" x1="152" y1="0" x2="152" y2="0" gradientUnits="userSpaceOnUse"><stop offset="0%" style="stop-color: rgb(255,255,255);"/><stop offset="100%" style="stop-color: rgb(255,85,85);"/></linearGradient>
<linearGradient id="2940634101440784gp37" x1="174" y1="0" x2="174" y2="0" gradientUnits="userSpaceOnUse"><stop offset="0%" style="stop-color: rgb(255,255,255);"/><stop offset="100%" style="stop-color: rgb(255,85,85);"/></linearGradient>
<linearGradient id="2940634101440784gp2" x1="76" y1="0" x2="78" y2="0" gradientUnits="userSpaceOnUse"><stop offset="0%" style="stop-color: rgb(255,85,85);"/><stop offset="100%" style="stop-color: rgb(255,121,121);"/></linearGradient>
<linearGradient id="2940634101440784gp34" x1="162" y1="0" x2="163" y2="0" gradientUnits="userSpaceOnUse"><stop offset="0%" style="stop-color: rgb(255,85,85);"/><stop offset="100%" style="stop-color: rgb(255,121,121);"/></linearGradient>
<linearGradient id="2940634101440784gp14" x1="107" y1="0" x2="109" y2="0" gradientUnits="userSpaceOnUse"><stop offset="0%" style="stop-color: rgb(255,85,85);"/><stop offset="100%" style="stop-color: rgb(255,121,121);"/></linearGradient>
<linearGradient id="2940634101440784gp23" x1="132" y1="0" x2="132.26" y2="0" gradientUnits="userSpaceOnUse"><stop offset="0%" style="stop-color: rgb(255,121,121);"/><stop offset="100%" style="stop-color: rgb(255,85,85);"/></linearGradient>
<linearGradient id="2940634101440784gp31" x1="154" y1="0" x2="154.52" y2="0" gradientUnits="userSpaceOnUse"><stop offset="0%" style="stop-color: rgb(255,121,121);"/><stop offset="100%" style="stop-color: rgb(255,85,85);"/></linearGradient>
<linearGradient id="2940634101440784gp36" x1="173.61" y1="0" x2="174" y2="0" gradientUnits="userSpaceOnUse"><stop offset="0%" style="stop-color: rgb(255,85,85);"/><stop offset="100%" style="stop-color: rgb(255,255,255);"/></linearGradient>
<linearGradient id="2940634101440784gp1" x1="75" y1="0" x2="76" y2="0" gradientUnits="userSpaceOnUse"><stop offset="0%" style="stop-color: rgb(255,255,255);"/><stop offset="100%" style="stop-color: rgb(255,85,85);"/></linearGradient>
<linearGradient id="2940634101440784gp28" x1="151.34" y1="0" x2="152" y2="0" gradientUnits="userSpaceOnUse"><stop offset="0%" style="stop-color: rgb(255,85,85);"/><stop offset="100%" style="stop-color: rgb(255,255,255);"/></linearGradient>
<linearGradient id="2940634101440784gp4" x1="84.54" y1="0" x2="85" y2="0" gradientUnits="userSpaceOnUse"><stop offset="0%" style="stop-color: rgb(255,85,85);"/><stop offset="100%" style="stop-color: rgb(255,255,255);"/></linearGradient>
<linearGradient id="2940634101440784gp32" x1="160.89" y1="0" x2="161" y2="0" gradientUnits="userSpaceOnUse"><stop offset="0%" style="stop-color: rgb(255,85,85);"/><stop offset="100%" style="stop-color: rgb(255,255,255);"/></linearGradient>
<linearGradient id="2940634101440784gp11" x1="97" y1="0" x2="97.27" y2="0" gradientUnits="userSpaceOnUse"><stop offset="0%" style="stop-color: rgb(255,121,121);"/><stop offset="100%" style="stop-color: rgb(255,85,85);"/></linearGradient>
<linearGradient id="2940634101440784gp6" x1="85" y1="0" x2="87" y2="0" gradientUnits="userSpaceOnUse"><stop offset="0%" style="stop-color: rgb(255,85,85);"/><stop offset="100%" style="stop-color: rgb(255,121,121);"/></linearGradient>
<linearGradient id="2940634101440784gp18" x1="117" y1="0" x2="119" y2="0" gradientUnits="userSpaceOnUse"><stop offset="0%" style="stop-color: rgb(255,85,85);"/><stop offset="100%" style="stop-color: rgb(255,121,121);"/></linearGradient>
<clipPath id="2940634101440784clip-0"><path d="M 0 0 L 421 0 L 421 476 L 0 476 L 0 0 M 0 0"/></clipPath>
<clipPath id="2940634101440784clip-1"><path d="M 237.5 197.5 L 237.5 618.5 L -238.5 618.5 L -238.5 197.5 L 237.5 197.5 M 237.5 197.5"/></clipPath>
<clipPath id="2940634101440784clip-2"><path d="M 75 10 L 75 425 L 409 425 L 409 10 M 75 10"/></clipPath>
</defs>
<rect x="0" y="0" width="421" height="476" style="fill: rgb(255,255,255); fill-opacity: 1.0" transform="matrix(1,0,0,1,0,0)" clip-path="url(#2940634101440784clip-0)"/><rect x="75" y="10" width="334" height="415" style="fill: rgb(255,255,255); fill-opacity: 1.0" transform="matrix(1,0,0,1,0,0)" clip-path="url(#2940634101440784clip-0)"/><line x1="75" y1="429" x2="409" y2="429" style="stroke-width: 0.5;stroke: rgb(128,128,128);stroke-opacity: 1.0;shape-rendering:crispEdges;" transform="matrix(1,0,0,1,0,0)" clip-path="url(#2940634101440784clip-0)"/><g transform="matrix(1,0,0,1,0,0)"><text x="71.5" y="442.35" style="fill: rgb(64,64,64); fill-opacity: 1.0; font-family: sans-serif; font-size: 12px; " clip-path="url(#2940634101440784clip-0)">0</text></g><line x1="75" y1="431" x2="75" y2="429" style="stroke-width: 0.5;stroke: rgb(128,128,128);stroke-opacity: 1.0;shape-rendering:crispEdges;" transform="matrix(1,0,0,1,0,0)" clip-path="url(#2940634101440784clip-0)"/><g transform="matrix(1,0,0,1,0,0)"><text x="126.34" y="442.35" style="fill: rgb(64,64,64); fill-opacity: 1.0; font-family: sans-serif; font-size: 12px; " clip-path="url(#2940634101440784clip-0)">5</text></g><line x1="129.84" y1="431" x2="129.84" y2="429" style="stroke-width: 0.5;stroke: rgb(128,128,128);stroke-opacity: 1.0;shape-rendering:crispEdges;" transform="matrix(1,0,0,1,0,0)" clip-path="url(#2940634101440784clip-0)"/><g transform="matrix(1,0,0,1,0,0)"><text x="177.69" y="442.35" style="fill: rgb(64,64,64); fill-opacity: 1.0; font-family: sans-serif; font-size: 12px; " clip-path="url(#2940634101440784clip-0)">10</text></g><line x1="184.69" y1="431" x2="184.69" y2="429" style="stroke-width: 0.5;stroke: rgb(128,128,128);stroke-opacity: 1.0;shape-rendering:crispEdges;" transform="matrix(1,0,0,1,0,0)" clip-path="url(#2940634101440784clip-0)"/><g transform="matrix(1,0,0,1,0,0)"><text x="232.53" y="442.35" style="fill: rgb(64,64,64); fill-opacity: 1.0; font-family: sans-serif; font-size: 12px; " clip-path="url(#2940634101440784clip-0)">15</text></g><line x1="239.53" y1="431" x2="239.53" y2="429" style="stroke-width: 0.5;stroke: rgb(128,128,128);stroke-opacity: 1.0;shape-rendering:crispEdges;" transform="matrix(1,0,0,1,0,0)" clip-path="url(#2940634101440784clip-0)"/><g transform="matrix(1,0,0,1,0,0)"><text x="287.38" y="442.35" style="fill: rgb(64,64,64); fill-opacity: 1.0; font-family: sans-serif; font-size: 12px; " clip-path="url(#2940634101440784clip-0)">20</text></g><line x1="294.38" y1="431" x2="294.38" y2="429" style="stroke-width: 0.5;stroke: rgb(128,128,128);stroke-opacity: 1.0;shape-rendering:crispEdges;" transform="matrix(1,0,0,1,0,0)" clip-path="url(#2940634101440784clip-0)"/><g transform="matrix(1,0,0,1,0,0)"><text x="342.22" y="442.35" style="fill: rgb(64,64,64); fill-opacity: 1.0; font-family: sans-serif; font-size: 12px; " clip-path="url(#2940634101440784clip-0)">25</text></g><line x1="349.22" y1="431" x2="349.22" y2="429" style="stroke-width: 0.5;stroke: rgb(128,128,128);stroke-opacity: 1.0;shape-rendering:crispEdges;" transform="matrix(1,0,0,1,0,0)" clip-path="url(#2940634101440784clip-0)"/><g transform="matrix(1,0,0,1,0,0)"><text x="397.06" y="442.35" style="fill: rgb(64,64,64); fill-opacity: 1.0; font-family: sans-serif; font-size: 12px; " clip-path="url(#2940634101440784clip-0)">30</text></g><line x1="404.06" y1="431" x2="404.06" y2="429" style="stroke-width: 0.5;stroke: rgb(128,128,128);stroke-opacity: 1.0;shape-rendering:crispEdges;" transform="matrix(1,0,0,1,0,0)" clip-path="url(#2940634101440784clip-0)"/><g transform="matrix(1,0,0,1,0,0)"><text x="197" y="461.81" style="fill: rgb(64,64,64); fill-opacity: 1.0; font-family: sans-serif; font-size: 14px; font-weight: bold; " clip-path="url(#2940634101440784clip-0)">Edit distance</text></g><line x1="71" y1="10" x2="71" y2="425" style="stroke-width: 0.5;stroke: rgb(128,128,128);stroke-opacity: 1.0;shape-rendering:crispEdges;" transform="matrix(1,0,0,1,0,0)" clip-path="url(#2940634101440784clip-0)"/><g transform="matrix(1,0,0,1,0,0)"><text x="58" y="426.85" style="fill: rgb(64,64,64); fill-opacity: 1.0; font-family: sans-serif; font-size: 12px; " clip-path="url(#2940634101440784clip-0)">0</text></g><line x1="69" y1="425" x2="71" y2="425" style="stroke-width: 0.5;stroke: rgb(128,128,128);stroke-opacity: 1.0;shape-rendering:crispEdges;" transform="matrix(1,0,0,1,0,0)" clip-path="url(#2940634101440784clip-0)"/><g transform="matrix(1,0,0,1,0,0)"><text x="44" y="385.54" style="fill: rgb(64,64,64); fill-opacity: 1.0; font-family: sans-serif; font-size: 12px; " clip-path="url(#2940634101440784clip-0)">500</text></g><line x1="69" y1="383.69" x2="71" y2="383.69" style="stroke-width: 0.5;stroke: rgb(128,128,128);stroke-opacity: 1.0;shape-rendering:crispEdges;" transform="matrix(1,0,0,1,0,0)" clip-path="url(#2940634101440784clip-0)"/><g transform="matrix(1,0,0,1,0,0)"><text x="34" y="344.23" style="fill: rgb(64,64,64); fill-opacity: 1.0; font-family: sans-serif; font-size: 12px; " clip-path="url(#2940634101440784clip-0)">1,000</text></g><line x1="69" y1="342.38" x2="71" y2="342.38" style="stroke-width: 0.5;stroke: rgb(128,128,128);stroke-opacity: 1.0;shape-rendering:crispEdges;" transform="matrix(1,0,0,1,0,0)" clip-path="url(#2940634101440784clip-0)"/><g transform="matrix(1,0,0,1,0,0)"><text x="34" y="302.92" style="fill: rgb(64,64,64); fill-opacity: 1.0; font-family: sans-serif; font-size: 12px; " clip-path="url(#2940634101440784clip-0)">1,500</text></g><line x1="69" y1="301.08" x2="71" y2="301.08" style="stroke-width: 0.5;stroke: rgb(128,128,128);stroke-opacity: 1.0;shape-rendering:crispEdges;" transform="matrix(1,0,0,1,0,0)" clip-path="url(#2940634101440784clip-0)"/><g transform="matrix(1,0,0,1,0,0)"><text x="34" y="261.61" style="fill: rgb(64,64,64); fill-opacity: 1.0; font-family: sans-serif; font-size: 12px; " clip-path="url(#2940634101440784clip-0)">2,000</text></g><line x1="69" y1="259.77" x2="71" y2="259.77" style="stroke-width: 0.5;stroke: rgb(128,128,128);stroke-opacity: 1.0;shape-rendering:crispEdges;" transform="matrix(1,0,0,1,0,0)" clip-path="url(#2940634101440784clip-0)"/><g transform="matrix(1,0,0,1,0,0)"><text x="34" y="220.31" style="fill: rgb(64,64,64); fill-opacity: 1.0; font-family: sans-serif; font-size: 12px; " clip-path="url(#2940634101440784clip-0)">2,500</text></g><line x1="69" y1="218.46" x2="71" y2="218.46" style="stroke-width: 0.5;stroke: rgb(128,128,128);stroke-opacity: 1.0;shape-rendering:crispEdges;" transform="matrix(1,0,0,1,0,0)" clip-path="url(#2940634101440784clip-0)"/><g transform="matrix(1,0,0,1,0,0)"><text x="34" y="179" style="fill: rgb(64,64,64); fill-opacity: 1.0; font-family: sans-serif; font-size: 12px; " clip-path="url(#2940634101440784clip-0)">3,000</text></g><line x1="69" y1="177.15" x2="71" y2="177.15" style="stroke-width: 0.5;stroke: rgb(128,128,128);stroke-opacity: 1.0;shape-rendering:crispEdges;" transform="matrix(1,0,0,1,0,0)" clip-path="url(#2940634101440784clip-0)"/><g transform="matrix(1,0,0,1,0,0)"><text x="34" y="137.69" style="fill: rgb(64,64,64); fill-opacity: 1.0; font-family: sans-serif; font-size: 12px; " clip-path="url(#2940634101440784clip-0)">3,500</text></g><line x1="69" y1="135.84" x2="71" y2="135.84" style="stroke-width: 0.5;stroke: rgb(128,128,128);stroke-opacity: 1.0;shape-rendering:crispEdges;" transform="matrix(1,0,0,1,0,0)" clip-path="url(#2940634101440784clip-0)"/><g transform="matrix(1,0,0,1,0,0)"><text x="34" y="96.38" style="fill: rgb(64,64,64); fill-opacity: 1.0; font-family: sans-serif; font-size: 12px; " clip-path="url(#2940634101440784clip-0)">4,000</text></g><line x1="69" y1="94.53" x2="71" y2="94.53" style="stroke-width: 0.5;stroke: rgb(128,128,128);stroke-opacity: 1.0;shape-rendering:crispEdges;" transform="matrix(1,0,0,1,0,0)" clip-path="url(#2940634101440784clip-0)"/><g transform="matrix(1,0,0,1,0,0)"><text x="34" y="55.07" style="fill: rgb(64,64,64); fill-opacity: 1.0; font-family: sans-serif; font-size: 12px; " clip-path="url(#2940634101440784clip-0)">4,500</text></g><line x1="69" y1="53.23" x2="71" y2="53.23" style="stroke-width: 0.5;stroke: rgb(128,128,128);stroke-opacity: 1.0;shape-rendering:crispEdges;" transform="matrix(1,0,0,1,0,0)" clip-path="url(#2940634101440784clip-0)"/><g transform="matrix(1,0,0,1,0,0)"><text x="34" y="13.76" style="fill: rgb(64,64,64); fill-opacity: 1.0; font-family: sans-serif; font-size: 12px; " clip-path="url(#2940634101440784clip-0)">5,000</text></g><line x1="69" y1="11.92" x2="71" y2="11.92" style="stroke-width: 0.5;stroke: rgb(128,128,128);stroke-opacity: 1.0;shape-rendering:crispEdges;" transform="matrix(1,0,0,1,0,0)" clip-path="url(#2940634101440784clip-0)"/><g style="fill: rgb(64,64,64); fill-opacity: 1.0; stroke: none" transform="matrix(0,-1,1,0,-197.5,237.5)" clip-path="url(#2940634101440784clip-1)"><path d="M -18.05 209.53 C -19.47 209.53 -20.64 210.02 -21.52 210.95 C -22.42 211.92 -22.94 213.36 -22.94 214.87 C -22.94 216.41 -22.42 217.84 -21.52 218.81 C -20.62 219.77 -19.48 220.23 -18.03 220.23 C -16.56 220.23 -15.42 219.77 -14.55 218.81 C -13.66 217.87 -13.11 216.39 -13.11 214.95 C -13.11 213.36 -13.62 211.91 -14.55 210.95 C -15.44 209.98 -16.56 209.53 -18.05 209.53 M -18.05 209.53 M -18.03 211.33 C -16.3 211.33 -15.22 212.72 -15.22 214.94 C -15.22 217.03 -16.34 218.44 -18.03 218.44 C -19.73 218.44 -20.84 217.03 -20.84 214.87 C -20.84 212.72 -19.73 211.33 -18.03 211.33 M -18.03 211.33 M -5.3 215.17 C -5.44 213.33 -6.65 212.22 -8.56 212.22 C -10.83 212.22 -12.14 213.7 -12.14 216.28 C -12.14 218.77 -10.83 220.23 -8.59 220.23 C -6.75 220.23 -5.48 219.09 -5.3 217.28 L -7.17 217.28 C -7.42 218.27 -7.81 218.64 -8.59 218.64 C -9.58 218.64 -10.17 217.77 -10.17 216.28 C -10.17 215.55 -10.03 214.89 -9.8 214.45 C -9.58 214.03 -9.14 213.8 -8.58 213.8 C -7.78 213.8 -7.4 214.19 -7.17 215.17 L -5.3 215.17 M -5.3 215.17 M 2.49 215.17 C 2.35 213.33 1.13 212.22 -0.78 212.22 C -3.04 212.22 -4.36 213.7 -4.36 216.28 C -4.36 218.77 -3.04 220.23 -0.81 220.23 C 1.04 220.23 2.3 219.09 2.49 217.28 L 0.61 217.28 C 0.36 218.27 -0.03 218.64 -0.81 218.64 C -1.79 218.64 -2.39 217.77 -2.39 216.28 C -2.39 215.55 -2.25 214.89 -2.01 214.45 C -1.79 214.03 -1.36 213.8 -0.79 213.8 C 0 213.8 0.38 214.19 0.61 215.17 L 2.49 215.17 M 2.49 215.17 M 10.54 219.91 L 10.54 212.34 L 8.57 212.34 L 8.57 217.08 C 8.57 217.97 7.96 218.56 6.99 218.56 C 6.15 218.56 5.73 218.11 5.73 217.2 L 5.73 212.34 L 3.77 212.34 L 3.77 217.61 C 3.77 219.3 4.68 220.23 6.3 220.23 C 7.33 220.23 8.01 219.86 8.57 219.02 L 8.57 219.91 L 10.54 219.91 M 10.54 219.91 M 12.39 212.34 L 12.39 219.91 L 14.36 219.91 L 14.36 215.89 C 14.36 214.73 14.94 214.17 16.08 214.17 C 16.3 214.17 16.42 214.19 16.7 214.22 L 16.7 212.23 C 16.58 212.22 16.55 212.22 16.45 212.22 C 15.56 212.22 14.8 212.81 14.36 213.83 L 14.36 212.34 L 12.39 212.34 M 12.39 212.34 M 17.83 212.34 L 17.83 219.91 L 19.8 219.91 L 19.8 215.89 C 19.8 214.73 20.38 214.17 21.52 214.17 C 21.74 214.17 21.87 214.19 22.15 214.22 L 22.15 212.23 C 22.02 212.22 21.99 212.22 21.9 212.22 C 21.01 212.22 20.24 212.81 19.8 213.83 L 19.8 212.34 L 17.83 212.34 M 17.83 212.34 M 29.75 216.75 C 29.75 216.58 29.75 216.5 29.75 216.41 C 29.75 215.66 29.64 214.95 29.47 214.42 C 28.95 213.05 27.73 212.22 26.22 212.22 C 24.05 212.22 22.72 213.78 22.72 216.33 C 22.72 218.75 24.03 220.23 26.17 220.23 C 27.86 220.23 29.23 219.28 29.67 217.78 L 27.73 217.78 C 27.5 218.37 26.95 218.73 26.25 218.73 C 25.69 218.73 25.23 218.5 24.95 218.08 C 24.77 217.8 24.7 217.45 24.67 216.75 L 29.75 216.75 M 29.75 216.75 M 24.7 215.44 C 24.83 214.28 25.31 213.72 26.19 213.72 C 27.08 213.72 27.61 214.31 27.72 215.44 L 24.7 215.44 M 24.7 215.44 M 31.06 212.34 L 31.06 219.91 L 33.03 219.91 L 33.03 215.37 C 33.03 214.47 33.64 213.89 34.61 213.89 C 35.46 213.89 35.88 214.34 35.88 215.25 L 35.88 219.91 L 37.83 219.91 L 37.83 214.84 C 37.83 213.16 36.92 212.22 35.3 212.22 C 34.28 212.22 33.6 212.58 33.03 213.44 L 33.03 212.34 L 31.06 212.34 M 31.06 212.34 M 46.06 215.17 C 45.92 213.33 44.7 212.22 42.79 212.22 C 40.53 212.22 39.21 213.7 39.21 216.28 C 39.21 218.77 40.53 220.23 42.76 220.23 C 44.6 220.23 45.87 219.09 46.06 217.28 L 44.18 217.28 C 43.93 218.27 43.54 218.64 42.76 218.64 C 41.78 218.64 41.18 217.77 41.18 216.28 C 41.18 215.55 41.32 214.89 41.56 214.45 C 41.78 214.03 42.21 213.8 42.78 213.8 C 43.57 213.8 43.95 214.19 44.18 215.17 L 46.06 215.17 M 46.06 215.17 M 53.87 216.75 C 53.87 216.58 53.87 216.5 53.87 216.41 C 53.87 215.66 53.76 214.95 53.59 214.42 C 53.07 213.05 51.86 212.22 50.34 212.22 C 48.17 212.22 46.84 213.78 46.84 216.33 C 46.84 218.75 48.15 220.23 50.29 220.23 C 51.98 220.23 53.36 219.28 53.79 217.78 L 51.86 217.78 C 51.62 218.37 51.07 218.73 50.37 218.73 C 49.81 218.73 49.36 218.5 49.07 218.08 C 48.89 217.8 48.82 217.45 48.79 216.75 L 53.87 216.75 M 53.87 216.75 M 48.82 215.44 C 48.95 214.28 49.43 213.72 50.31 213.72 C 51.2 213.72 51.73 214.31 51.84 215.44 L 48.82 215.44 M 48.82 215.44 M 61.37 214.78 C 61.36 213.19 60.12 212.22 58.09 212.22 C 56.17 212.22 54.98 213.19 54.98 214.73 C 54.98 215.25 55.14 215.67 55.41 215.97 C 55.67 216.23 55.91 216.36 56.64 216.61 L 58.97 217.33 C 59.47 217.48 59.62 217.64 59.62 217.95 C 59.62 218.41 59.09 218.69 58.17 218.69 C 57.66 218.69 57.26 218.61 57.01 218.42 C 56.8 218.27 56.72 218.11 56.64 217.7 L 54.72 217.7 C 54.78 219.37 56 220.23 58.28 220.23 C 59.34 220.23 60.14 220 60.7 219.56 C 61.25 219.11 61.59 218.41 61.59 217.67 C 61.59 216.69 61.11 216.06 60.11 215.77 L 57.62 215.05 C 57.08 214.87 56.94 214.77 56.94 214.45 C 56.94 214.05 57.39 213.77 58.08 213.77 C 59.01 213.77 59.48 214.09 59.5 214.78 L 61.37 214.78 M 61.37 214.78"/></g><line x1="75" y1="10" x2="75" y2="425" style="stroke-width: 0.5;stroke: rgb(150,150,150);stroke-opacity: 0.7;stroke-dasharray: 2.0, 2.0;shape-rendering:crispEdges;" transform="matrix(1,0,0,1,0,0)" clip-path="url(#2940634101440784clip-2)"/><line x1="129.84" y1="10" x2="129.84" y2="425" style="stroke-width: 0.5;stroke: rgb(150,150,150);stroke-opacity: 0.7;stroke-dasharray: 2.0, 2.0;shape-rendering:crispEdges;" transform="matrix(1,0,0,1,0,0)" clip-path="url(#2940634101440784clip-2)"/><line x1="184.69" y1="10" x2="184.69" y2="425" style="stroke-width: 0.5;stroke: rgb(150,150,150);stroke-opacity: 0.7;stroke-dasharray: 2.0, 2.0;shape-rendering:crispEdges;" transform="matrix(1,0,0,1,0,0)" clip-path="url(#2940634101440784clip-2)"/><line x1="239.53" y1="10" x2="239.53" y2="425" style="stroke-width: 0.5;stroke: rgb(150,150,150);stroke-opacity: 0.7;stroke-dasharray: 2.0, 2.0;shape-rendering:crispEdges;" transform="matrix(1,0,0,1,0,0)" clip-path="url(#2940634101440784clip-2)"/><line x1="294.38" y1="10" x2="294.38" y2="425" style="stroke-width: 0.5;stroke: rgb(150,150,150);stroke-opacity: 0.7;stroke-dasharray: 2.0, 2.0;shape-rendering:crispEdges;" transform="matrix(1,0,0,1,0,0)" clip-path="url(#2940634101440784clip-2)"/><line x1="349.22" y1="10" x2="349.22" y2="425" style="stroke-width: 0.5;stroke: rgb(150,150,150);stroke-opacity: 0.7;stroke-dasharray: 2.0, 2.0;shape-rendering:crispEdges;" transform="matrix(1,0,0,1,0,0)" clip-path="url(#2940634101440784clip-2)"/><line x1="404.06" y1="10" x2="404.06" y2="425" style="stroke-width: 0.5;stroke: rgb(150,150,150);stroke-opacity: 0.7;stroke-dasharray: 2.0, 2.0;shape-rendering:crispEdges;" transform="matrix(1,0,0,1,0,0)" clip-path="url(#2940634101440784clip-2)"/><line x1="75" y1="10" x2="75" y2="425" style="stroke-width: 0.5;stroke: rgb(0,0,0);stroke-opacity: 0.7;shape-rendering:crispEdges;" transform="matrix(1,0,0,1,0,0)" clip-path="url(#2940634101440784clip-2)"/><line x1="75" y1="383.69" x2="409" y2="383.69" style="stroke-width: 0.5;stroke: rgb(150,150,150);stroke-opacity: 0.7;stroke-dasharray: 2.0, 2.0;shape-rendering:crispEdges;" transform="matrix(1,0,0,1,0,0)" clip-path="url(#2940634101440784clip-2)"/><line x1="75" y1="342.38" x2="409" y2="342.38" style="stroke-width: 0.5;stroke: rgb(150,150,150);stroke-opacity: 0.7;stroke-dasharray: 2.0, 2.0;shape-rendering:crispEdges;" transform="matrix(1,0,0,1,0,0)" clip-path="url(#2940634101440784clip-2)"/><line x1="75" y1="301.08" x2="409" y2="301.08" style="stroke-width: 0.5;stroke: rgb(150,150,150);stroke-opacity: 0.7;stroke-dasharray: 2.0, 2.0;shape-rendering:crispEdges;" transform="matrix(1,0,0,1,0,0)" clip-path="url(#2940634101440784clip-2)"/><line x1="75" y1="259.77" x2="409" y2="259.77" style="stroke-width: 0.5;stroke: rgb(150,150,150);stroke-opacity: 0.7;stroke-dasharray: 2.0, 2.0;shape-rendering:crispEdges;" transform="matrix(1,0,0,1,0,0)" clip-path="url(#2940634101440784clip-2)"/><line x1="75" y1="218.46" x2="409" y2="218.46" style="stroke-width: 0.5;stroke: rgb(150,150,150);stroke-opacity: 0.7;stroke-dasharray: 2.0, 2.0;shape-rendering:crispEdges;" transform="matrix(1,0,0,1,0,0)" clip-path="url(#2940634101440784clip-2)"/><line x1="75" y1="177.15" x2="409" y2="177.15" style="stroke-width: 0.5;stroke: rgb(150,150,150);stroke-opacity: 0.7;stroke-dasharray: 2.0, 2.0;shape-rendering:crispEdges;" transform="matrix(1,0,0,1,0,0)" clip-path="url(#2940634101440784clip-2)"/><line x1="75" y1="135.84" x2="409" y2="135.84" style="stroke-width: 0.5;stroke: rgb(150,150,150);stroke-opacity: 0.7;stroke-dasharray: 2.0, 2.0;shape-rendering:crispEdges;" transform="matrix(1,0,0,1,0,0)" clip-path="url(#2940634101440784clip-2)"/><line x1="75" y1="94.53" x2="409" y2="94.53" style="stroke-width: 0.5;stroke: rgb(150,150,150);stroke-opacity: 0.7;stroke-dasharray: 2.0, 2.0;shape-rendering:crispEdges;" transform="matrix(1,0,0,1,0,0)" clip-path="url(#2940634101440784clip-2)"/><line x1="75" y1="53.23" x2="409" y2="53.23" style="stroke-width: 0.5;stroke: rgb(150,150,150);stroke-opacity: 0.7;stroke-dasharray: 2.0, 2.0;shape-rendering:crispEdges;" transform="matrix(1,0,0,1,0,0)" clip-path="url(#2940634101440784clip-2)"/><line x1="75" y1="11.92" x2="409" y2="11.92" style="stroke-width: 0.5;stroke: rgb(150,150,150);stroke-opacity: 0.7;stroke-dasharray: 2.0, 2.0;shape-rendering:crispEdges;" transform="matrix(1,0,0,1,0,0)" clip-path="url(#2940634101440784clip-2)"/><line x1="75" y1="425" x2="409" y2="425" style="stroke-width: 0.5;stroke: rgb(0,0,0);stroke-opacity: 0.7;shape-rendering:crispEdges;" transform="matrix(1,0,0,1,0,0)" clip-path="url(#2940634101440784clip-2)"/><rect x="75" y="29.76" width="1" height="395.24" style="fill: url(#2940634101440784gp1); fill-opacity: 0.7" transform="matrix(1,0,0,1,0,0)" clip-path="url(#2940634101440784clip-2)"/><rect x="76" y="29.76" width="2" height="395.24" style="fill: url(#2940634101440784gp2); fill-opacity: 0.7" transform="matrix(1,0,0,1,0,0)" clip-path="url(#2940634101440784clip-2)"/><rect x="78" y="29.76" width="0.18" height="395.24" style="fill: url(#2940634101440784gp3); fill-opacity: 0.7" transform="matrix(1,0,0,1,0,0)" clip-path="url(#2940634101440784clip-2)"/><rect x="84.54" y="336.52" width="0.46" height="88.48" style="fill: url(#2940634101440784gp4); fill-opacity: 0.7" transform="matrix(1,0,0,1,0,0)" clip-path="url(#2940634101440784clip-2)"/><rect x="85" y="336.52" width="2" height="88.48" style="fill: url(#2940634101440784gp6); fill-opacity: 0.7" transform="matrix(1,0,0,1,0,0)" clip-path="url(#2940634101440784clip-2)"/><rect x="87" y="336.52" width="0.72" height="88.48" style="fill: url(#2940634101440784gp7); fill-opacity: 0.7" transform="matrix(1,0,0,1,0,0)" clip-path="url(#2940634101440784clip-2)"/><rect x="94" y="396.41" width="1" height="28.59" style="fill: url(#2940634101440784gp9); fill-opacity: 0.7" transform="matrix(1,0,0,1,0,0)" clip-path="url(#2940634101440784clip-2)"/><rect x="95" y="396.41" width="2" height="28.59" style="fill: url(#2940634101440784gp10); fill-opacity: 0.7" transform="matrix(1,0,0,1,0,0)" clip-path="url(#2940634101440784clip-2)"/><rect x="97" y="396.41" width="0.27" height="28.59" style="fill: url(#2940634101440784gp11); fill-opacity: 0.7" transform="matrix(1,0,0,1,0,0)" clip-path="url(#2940634101440784clip-2)"/><rect x="106.81" y="404.18" width="0.19" height="20.82" style="fill: url(#2940634101440784gp12); fill-opacity: 0.7" transform="matrix(1,0,0,1,0,0)" clip-path="url(#2940634101440784clip-2)"/><rect x="107" y="404.18" width="2" height="20.82" style="fill: url(#2940634101440784gp14); fill-opacity: 0.7" transform="matrix(1,0,0,1,0,0)" clip-path="url(#2940634101440784clip-2)"/><rect x="109" y="404.18" width="0.99" height="20.82" style="fill: url(#2940634101440784gp15); fill-opacity: 0.7" transform="matrix(1,0,0,1,0,0)" clip-path="url(#2940634101440784clip-2)"/><rect x="116.35" y="418.8" width="0.65" height="6.2" style="fill: url(#2940634101440784gp16); fill-opacity: 0.7" transform="matrix(1,0,0,1,0,0)" clip-path="url(#2940634101440784clip-2)"/><rect x="117" y="418.8" width="2" height="6.2" style="fill: url(#2940634101440784gp18); fill-opacity: 0.7" transform="matrix(1,0,0,1,0,0)" clip-path="url(#2940634101440784clip-2)"/><rect x="119" y="418.8" width="0.53" height="6.2" style="fill: url(#2940634101440784gp19); fill-opacity: 0.7" transform="matrix(1,0,0,1,0,0)" clip-path="url(#2940634101440784clip-2)"/><rect x="129" y="423.18" width="1" height="1.82" style="fill: url(#2940634101440784gp21); fill-opacity: 0.7" transform="matrix(1,0,0,1,0,0)" clip-path="url(#2940634101440784clip-2)"/><rect x="130" y="423.18" width="2" height="1.82" style="fill: url(#2940634101440784gp22); fill-opacity: 0.7" transform="matrix(1,0,0,1,0,0)" clip-path="url(#2940634101440784clip-2)"/><rect x="132" y="423.18" width="0.26" height="1.82" style="fill: url(#2940634101440784gp23); fill-opacity: 0.7" transform="matrix(1,0,0,1,0,0)" clip-path="url(#2940634101440784clip-2)"/><rect x="138.62" y="424.67" width="0.38" height="0.33" style="fill: url(#2940634101440784gp24); fill-opacity: 0.7" transform="matrix(1,0,0,1,0,0)" clip-path="url(#2940634101440784clip-2)"/><rect x="139" y="424.67" width="2" height="0.33" style="fill: url(#2940634101440784gp26); fill-opacity: 0.7" transform="matrix(1,0,0,1,0,0)" clip-path="url(#2940634101440784clip-2)"/><rect x="141" y="424.67" width="0.8" height="0.33" style="fill: url(#2940634101440784gp27); fill-opacity: 0.7" transform="matrix(1,0,0,1,0,0)" clip-path="url(#2940634101440784clip-2)"/><rect x="151.34" y="424.59" width="0.66" height="0.41" style="fill: url(#2940634101440784gp28); fill-opacity: 0.7" transform="matrix(1,0,0,1,0,0)" clip-path="url(#2940634101440784clip-2)"/><rect x="152" y="424.59" width="2" height="0.41" style="fill: url(#2940634101440784gp30); fill-opacity: 0.7" transform="matrix(1,0,0,1,0,0)" clip-path="url(#2940634101440784clip-2)"/><rect x="154" y="424.59" width="0.52" height="0.41" style="fill: url(#2940634101440784gp31); fill-opacity: 0.7" transform="matrix(1,0,0,1,0,0)" clip-path="url(#2940634101440784clip-2)"/><rect x="160.89" y="424.67" width="0.11" height="0.33" style="fill: url(#2940634101440784gp32); fill-opacity: 0.7" transform="matrix(1,0,0,1,0,0)" clip-path="url(#2940634101440784clip-2)"/><rect x="161" y="424.67" width="1" height="0.33" style="fill: url(#2940634101440784gp33); fill-opacity: 0.7" transform="matrix(1,0,0,1,0,0)" clip-path="url(#2940634101440784clip-2)"/><rect x="162" y="424.67" width="1" height="0.33" style="fill: url(#2940634101440784gp34); fill-opacity: 0.7" transform="matrix(1,0,0,1,0,0)" clip-path="url(#2940634101440784clip-2)"/><rect x="163" y="424.67" width="1.07" height="0.33" style="fill: url(#2940634101440784gp35); fill-opacity: 0.7" transform="matrix(1,0,0,1,0,0)" clip-path="url(#2940634101440784clip-2)"/><rect x="173.61" y="424.83" width="0.39" height="0.17" style="fill: url(#2940634101440784gp36); fill-opacity: 0.7" transform="matrix(1,0,0,1,0,0)" clip-path="url(#2940634101440784clip-2)"/><rect x="174" y="424.83" width="2" height="0.17" style="fill: url(#2940634101440784gp38); fill-opacity: 0.7" transform="matrix(1,0,0,1,0,0)" clip-path="url(#2940634101440784clip-2)"/><rect x="176" y="424.83" width="0.79" height="0.17" style="fill: url(#2940634101440784gp39); fill-opacity: 0.7" transform="matrix(1,0,0,1,0,0)" clip-path="url(#2940634101440784clip-2)"/><rect x="192.7" y="424.92" width="0.3" height="0.08" style="fill: url(#2940634101440784gp40); fill-opacity: 0.7" transform="matrix(1,0,0,1,0,0)" clip-path="url(#2940634101440784clip-2)"/><rect x="193" y="424.92" width="2" height="0.08" style="fill: url(#2940634101440784gp42); fill-opacity: 0.7" transform="matrix(1,0,0,1,0,0)" clip-path="url(#2940634101440784clip-2)"/><rect x="195" y="424.92" width="0.88" height="0.08" style="fill: url(#2940634101440784gp43); fill-opacity: 0.7" transform="matrix(1,0,0,1,0,0)" clip-path="url(#2940634101440784clip-2)"/><rect x="205.42" y="424.75" width="0.58" height="0.25" style="fill: url(#2940634101440784gp44); fill-opacity: 0.7" transform="matrix(1,0,0,1,0,0)" clip-path="url(#2940634101440784clip-2)"/><rect x="206" y="424.75" width="2" height="0.25" style="fill: url(#2940634101440784gp46); fill-opacity: 0.7" transform="matrix(1,0,0,1,0,0)" clip-path="url(#2940634101440784clip-2)"/><rect x="208" y="424.75" width="0.6" height="0.25" style="fill: url(#2940634101440784gp47); fill-opacity: 0.7" transform="matrix(1,0,0,1,0,0)" clip-path="url(#2940634101440784clip-2)"/><rect x="389.91" y="424.92" width="0.09" height="0.08" style="fill: url(#2940634101440784gp48); fill-opacity: 0.7" transform="matrix(1,0,0,1,0,0)" clip-path="url(#2940634101440784clip-2)"/><rect x="390" y="424.92" width="1" height="0.08" style="fill: url(#2940634101440784gp49); fill-opacity: 0.7" transform="matrix(1,0,0,1,0,0)" clip-path="url(#2940634101440784clip-2)"/><rect x="391" y="424.92" width="1" height="0.08" style="fill: url(#2940634101440784gp50); fill-opacity: 0.7" transform="matrix(1,0,0,1,0,0)" clip-path="url(#2940634101440784clip-2)"/><rect x="392" y="424.92" width="1.1" height="0.08" style="fill: url(#2940634101440784gp51); fill-opacity: 0.7" transform="matrix(1,0,0,1,0,0)" clip-path="url(#2940634101440784clip-2)"/><rect x="75" y="10" width="334" height="415" style="stroke-width: 0.5;stroke: rgb(0,0,0);stroke-opacity: 1.0;shape-rendering:crispEdges;; fill: none" transform="matrix(1,0,0,1,0,0)" clip-path="url(#2940634101440784clip-0)"/></svg>
