<!DOCTYPE svg PUBLIC "-//W3C//DTD SVG 1.1//EN" "http://www.w3.org/Graphics/SVG/1.1/DTD/svg11.dtd">
<svg xmlns="http://www.w3.org/2000/svg" xmlns:xlink="http://www.w3.org/1999/xlink" xmlns:jfreesvg="http://www.jfree.org/jfreesvg/svg" width="421" height="476" text-rendering="auto" shape-rendering="auto">
<defs><linearGradient id="2940541707386891gp17" x1="124" y1="0" x2="125" y2="0" gradientUnits="userSpaceOnUse"><stop offset="0%" style="stop-color: rgb(255,255,255);"/><stop offset="100%" style="stop-color: rgb(255,85,85);"/></linearGradient>
<linearGradient id="2940541707386891gp42" x1="347" y1="0" x2="349" y2="0" gradientUnits="userSpaceOnUse"><stop offset="0%" style="stop-color: rgb(255,85,85);"/><stop offset="100%" style="stop-color: rgb(255,121,121);"/></linearGradient>
<linearGradient id="2940541707386891gp6" x1="79" y1="0" x2="81" y2="0" gradientUnits="userSpaceOnUse"><stop offset="0%" style="stop-color: rgb(255,85,85);"/><stop offset="100%" style="stop-color: rgb(255,121,121);"/></linearGradient>
<linearGradient id="2940541707386891gp10" x1="95" y1="0" x2="97" y2="0" gradientUnits="userSpaceOnUse"><stop offset="0%" style="stop-color: rgb(255,85,85);"/><stop offset="100%" style="stop-color: rgb(255,121,121);"/></linearGradient>
<linearGradient id="2940541707386891gp26" x1="154" y1="0" x2="156" y2="0" gradientUnits="userSpaceOnUse"><stop offset="0%" style="stop-color: rgb(255,85,85);"/><stop offset="100%" style="stop-color: rgb(255,121,121);"/></linearGradient>
<linearGradient id="2940541707386891gp38" x1="272" y1="0" x2="274" y2="0" gradientUnits="userSpaceOnUse"><stop offset="0%" style="stop-color: rgb(255,85,85);"/><stop offset="100%" style="stop-color: rgb(255,121,121);"/></linearGradient>
<linearGradient id="2940541707386891gp34" x1="197" y1="0" x2="199" y2="0" gradientUnits="userSpaceOnUse"><stop offset="0%" style="stop-color: rgb(255,85,85);"/><stop offset="100%" style="stop-color: rgb(255,121,121);"/></linearGradient>
<linearGradient id="2940541707386891gp20" x1="137.08" y1="0" x2="137" y2="0" gradientUnits="userSpaceOnUse"><stop offset="0%" style="stop-color: rgb(255,85,85);"/><stop offset="100%" style="stop-color: rgb(255,255,255);"/></linearGradient>
<linearGradient id="2940541707386891gp37" x1="272" y1="0" x2="272" y2="0" gradientUnits="userSpaceOnUse"><stop offset="0%" style="stop-color: rgb(255,255,255);"/><stop offset="100%" style="stop-color: rgb(255,85,85);"/></linearGradient>
<linearGradient id="2940541707386891gp15" x1="110" y1="0" x2="110.87" y2="0" gradientUnits="userSpaceOnUse"><stop offset="0%" style="stop-color: rgb(255,121,121);"/><stop offset="100%" style="stop-color: rgb(255,85,85);"/></linearGradient>
<linearGradient id="2940541707386891gp1" x1="65" y1="0" x2="66" y2="0" gradientUnits="userSpaceOnUse"><stop offset="0%" style="stop-color: rgb(255,255,255);"/><stop offset="100%" style="stop-color: rgb(255,85,85);"/></linearGradient>
<linearGradient id="2940541707386891gp9" x1="95" y1="0" x2="95" y2="0" gradientUnits="userSpaceOnUse"><stop offset="0%" style="stop-color: rgb(255,255,255);"/><stop offset="100%" style="stop-color: rgb(255,85,85);"/></linearGradient>
<linearGradient id="2940541707386891gp8" x1="94.49" y1="0" x2="95" y2="0" gradientUnits="userSpaceOnUse"><stop offset="0%" style="stop-color: rgb(255,85,85);"/><stop offset="100%" style="stop-color: rgb(255,255,255);"/></linearGradient>
<linearGradient id="2940541707386891gp41" x1="347" y1="0" x2="347" y2="0" gradientUnits="userSpaceOnUse"><stop offset="0%" style="stop-color: rgb(255,255,255);"/><stop offset="100%" style="stop-color: rgb(255,85,85);"/></linearGradient>
<linearGradient id="2940541707386891gp47" x1="392" y1="0" x2="392.62" y2="0" gradientUnits="userSpaceOnUse"><stop offset="0%" style="stop-color: rgb(255,121,121);"/><stop offset="100%" style="stop-color: rgb(255,85,85);"/></linearGradient>
<linearGradient id="2940541707386891gp23" x1="140" y1="0" x2="140.35" y2="0" gradientUnits="userSpaceOnUse"><stop offset="0%" style="stop-color: rgb(255,121,121);"/><stop offset="100%" style="stop-color: rgb(255,85,85);"/></linearGradient>
<linearGradient id="2940541707386891gp28" x1="182.94" y1="0" x2="183" y2="0" gradientUnits="userSpaceOnUse"><stop offset="0%" style="stop-color: rgb(255,85,85);"/><stop offset="100%" style="stop-color: rgb(255,255,255);"/></linearGradient>
<linearGradient id="2940541707386891gp24" x1="153.46" y1="0" x2="154" y2="0" gradientUnits="userSpaceOnUse"><stop offset="0%" style="stop-color: rgb(255,85,85);"/><stop offset="100%" style="stop-color: rgb(255,255,255);"/></linearGradient>
<linearGradient id="2940541707386891gp30" x1="184" y1="0" x2="186" y2="0" gradientUnits="userSpaceOnUse"><stop offset="0%" style="stop-color: rgb(255,85,85);"/><stop offset="100%" style="stop-color: rgb(255,121,121);"/></linearGradient>
<linearGradient id="2940541707386891gp21" x1="137" y1="0" x2="138" y2="0" gradientUnits="userSpaceOnUse"><stop offset="0%" style="stop-color: rgb(255,255,255);"/><stop offset="100%" style="stop-color: rgb(255,85,85);"/></linearGradient>
<linearGradient id="2940541707386891gp36" x1="271.4" y1="0" x2="272" y2="0" gradientUnits="userSpaceOnUse"><stop offset="0%" style="stop-color: rgb(255,85,85);"/><stop offset="100%" style="stop-color: rgb(255,255,255);"/></linearGradient>
<linearGradient id="2940541707386891gp16" x1="123.97" y1="0" x2="124" y2="0" gradientUnits="userSpaceOnUse"><stop offset="0%" style="stop-color: rgb(255,85,85);"/><stop offset="100%" style="stop-color: rgb(255,255,255);"/></linearGradient>
<linearGradient id="2940541707386891gp18" x1="125" y1="0" x2="127" y2="0" gradientUnits="userSpaceOnUse"><stop offset="0%" style="stop-color: rgb(255,85,85);"/><stop offset="100%" style="stop-color: rgb(255,121,121);"/></linearGradient>
<linearGradient id="2940541707386891gp40" x1="346.75" y1="0" x2="347" y2="0" gradientUnits="userSpaceOnUse"><stop offset="0%" style="stop-color: rgb(255,85,85);"/><stop offset="100%" style="stop-color: rgb(255,255,255);"/></linearGradient>
<linearGradient id="2940541707386891gp19" x1="127" y1="0" x2="127.25" y2="0" gradientUnits="userSpaceOnUse"><stop offset="0%" style="stop-color: rgb(255,121,121);"/><stop offset="100%" style="stop-color: rgb(255,85,85);"/></linearGradient>
<linearGradient id="2940541707386891gp44" x1="389.34" y1="0" x2="390" y2="0" gradientUnits="userSpaceOnUse"><stop offset="0%" style="stop-color: rgb(255,85,85);"/><stop offset="100%" style="stop-color: rgb(255,255,255);"/></linearGradient>
<linearGradient id="2940541707386891gp31" x1="186" y1="0" x2="186.22" y2="0" gradientUnits="userSpaceOnUse"><stop offset="0%" style="stop-color: rgb(255,121,121);"/><stop offset="100%" style="stop-color: rgb(255,85,85);"/></linearGradient>
<linearGradient id="2940541707386891gp22" x1="138" y1="0" x2="140" y2="0" gradientUnits="userSpaceOnUse"><stop offset="0%" style="stop-color: rgb(255,85,85);"/><stop offset="100%" style="stop-color: rgb(255,121,121);"/></linearGradient>
<linearGradient id="2940541707386891gp46" x1="390" y1="0" x2="392" y2="0" gradientUnits="userSpaceOnUse"><stop offset="0%" style="stop-color: rgb(255,85,85);"/><stop offset="100%" style="stop-color: rgb(255,121,121);"/></linearGradient>
<linearGradient id="2940541707386891gp25" x1="154" y1="0" x2="154" y2="0" gradientUnits="userSpaceOnUse"><stop offset="0%" style="stop-color: rgb(255,255,255);"/><stop offset="100%" style="stop-color: rgb(255,85,85);"/></linearGradient>
<linearGradient id="2940541707386891gp2" x1="66" y1="0" x2="68" y2="0" gradientUnits="userSpaceOnUse"><stop offset="0%" style="stop-color: rgb(255,85,85);"/><stop offset="100%" style="stop-color: rgb(255,121,121);"/></linearGradient>
<linearGradient id="2940541707386891gp27" x1="156" y1="0" x2="156.73" y2="0" gradientUnits="userSpaceOnUse"><stop offset="0%" style="stop-color: rgb(255,121,121);"/><stop offset="100%" style="stop-color: rgb(255,85,85);"/></linearGradient>
<linearGradient id="2940541707386891gp5" x1="78" y1="0" x2="79" y2="0" gradientUnits="userSpaceOnUse"><stop offset="0%" style="stop-color: rgb(255,255,255);"/><stop offset="100%" style="stop-color: rgb(255,85,85);"/></linearGradient>
<linearGradient id="2940541707386891gp13" x1="108" y1="0" x2="108" y2="0" gradientUnits="userSpaceOnUse"><stop offset="0%" style="stop-color: rgb(255,255,255);"/><stop offset="100%" style="stop-color: rgb(255,85,85);"/></linearGradient>
<linearGradient id="2940541707386891gp7" x1="81" y1="0" x2="81.38" y2="0" gradientUnits="userSpaceOnUse"><stop offset="0%" style="stop-color: rgb(255,121,121);"/><stop offset="100%" style="stop-color: rgb(255,85,85);"/></linearGradient>
<linearGradient id="2940541707386891gp12" x1="107.59" y1="0" x2="108" y2="0" gradientUnits="userSpaceOnUse"><stop offset="0%" style="stop-color: rgb(255,85,85);"/><stop offset="100%" style="stop-color: rgb(255,255,255);"/></linearGradient>
<linearGradient id="2940541707386891gp39" x1="274" y1="0" x2="274.68" y2="0" gradientUnits="userSpaceOnUse"><stop offset="0%" style="stop-color: rgb(255,121,121);"/><stop offset="100%" style="stop-color: rgb(255,85,85);"/></linearGradient>
<linearGradient id="2940541707386891gp14" x1="108" y1="0" x2="110" y2="0" gradientUnits="userSpaceOnUse"><stop offset="0%" style="stop-color: rgb(255,85,85);"/><stop offset="100%" style="stop-color: rgb(255,121,121);"/></linearGradient>
<linearGradient id="2940541707386891gp45" x1="390" y1="0" x2="390" y2="0" gradientUnits="userSpaceOnUse"><stop offset="0%" style="stop-color: rgb(255,255,255);"/><stop offset="100%" style="stop-color: rgb(255,85,85);"/></linearGradient>
<linearGradient id="2940541707386891gp32" x1="196.05" y1="0" x2="196" y2="0" gradientUnits="userSpaceOnUse"><stop offset="0%" style="stop-color: rgb(255,85,85);"/><stop offset="100%" style="stop-color: rgb(255,255,255);"/></linearGradient>
<linearGradient id="2940541707386891gp4" x1="78.1" y1="0" x2="78" y2="0" gradientUnits="userSpaceOnUse"><stop offset="0%" style="stop-color: rgb(255,85,85);"/><stop offset="100%" style="stop-color: rgb(255,255,255);"/></linearGradient>
<linearGradient id="2940541707386891gp35" x1="199" y1="0" x2="199.32" y2="0" gradientUnits="userSpaceOnUse"><stop offset="0%" style="stop-color: rgb(255,121,121);"/><stop offset="100%" style="stop-color: rgb(255,85,85);"/></linearGradient>
<linearGradient id="2940541707386891gp33" x1="196" y1="0" x2="197" y2="0" gradientUnits="userSpaceOnUse"><stop offset="0%" style="stop-color: rgb(255,255,255);"/><stop offset="100%" style="stop-color: rgb(255,85,85);"/></linearGradient>
<linearGradient id="2940541707386891gp43" x1="349" y1="0" x2="350.03" y2="0" gradientUnits="userSpaceOnUse"><stop offset="0%" style="stop-color: rgb(255,121,121);"/><stop offset="100%" style="stop-color: rgb(255,85,85);"/></linearGradient>
<linearGradient id="2940541707386891gp29" x1="183" y1="0" x2="184" y2="0" gradientUnits="userSpaceOnUse"><stop offset="0%" style="stop-color: rgb(255,255,255);"/><stop offset="100%" style="stop-color: rgb(255,85,85);"/></linearGradient>
<linearGradient id="2940541707386891gp3" x1="68" y1="0" x2="68.28" y2="0" gradientUnits="userSpaceOnUse"><stop offset="0%" style="stop-color: rgb(255,121,121);"/><stop offset="100%" style="stop-color: rgb(255,85,85);"/></linearGradient>
<linearGradient id="2940541707386891gp0" x1="65" y1="0" x2="65" y2="0" gradientUnits="userSpaceOnUse"><stop offset="0%" style="stop-color: rgb(255,85,85);"/><stop offset="100%" style="stop-color: rgb(255,255,255);"/></linearGradient>
<linearGradient id="2940541707386891gp11" x1="97" y1="0" x2="97.76" y2="0" gradientUnits="userSpaceOnUse"><stop offset="0%" style="stop-color: rgb(255,121,121);"/><stop offset="100%" style="stop-color: rgb(255,85,85);"/></linearGradient>
<clipPath id="2940541707386891clip-0"><path d="M 0 0 L 421 0 L 421 476 L 0 476 L 0 0 M 0 0"/></clipPath>
<clipPath id="2940541707386891clip-1"><path d="M 237.5 197.5 L 237.5 618.5 L -238.5 618.5 L -238.5 197.5 L 237.5 197.5 M 237.5 197.5"/></clipPath>
<clipPath id="2940541707386891clip-2"><path d="M 65 10 L 65 425 L 409 425 L 409 10 M 65 10"/></clipPath>
</defs>
<rect x="0" y="0" width="421" height="476" style="fill: rgb(255,255,255); fill-opacity: 1.0" transform="matrix(1,0,0,1,0,0)" clip-path="url(#2940541707386891clip-0)"/><rect x="65" y="10" width="344" height="415" style="fill: rgb(255,255,255); fill-opacity: 1.0" transform="matrix(1,0,0,1,0,0)" clip-path="url(#2940541707386891clip-0)"/><line x1="65" y1="429" x2="409" y2="429" style="stroke-width: 0.5;stroke: rgb(128,128,128);stroke-opacity: 1.0;shape-rendering:crispEdges;" transform="matrix(1,0,0,1,0,0)" clip-path="url(#2940541707386891clip-0)"/><g transform="matrix(1,0,0,1,0,0)"><text x="61.5" y="442.35" style="fill: rgb(64,64,64); fill-opacity: 1.0; font-family: sans-serif; font-size: 12px; " clip-path="url(#2940541707386891clip-0)">0</text></g><line x1="65" y1="431" x2="65" y2="429" style="stroke-width: 0.5;stroke: rgb(128,128,128);stroke-opacity: 1.0;shape-rendering:crispEdges;" transform="matrix(1,0,0,1,0,0)" clip-path="url(#2940541707386891clip-0)"/><g transform="matrix(1,0,0,1,0,0)"><text x="91.28" y="442.35" style="fill: rgb(64,64,64); fill-opacity: 1.0; font-family: sans-serif; font-size: 12px; " clip-path="url(#2940541707386891clip-0)">2</text></g><line x1="94.78" y1="431" x2="94.78" y2="429" style="stroke-width: 0.5;stroke: rgb(128,128,128);stroke-opacity: 1.0;shape-rendering:crispEdges;" transform="matrix(1,0,0,1,0,0)" clip-path="url(#2940541707386891clip-0)"/><g transform="matrix(1,0,0,1,0,0)"><text x="121.07" y="442.35" style="fill: rgb(64,64,64); fill-opacity: 1.0; font-family: sans-serif; font-size: 12px; " clip-path="url(#2940541707386891clip-0)">4</text></g><line x1="124.57" y1="431" x2="124.57" y2="429" style="stroke-width: 0.5;stroke: rgb(128,128,128);stroke-opacity: 1.0;shape-rendering:crispEdges;" transform="matrix(1,0,0,1,0,0)" clip-path="url(#2940541707386891clip-0)"/><g transform="matrix(1,0,0,1,0,0)"><text x="150.85" y="442.35" style="fill: rgb(64,64,64); fill-opacity: 1.0; font-family: sans-serif; font-size: 12px; " clip-path="url(#2940541707386891clip-0)">6</text></g><line x1="154.35" y1="431" x2="154.35" y2="429" style="stroke-width: 0.5;stroke: rgb(128,128,128);stroke-opacity: 1.0;shape-rendering:crispEdges;" transform="matrix(1,0,0,1,0,0)" clip-path="url(#2940541707386891clip-0)"/><g transform="matrix(1,0,0,1,0,0)"><text x="180.63" y="442.35" style="fill: rgb(64,64,64); fill-opacity: 1.0; font-family: sans-serif; font-size: 12px; " clip-path="url(#2940541707386891clip-0)">8</text></g><line x1="184.13" y1="431" x2="184.13" y2="429" style="stroke-width: 0.5;stroke: rgb(128,128,128);stroke-opacity: 1.0;shape-rendering:crispEdges;" transform="matrix(1,0,0,1,0,0)" clip-path="url(#2940541707386891clip-0)"/><g transform="matrix(1,0,0,1,0,0)"><text x="206.92" y="442.35" style="fill: rgb(64,64,64); fill-opacity: 1.0; font-family: sans-serif; font-size: 12px; " clip-path="url(#2940541707386891clip-0)">10</text></g><line x1="213.92" y1="431" x2="213.92" y2="429" style="stroke-width: 0.5;stroke: rgb(128,128,128);stroke-opacity: 1.0;shape-rendering:crispEdges;" transform="matrix(1,0,0,1,0,0)" clip-path="url(#2940541707386891clip-0)"/><g transform="matrix(1,0,0,1,0,0)"><text x="236.7" y="442.35" style="fill: rgb(64,64,64); fill-opacity: 1.0; font-family: sans-serif; font-size: 12px; " clip-path="url(#2940541707386891clip-0)">12</text></g><line x1="243.7" y1="431" x2="243.7" y2="429" style="stroke-width: 0.5;stroke: rgb(128,128,128);stroke-opacity: 1.0;shape-rendering:crispEdges;" transform="matrix(1,0,0,1,0,0)" clip-path="url(#2940541707386891clip-0)"/><g transform="matrix(1,0,0,1,0,0)"><text x="266.48" y="442.35" style="fill: rgb(64,64,64); fill-opacity: 1.0; font-family: sans-serif; font-size: 12px; " clip-path="url(#2940541707386891clip-0)">14</text></g><line x1="273.48" y1="431" x2="273.48" y2="429" style="stroke-width: 0.5;stroke: rgb(128,128,128);stroke-opacity: 1.0;shape-rendering:crispEdges;" transform="matrix(1,0,0,1,0,0)" clip-path="url(#2940541707386891clip-0)"/><g transform="matrix(1,0,0,1,0,0)"><text x="296.27" y="442.35" style="fill: rgb(64,64,64); fill-opacity: 1.0; font-family: sans-serif; font-size: 12px; " clip-path="url(#2940541707386891clip-0)">16</text></g><line x1="303.27" y1="431" x2="303.27" y2="429" style="stroke-width: 0.5;stroke: rgb(128,128,128);stroke-opacity: 1.0;shape-rendering:crispEdges;" transform="matrix(1,0,0,1,0,0)" clip-path="url(#2940541707386891clip-0)"/><g transform="matrix(1,0,0,1,0,0)"><text x="326.05" y="442.35" style="fill: rgb(64,64,64); fill-opacity: 1.0; font-family: sans-serif; font-size: 12px; " clip-path="url(#2940541707386891clip-0)">18</text></g><line x1="333.05" y1="431" x2="333.05" y2="429" style="stroke-width: 0.5;stroke: rgb(128,128,128);stroke-opacity: 1.0;shape-rendering:crispEdges;" transform="matrix(1,0,0,1,0,0)" clip-path="url(#2940541707386891clip-0)"/><g transform="matrix(1,0,0,1,0,0)"><text x="355.84" y="442.35" style="fill: rgb(64,64,64); fill-opacity: 1.0; font-family: sans-serif; font-size: 12px; " clip-path="url(#2940541707386891clip-0)">20</text></g><line x1="362.84" y1="431" x2="362.84" y2="429" style="stroke-width: 0.5;stroke: rgb(128,128,128);stroke-opacity: 1.0;shape-rendering:crispEdges;" transform="matrix(1,0,0,1,0,0)" clip-path="url(#2940541707386891clip-0)"/><g transform="matrix(1,0,0,1,0,0)"><text x="385.62" y="442.35" style="fill: rgb(64,64,64); fill-opacity: 1.0; font-family: sans-serif; font-size: 12px; " clip-path="url(#2940541707386891clip-0)">22</text></g><line x1="392.62" y1="431" x2="392.62" y2="429" style="stroke-width: 0.5;stroke: rgb(128,128,128);stroke-opacity: 1.0;shape-rendering:crispEdges;" transform="matrix(1,0,0,1,0,0)" clip-path="url(#2940541707386891clip-0)"/><g transform="matrix(1,0,0,1,0,0)"><text x="192" y="461.81" style="fill: rgb(64,64,64); fill-opacity: 1.0; font-family: sans-serif; font-size: 14px; font-weight: bold; " clip-path="url(#2940541707386891clip-0)">Edit distance</text></g><line x1="61" y1="10" x2="61" y2="425" style="stroke-width: 0.5;stroke: rgb(128,128,128);stroke-opacity: 1.0;shape-rendering:crispEdges;" transform="matrix(1,0,0,1,0,0)" clip-path="url(#2940541707386891clip-0)"/><g transform="matrix(1,0,0,1,0,0)"><text x="48" y="426.85" style="fill: rgb(64,64,64); fill-opacity: 1.0; font-family: sans-serif; font-size: 12px; " clip-path="url(#2940541707386891clip-0)">0</text></g><line x1="59" y1="425" x2="61" y2="425" style="stroke-width: 0.5;stroke: rgb(128,128,128);stroke-opacity: 1.0;shape-rendering:crispEdges;" transform="matrix(1,0,0,1,0,0)" clip-path="url(#2940541707386891clip-0)"/><g transform="matrix(1,0,0,1,0,0)"><text x="48" y="407.28" style="fill: rgb(64,64,64); fill-opacity: 1.0; font-family: sans-serif; font-size: 12px; " clip-path="url(#2940541707386891clip-0)">5</text></g><line x1="59" y1="405.43" x2="61" y2="405.43" style="stroke-width: 0.5;stroke: rgb(128,128,128);stroke-opacity: 1.0;shape-rendering:crispEdges;" transform="matrix(1,0,0,1,0,0)" clip-path="url(#2940541707386891clip-0)"/><g transform="matrix(1,0,0,1,0,0)"><text x="41" y="387.72" style="fill: rgb(64,64,64); fill-opacity: 1.0; font-family: sans-serif; font-size: 12px; " clip-path="url(#2940541707386891clip-0)">10</text></g><line x1="59" y1="385.87" x2="61" y2="385.87" style="stroke-width: 0.5;stroke: rgb(128,128,128);stroke-opacity: 1.0;shape-rendering:crispEdges;" transform="matrix(1,0,0,1,0,0)" clip-path="url(#2940541707386891clip-0)"/><g transform="matrix(1,0,0,1,0,0)"><text x="41" y="368.15" style="fill: rgb(64,64,64); fill-opacity: 1.0; font-family: sans-serif; font-size: 12px; " clip-path="url(#2940541707386891clip-0)">15</text></g><line x1="59" y1="366.3" x2="61" y2="366.3" style="stroke-width: 0.5;stroke: rgb(128,128,128);stroke-opacity: 1.0;shape-rendering:crispEdges;" transform="matrix(1,0,0,1,0,0)" clip-path="url(#2940541707386891clip-0)"/><g transform="matrix(1,0,0,1,0,0)"><text x="41" y="348.58" style="fill: rgb(64,64,64); fill-opacity: 1.0; font-family: sans-serif; font-size: 12px; " clip-path="url(#2940541707386891clip-0)">20</text></g><line x1="59" y1="346.74" x2="61" y2="346.74" style="stroke-width: 0.5;stroke: rgb(128,128,128);stroke-opacity: 1.0;shape-rendering:crispEdges;" transform="matrix(1,0,0,1,0,0)" clip-path="url(#2940541707386891clip-0)"/><g transform="matrix(1,0,0,1,0,0)"><text x="41" y="329.02" style="fill: rgb(64,64,64); fill-opacity: 1.0; font-family: sans-serif; font-size: 12px; " clip-path="url(#2940541707386891clip-0)">25</text></g><line x1="59" y1="327.17" x2="61" y2="327.17" style="stroke-width: 0.5;stroke: rgb(128,128,128);stroke-opacity: 1.0;shape-rendering:crispEdges;" transform="matrix(1,0,0,1,0,0)" clip-path="url(#2940541707386891clip-0)"/><g transform="matrix(1,0,0,1,0,0)"><text x="41" y="309.45" style="fill: rgb(64,64,64); fill-opacity: 1.0; font-family: sans-serif; font-size: 12px; " clip-path="url(#2940541707386891clip-0)">30</text></g><line x1="59" y1="307.6" x2="61" y2="307.6" style="stroke-width: 0.5;stroke: rgb(128,128,128);stroke-opacity: 1.0;shape-rendering:crispEdges;" transform="matrix(1,0,0,1,0,0)" clip-path="url(#2940541707386891clip-0)"/><g transform="matrix(1,0,0,1,0,0)"><text x="41" y="289.88" style="fill: rgb(64,64,64); fill-opacity: 1.0; font-family: sans-serif; font-size: 12px; " clip-path="url(#2940541707386891clip-0)">35</text></g><line x1="59" y1="288.04" x2="61" y2="288.04" style="stroke-width: 0.5;stroke: rgb(128,128,128);stroke-opacity: 1.0;shape-rendering:crispEdges;" transform="matrix(1,0,0,1,0,0)" clip-path="url(#2940541707386891clip-0)"/><g transform="matrix(1,0,0,1,0,0)"><text x="41" y="270.32" style="fill: rgb(64,64,64); fill-opacity: 1.0; font-family: sans-serif; font-size: 12px; " clip-path="url(#2940541707386891clip-0)">40</text></g><line x1="59" y1="268.47" x2="61" y2="268.47" style="stroke-width: 0.5;stroke: rgb(128,128,128);stroke-opacity: 1.0;shape-rendering:crispEdges;" transform="matrix(1,0,0,1,0,0)" clip-path="url(#2940541707386891clip-0)"/><g transform="matrix(1,0,0,1,0,0)"><text x="41" y="250.75" style="fill: rgb(64,64,64); fill-opacity: 1.0; font-family: sans-serif; font-size: 12px; " clip-path="url(#2940541707386891clip-0)">45</text></g><line x1="59" y1="248.9" x2="61" y2="248.9" style="stroke-width: 0.5;stroke: rgb(128,128,128);stroke-opacity: 1.0;shape-rendering:crispEdges;" transform="matrix(1,0,0,1,0,0)" clip-path="url(#2940541707386891clip-0)"/><g transform="matrix(1,0,0,1,0,0)"><text x="41" y="231.19" style="fill: rgb(64,64,64); fill-opacity: 1.0; font-family: sans-serif; font-size: 12px; " clip-path="url(#2940541707386891clip-0)">50</text></g><line x1="59" y1="229.34" x2="61" y2="229.34" style="stroke-width: 0.5;stroke: rgb(128,128,128);stroke-opacity: 1.0;shape-rendering:crispEdges;" transform="matrix(1,0,0,1,0,0)" clip-path="url(#2940541707386891clip-0)"/><g transform="matrix(1,0,0,1,0,0)"><text x="41" y="211.62" style="fill: rgb(64,64,64); fill-opacity: 1.0; font-family: sans-serif; font-size: 12px; " clip-path="url(#2940541707386891clip-0)">55</text></g><line x1="59" y1="209.77" x2="61" y2="209.77" style="stroke-width: 0.5;stroke: rgb(128,128,128);stroke-opacity: 1.0;shape-rendering:crispEdges;" transform="matrix(1,0,0,1,0,0)" clip-path="url(#2940541707386891clip-0)"/><g transform="matrix(1,0,0,1,0,0)"><text x="41" y="192.05" style="fill: rgb(64,64,64); fill-opacity: 1.0; font-family: sans-serif; font-size: 12px; " clip-path="url(#2940541707386891clip-0)">60</text></g><line x1="59" y1="190.21" x2="61" y2="190.21" style="stroke-width: 0.5;stroke: rgb(128,128,128);stroke-opacity: 1.0;shape-rendering:crispEdges;" transform="matrix(1,0,0,1,0,0)" clip-path="url(#2940541707386891clip-0)"/><g transform="matrix(1,0,0,1,0,0)"><text x="41" y="172.49" style="fill: rgb(64,64,64); fill-opacity: 1.0; font-family: sans-serif; font-size: 12px; " clip-path="url(#2940541707386891clip-0)">65</text></g><line x1="59" y1="170.64" x2="61" y2="170.64" style="stroke-width: 0.5;stroke: rgb(128,128,128);stroke-opacity: 1.0;shape-rendering:crispEdges;" transform="matrix(1,0,0,1,0,0)" clip-path="url(#2940541707386891clip-0)"/><g transform="matrix(1,0,0,1,0,0)"><text x="41" y="152.92" style="fill: rgb(64,64,64); fill-opacity: 1.0; font-family: sans-serif; font-size: 12px; " clip-path="url(#2940541707386891clip-0)">70</text></g><line x1="59" y1="151.07" x2="61" y2="151.07" style="stroke-width: 0.5;stroke: rgb(128,128,128);stroke-opacity: 1.0;shape-rendering:crispEdges;" transform="matrix(1,0,0,1,0,0)" clip-path="url(#2940541707386891clip-0)"/><g transform="matrix(1,0,0,1,0,0)"><text x="41" y="133.35" style="fill: rgb(64,64,64); fill-opacity: 1.0; font-family: sans-serif; font-size: 12px; " clip-path="url(#2940541707386891clip-0)">75</text></g><line x1="59" y1="131.51" x2="61" y2="131.51" style="stroke-width: 0.5;stroke: rgb(128,128,128);stroke-opacity: 1.0;shape-rendering:crispEdges;" transform="matrix(1,0,0,1,0,0)" clip-path="url(#2940541707386891clip-0)"/><g transform="matrix(1,0,0,1,0,0)"><text x="41" y="113.79" style="fill: rgb(64,64,64); fill-opacity: 1.0; font-family: sans-serif; font-size: 12px; " clip-path="url(#2940541707386891clip-0)">80</text></g><line x1="59" y1="111.94" x2="61" y2="111.94" style="stroke-width: 0.5;stroke: rgb(128,128,128);stroke-opacity: 1.0;shape-rendering:crispEdges;" transform="matrix(1,0,0,1,0,0)" clip-path="url(#2940541707386891clip-0)"/><g transform="matrix(1,0,0,1,0,0)"><text x="41" y="94.22" style="fill: rgb(64,64,64); fill-opacity: 1.0; font-family: sans-serif; font-size: 12px; " clip-path="url(#2940541707386891clip-0)">85</text></g><line x1="59" y1="92.37" x2="61" y2="92.37" style="stroke-width: 0.5;stroke: rgb(128,128,128);stroke-opacity: 1.0;shape-rendering:crispEdges;" transform="matrix(1,0,0,1,0,0)" clip-path="url(#2940541707386891clip-0)"/><g transform="matrix(1,0,0,1,0,0)"><text x="41" y="74.66" style="fill: rgb(64,64,64); fill-opacity: 1.0; font-family: sans-serif; font-size: 12px; " clip-path="url(#2940541707386891clip-0)">90</text></g><line x1="59" y1="72.81" x2="61" y2="72.81" style="stroke-width: 0.5;stroke: rgb(128,128,128);stroke-opacity: 1.0;shape-rendering:crispEdges;" transform="matrix(1,0,0,1,0,0)" clip-path="url(#2940541707386891clip-0)"/><g transform="matrix(1,0,0,1,0,0)"><text x="41" y="55.09" style="fill: rgb(64,64,64); fill-opacity: 1.0; font-family: sans-serif; font-size: 12px; " clip-path="url(#2940541707386891clip-0)">95</text></g><line x1="59" y1="53.24" x2="61" y2="53.24" style="stroke-width: 0.5;stroke: rgb(128,128,128);stroke-opacity: 1.0;shape-rendering:crispEdges;" transform="matrix(1,0,0,1,0,0)" clip-path="url(#2940541707386891clip-0)"/><g transform="matrix(1,0,0,1,0,0)"><text x="34" y="35.52" style="fill: rgb(64,64,64); fill-opacity: 1.0; font-family: sans-serif; font-size: 12px; " clip-path="url(#2940541707386891clip-0)">100</text></g><line x1="59" y1="33.68" x2="61" y2="33.68" style="stroke-width: 0.5;stroke: rgb(128,128,128);stroke-opacity: 1.0;shape-rendering:crispEdges;" transform="matrix(1,0,0,1,0,0)" clip-path="url(#2940541707386891clip-0)"/><g transform="matrix(1,0,0,1,0,0)"><text x="34" y="15.96" style="fill: rgb(64,64,64); fill-opacity: 1.0; font-family: sans-serif; font-size: 12px; " clip-path="url(#2940541707386891clip-0)">105</text></g><line x1="59" y1="14.11" x2="61" y2="14.11" style="stroke-width: 0.5;stroke: rgb(128,128,128);stroke-opacity: 1.0;shape-rendering:crispEdges;" transform="matrix(1,0,0,1,0,0)" clip-path="url(#2940541707386891clip-0)"/><g style="fill: rgb(64,64,64); fill-opacity: 1.0; stroke: none" transform="matrix(0,-1,1,0,-197.5,237.5)" clip-path="url(#2940541707386891clip-1)"><path d="M -18.05 209.53 C -19.47 209.53 -20.64 210.02 -21.52 210.95 C -22.42 211.92 -22.94 213.36 -22.94 214.87 C -22.94 216.41 -22.42 217.84 -21.52 218.81 C -20.62 219.77 -19.48 220.23 -18.03 220.23 C -16.56 220.23 -15.42 219.77 -14.55 218.81 C -13.66 217.87 -13.11 216.39 -13.11 214.95 C -13.11 213.36 -13.62 211.91 -14.55 210.95 C -15.44 209.98 -16.56 209.53 -18.05 209.53 M -18.05 209.53 M -18.03 211.33 C -16.3 211.33 -15.22 212.72 -15.22 214.94 C -15.22 217.03 -16.34 218.44 -18.03 218.44 C -19.73 218.44 -20.84 217.03 -20.84 214.87 C -20.84 212.72 -19.73 211.33 -18.03 211.33 M -18.03 211.33 M -5.3 215.17 C -5.44 213.33 -6.65 212.22 -8.56 212.22 C -10.83 212.22 -12.14 213.7 -12.14 216.28 C -12.14 218.77 -10.83 220.23 -8.59 220.23 C -6.75 220.23 -5.48 219.09 -5.3 217.28 L -7.17 217.28 C -7.42 218.27 -7.81 218.64 -8.59 218.64 C -9.58 218.64 -10.17 217.77 -10.17 216.28 C -10.17 215.55 -10.03 214.89 -9.8 214.45 C -9.58 214.03 -9.14 213.8 -8.58 213.8 C -7.78 213.8 -7.4 214.19 -7.17 215.17 L -5.3 215.17 M -5.3 215.17 M 2.49 215.17 C 2.35 213.33 1.13 212.22 -0.78 212.22 C -3.04 212.22 -4.36 213.7 -4.36 216.28 C -4.36 218.77 -3.04 220.23 -0.81 220.23 C 1.04 220.23 2.3 219.09 2.49 217.28 L 0.61 217.28 C 0.36 218.27 -0.03 218.64 -0.81 218.64 C -1.79 218.64 -2.39 217.77 -2.39 216.28 C -2.39 215.55 -2.25 214.89 -2.01 214.45 C -1.79 214.03 -1.36 213.8 -0.79 213.8 C 0 213.8 0.38 214.19 0.61 215.17 L 2.49 215.17 M 2.49 215.17 M 10.54 219.91 L 10.54 212.34 L 8.57 212.34 L 8.57 217.08 C 8.57 217.97 7.96 218.56 6.99 218.56 C 6.15 218.56 5.73 218.11 5.73 217.2 L 5.73 212.34 L 3.77 212.34 L 3.77 217.61 C 3.77 219.3 4.68 220.23 6.3 220.23 C 7.33 220.23 8.01 219.86 8.57 219.02 L 8.57 219.91 L 10.54 219.91 M 10.54 219.91 M 12.39 212.34 L 12.39 219.91 L 14.36 219.91 L 14.36 215.89 C 14.36 214.73 14.94 214.17 16.08 214.17 C 16.3 214.17 16.42 214.19 16.7 214.22 L 16.7 212.23 C 16.58 212.22 16.55 212.22 16.45 212.22 C 15.56 212.22 14.8 212.81 14.36 213.83 L 14.36 212.34 L 12.39 212.34 M 12.39 212.34 M 17.83 212.34 L 17.83 219.91 L 19.8 219.91 L 19.8 215.89 C 19.8 214.73 20.38 214.17 21.52 214.17 C 21.74 214.17 21.87 214.19 22.15 214.22 L 22.15 212.23 C 22.02 212.22 21.99 212.22 21.9 212.22 C 21.01 212.22 20.24 212.81 19.8 213.83 L 19.8 212.34 L 17.83 212.34 M 17.83 212.34 M 29.75 216.75 C 29.75 216.58 29.75 216.5 29.75 216.41 C 29.75 215.66 29.64 214.95 29.47 214.42 C 28.95 213.05 27.73 212.22 26.22 212.22 C 24.05 212.22 22.72 213.78 22.72 216.33 C 22.72 218.75 24.03 220.23 26.17 220.23 C 27.86 220.23 29.23 219.28 29.67 217.78 L 27.73 217.78 C 27.5 218.37 26.95 218.73 26.25 218.73 C 25.69 218.73 25.23 218.5 24.95 218.08 C 24.77 217.8 24.7 217.45 24.67 216.75 L 29.75 216.75 M 29.75 216.75 M 24.7 215.44 C 24.83 214.28 25.31 213.72 26.19 213.72 C 27.08 213.72 27.61 214.31 27.72 215.44 L 24.7 215.44 M 24.7 215.44 M 31.06 212.34 L 31.06 219.91 L 33.03 219.91 L 33.03 215.37 C 33.03 214.47 33.64 213.89 34.61 213.89 C 35.46 213.89 35.88 214.34 35.88 215.25 L 35.88 219.91 L 37.83 219.91 L 37.83 214.84 C 37.83 213.16 36.92 212.22 35.3 212.22 C 34.28 212.22 33.6 212.58 33.03 213.44 L 33.03 212.34 L 31.06 212.34 M 31.06 212.34 M 46.06 215.17 C 45.92 213.33 44.7 212.22 42.79 212.22 C 40.53 212.22 39.21 213.7 39.21 216.28 C 39.21 218.77 40.53 220.23 42.76 220.23 C 44.6 220.23 45.87 219.09 46.06 217.28 L 44.18 217.28 C 43.93 218.27 43.54 218.64 42.76 218.64 C 41.78 218.64 41.18 217.77 41.18 216.28 C 41.18 215.55 41.32 214.89 41.56 214.45 C 41.78 214.03 42.21 213.8 42.78 213.8 C 43.57 213.8 43.95 214.19 44.18 215.17 L 46.06 215.17 M 46.06 215.17 M 53.87 216.75 C 53.87 216.58 53.87 216.5 53.87 216.41 C 53.87 215.66 53.76 214.95 53.59 214.42 C 53.07 213.05 51.86 212.22 50.34 212.22 C 48.17 212.22 46.84 213.78 46.84 216.33 C 46.84 218.75 48.15 220.23 50.29 220.23 C 51.98 220.23 53.36 219.28 53.79 217.78 L 51.86 217.78 C 51.62 218.37 51.07 218.73 50.37 218.73 C 49.81 218.73 49.36 218.5 49.07 218.08 C 48.89 217.8 48.82 217.45 48.79 216.75 L 53.87 216.75 M 53.87 216.75 M 48.82 215.44 C 48.95 214.28 49.43 213.72 50.31 213.72 C 51.2 213.72 51.73 214.31 51.84 215.44 L 48.82 215.44 M 48.82 215.44 M 61.37 214.78 C 61.36 213.19 60.12 212.22 58.09 212.22 C 56.17 212.22 54.98 213.19 54.98 214.73 C 54.98 215.25 55.14 215.67 55.41 215.97 C 55.67 216.23 55.91 216.36 56.64 216.61 L 58.97 217.33 C 59.47 217.48 59.62 217.64 59.62 217.95 C 59.62 218.41 59.09 218.69 58.17 218.69 C 57.66 218.69 57.26 218.61 57.01 218.42 C 56.8 218.27 56.72 218.11 56.64 217.7 L 54.72 217.7 C 54.78 219.37 56 220.23 58.28 220.23 C 59.34 220.23 60.14 220 60.7 219.56 C 61.25 219.11 61.59 218.41 61.59 217.67 C 61.59 216.69 61.11 216.06 60.11 215.77 L 57.62 215.05 C 57.08 214.87 56.94 214.77 56.94 214.45 C 56.94 214.05 57.39 213.77 58.08 213.77 C 59.01 213.77 59.48 214.09 59.5 214.78 L 61.37 214.78 M 61.37 214.78"/></g><line x1="65" y1="10" x2="65" y2="425" style="stroke-width: 0.5;stroke: rgb(150,150,150);stroke-opacity: 0.7;stroke-dasharray: 2.0, 2.0;shape-rendering:crispEdges;" transform="matrix(1,0,0,1,0,0)" clip-path="url(#2940541707386891clip-2)"/><line x1="94.78" y1="10" x2="94.78" y2="425" style="stroke-width: 0.5;stroke: rgb(150,150,150);stroke-opacity: 0.7;stroke-dasharray: 2.0, 2.0;shape-rendering:crispEdges;" transform="matrix(1,0,0,1,0,0)" clip-path="url(#2940541707386891clip-2)"/><line x1="124.57" y1="10" x2="124.57" y2="425" style="stroke-width: 0.5;stroke: rgb(150,150,150);stroke-opacity: 0.7;stroke-dasharray: 2.0, 2.0;shape-rendering:crispEdges;" transform="matrix(1,0,0,1,0,0)" clip-path="url(#2940541707386891clip-2)"/><line x1="154.35" y1="10" x2="154.35" y2="425" style="stroke-width: 0.5;stroke: rgb(150,150,150);stroke-opacity: 0.7;stroke-dasharray: 2.0, 2.0;shape-rendering:crispEdges;" transform="matrix(1,0,0,1,0,0)" clip-path="url(#2940541707386891clip-2)"/><line x1="184.13" y1="10" x2="184.13" y2="425" style="stroke-width: 0.5;stroke: rgb(150,150,150);stroke-opacity: 0.7;stroke-dasharray: 2.0, 2.0;shape-rendering:crispEdges;" transform="matrix(1,0,0,1,0,0)" clip-path="url(#2940541707386891clip-2)"/><line x1="213.92" y1="10" x2="213.92" y2="425" style="stroke-width: 0.5;stroke: rgb(150,150,150);stroke-opacity: 0.7;stroke-dasharray: 2.0, 2.0;shape-rendering:crispEdges;" transform="matrix(1,0,0,1,0,0)" clip-path="url(#2940541707386891clip-2)"/><line x1="243.7" y1="10" x2="243.7" y2="425" style="stroke-width: 0.5;stroke: rgb(150,150,150);stroke-opacity: 0.7;stroke-dasharray: 2.0, 2.0;shape-rendering:crispEdges;" transform="matrix(1,0,0,1,0,0)" clip-path="url(#2940541707386891clip-2)"/><line x1="273.48" y1="10" x2="273.48" y2="425" style="stroke-width: 0.5;stroke: rgb(150,150,150);stroke-opacity: 0.7;stroke-dasharray: 2.0, 2.0;shape-rendering:crispEdges;" transform="matrix(1,0,0,1,0,0)" clip-path="url(#2940541707386891clip-2)"/><line x1="303.27" y1="10" x2="303.27" y2="425" style="stroke-width: 0.5;stroke: rgb(150,150,150);stroke-opacity: 0.7;stroke-dasharray: 2.0, 2.0;shape-rendering:crispEdges;" transform="matrix(1,0,0,1,0,0)" clip-path="url(#2940541707386891clip-2)"/><line x1="333.05" y1="10" x2="333.05" y2="425" style="stroke-width: 0.5;stroke: rgb(150,150,150);stroke-opacity: 0.7;stroke-dasharray: 2.0, 2.0;shape-rendering:crispEdges;" transform="matrix(1,0,0,1,0,0)" clip-path="url(#2940541707386891clip-2)"/><line x1="362.84" y1="10" x2="362.84" y2="425" style="stroke-width: 0.5;stroke: rgb(150,150,150);stroke-opacity: 0.7;stroke-dasharray: 2.0, 2.0;shape-rendering:crispEdges;" transform="matrix(1,0,0,1,0,0)" clip-path="url(#2940541707386891clip-2)"/><line x1="392.62" y1="10" x2="392.62" y2="425" style="stroke-width: 0.5;stroke: rgb(150,150,150);stroke-opacity: 0.7;stroke-dasharray: 2.0, 2.0;shape-rendering:crispEdges;" transform="matrix(1,0,0,1,0,0)" clip-path="url(#2940541707386891clip-2)"/><line x1="65" y1="10" x2="65" y2="425" style="stroke-width: 0.5;stroke: rgb(0,0,0);stroke-opacity: 0.7;shape-rendering:crispEdges;" transform="matrix(1,0,0,1,0,0)" clip-path="url(#2940541707386891clip-2)"/><line x1="65" y1="405.43" x2="409" y2="405.43" style="stroke-width: 0.5;stroke: rgb(150,150,150);stroke-opacity: 0.7;stroke-dasharray: 2.0, 2.0;shape-rendering:crispEdges;" transform="matrix(1,0,0,1,0,0)" clip-path="url(#2940541707386891clip-2)"/><line x1="65" y1="385.87" x2="409" y2="385.87" style="stroke-width: 0.5;stroke: rgb(150,150,150);stroke-opacity: 0.7;stroke-dasharray: 2.0, 2.0;shape-rendering:crispEdges;" transform="matrix(1,0,0,1,0,0)" clip-path="url(#2940541707386891clip-2)"/><line x1="65" y1="366.3" x2="409" y2="366.3" style="stroke-width: 0.5;stroke: rgb(150,150,150);stroke-opacity: 0.7;stroke-dasharray: 2.0, 2.0;shape-rendering:crispEdges;" transform="matrix(1,0,0,1,0,0)" clip-path="url(#2940541707386891clip-2)"/><line x1="65" y1="346.74" x2="409" y2="346.74" style="stroke-width: 0.5;stroke: rgb(150,150,150);stroke-opacity: 0.7;stroke-dasharray: 2.0, 2.0;shape-rendering:crispEdges;" transform="matrix(1,0,0,1,0,0)" clip-path="url(#2940541707386891clip-2)"/><line x1="65" y1="327.17" x2="409" y2="327.17" style="stroke-width: 0.5;stroke: rgb(150,150,150);stroke-opacity: 0.7;stroke-dasharray: 2.0, 2.0;shape-rendering:crispEdges;" transform="matrix(1,0,0,1,0,0)" clip-path="url(#2940541707386891clip-2)"/><line x1="65" y1="307.6" x2="409" y2="307.6" style="stroke-width: 0.5;stroke: rgb(150,150,150);stroke-opacity: 0.7;stroke-dasharray: 2.0, 2.0;shape-rendering:crispEdges;" transform="matrix(1,0,0,1,0,0)" clip-path="url(#2940541707386891clip-2)"/><line x1="65" y1="288.04" x2="409" y2="288.04" style="stroke-width: 0.5;stroke: rgb(150,150,150);stroke-opacity: 0.7;stroke-dasharray: 2.0, 2.0;shape-rendering:crispEdges;" transform="matrix(1,0,0,1,0,0)" clip-path="url(#2940541707386891clip-2)"/><line x1="65" y1="268.47" x2="409" y2="268.47" style="stroke-width: 0.5;stroke: rgb(150,150,150);stroke-opacity: 0.7;stroke-dasharray: 2.0, 2.0;shape-rendering:crispEdges;" transform="matrix(1,0,0,1,0,0)" clip-path="url(#2940541707386891clip-2)"/><line x1="65" y1="248.9" x2="409" y2="248.9" style="stroke-width: 0.5;stroke: rgb(150,150,150);stroke-opacity: 0.7;stroke-dasharray: 2.0, 2.0;shape-rendering:crispEdges;" transform="matrix(1,0,0,1,0,0)" clip-path="url(#2940541707386891clip-2)"/><line x1="65" y1="229.34" x2="409" y2="229.34" style="stroke-width: 0.5;stroke: rgb(150,150,150);stroke-opacity: 0.7;stroke-dasharray: 2.0, 2.0;shape-rendering:crispEdges;" transform="matrix(1,0,0,1,0,0)" clip-path="url(#2940541707386891clip-2)"/><line x1="65" y1="209.77" x2="409" y2="209.77" style="stroke-width: 0.5;stroke: rgb(150,150,150);stroke-opacity: 0.7;stroke-dasharray: 2.0, 2.0;shape-rendering:crispEdges;" transform="matrix(1,0,0,1,0,0)" clip-path="url(#2940541707386891clip-2)"/><line x1="65" y1="190.21" x2="409" y2="190.21" style="stroke-width: 0.5;stroke: rgb(150,150,150);stroke-opacity: 0.7;stroke-dasharray: 2.0, 2.0;shape-rendering:crispEdges;" transform="matrix(1,0,0,1,0,0)" clip-path="url(#2940541707386891clip-2)"/><line x1="65" y1="170.64" x2="409" y2="170.64" style="stroke-width: 0.5;stroke: rgb(150,150,150);stroke-opacity: 0.7;stroke-dasharray: 2.0, 2.0;shape-rendering:crispEdges;" transform="matrix(1,0,0,1,0,0)" clip-path="url(#2940541707386891clip-2)"/><line x1="65" y1="151.07" x2="409" y2="151.07" style="stroke-width: 0.5;stroke: rgb(150,150,150);stroke-opacity: 0.7;stroke-dasharray: 2.0, 2.0;shape-rendering:crispEdges;" transform="matrix(1,0,0,1,0,0)" clip-path="url(#2940541707386891clip-2)"/><line x1="65" y1="131.51" x2="409" y2="131.51" style="stroke-width: 0.5;stroke: rgb(150,150,150);stroke-opacity: 0.7;stroke-dasharray: 2.0, 2.0;shape-rendering:crispEdges;" transform="matrix(1,0,0,1,0,0)" clip-path="url(#2940541707386891clip-2)"/><line x1="65" y1="111.94" x2="409" y2="111.94" style="stroke-width: 0.5;stroke: rgb(150,150,150);stroke-opacity: 0.7;stroke-dasharray: 2.0, 2.0;shape-rendering:crispEdges;" transform="matrix(1,0,0,1,0,0)" clip-path="url(#2940541707386891clip-2)"/><line x1="65" y1="92.37" x2="409" y2="92.37" style="stroke-width: 0.5;stroke: rgb(150,150,150);stroke-opacity: 0.7;stroke-dasharray: 2.0, 2.0;shape-rendering:crispEdges;" transform="matrix(1,0,0,1,0,0)" clip-path="url(#2940541707386891clip-2)"/><line x1="65" y1="72.81" x2="409" y2="72.81" style="stroke-width: 0.5;stroke: rgb(150,150,150);stroke-opacity: 0.7;stroke-dasharray: 2.0, 2.0;shape-rendering:crispEdges;" transform="matrix(1,0,0,1,0,0)" clip-path="url(#2940541707386891clip-2)"/><line x1="65" y1="53.24" x2="409" y2="53.24" style="stroke-width: 0.5;stroke: rgb(150,150,150);stroke-opacity: 0.7;stroke-dasharray: 2.0, 2.0;shape-rendering:crispEdges;" transform="matrix(1,0,0,1,0,0)" clip-path="url(#2940541707386891clip-2)"/><line x1="65" y1="33.68" x2="409" y2="33.68" style="stroke-width: 0.5;stroke: rgb(150,150,150);stroke-opacity: 0.7;stroke-dasharray: 2.0, 2.0;shape-rendering:crispEdges;" transform="matrix(1,0,0,1,0,0)" clip-path="url(#2940541707386891clip-2)"/><line x1="65" y1="14.11" x2="409" y2="14.11" style="stroke-width: 0.5;stroke: rgb(150,150,150);stroke-opacity: 0.7;stroke-dasharray: 2.0, 2.0;shape-rendering:crispEdges;" transform="matrix(1,0,0,1,0,0)" clip-path="url(#2940541707386891clip-2)"/><line x1="65" y1="425" x2="409" y2="425" style="stroke-width: 0.5;stroke: rgb(0,0,0);stroke-opacity: 0.7;shape-rendering:crispEdges;" transform="matrix(1,0,0,1,0,0)" clip-path="url(#2940541707386891clip-2)"/><rect x="65" y="413.26" width="1" height="11.74" style="fill: url(#2940541707386891gp1); fill-opacity: 0.7" transform="matrix(1,0,0,1,0,0)" clip-path="url(#2940541707386891clip-2)"/><rect x="66" y="413.26" width="2" height="11.74" style="fill: url(#2940541707386891gp2); fill-opacity: 0.7" transform="matrix(1,0,0,1,0,0)" clip-path="url(#2940541707386891clip-2)"/><rect x="68" y="413.26" width="0.28" height="11.74" style="fill: url(#2940541707386891gp3); fill-opacity: 0.7" transform="matrix(1,0,0,1,0,0)" clip-path="url(#2940541707386891clip-2)"/><rect x="78" y="378.04" width="1" height="46.96" style="fill: url(#2940541707386891gp5); fill-opacity: 0.7" transform="matrix(1,0,0,1,0,0)" clip-path="url(#2940541707386891clip-2)"/><rect x="79" y="378.04" width="2" height="46.96" style="fill: url(#2940541707386891gp6); fill-opacity: 0.7" transform="matrix(1,0,0,1,0,0)" clip-path="url(#2940541707386891clip-2)"/><rect x="81" y="378.04" width="0.38" height="46.96" style="fill: url(#2940541707386891gp7); fill-opacity: 0.7" transform="matrix(1,0,0,1,0,0)" clip-path="url(#2940541707386891clip-2)"/><rect x="94.49" y="209.77" width="0.51" height="215.23" style="fill: url(#2940541707386891gp8); fill-opacity: 0.7" transform="matrix(1,0,0,1,0,0)" clip-path="url(#2940541707386891clip-2)"/><rect x="95" y="209.77" width="2" height="215.23" style="fill: url(#2940541707386891gp10); fill-opacity: 0.7" transform="matrix(1,0,0,1,0,0)" clip-path="url(#2940541707386891clip-2)"/><rect x="97" y="209.77" width="0.76" height="215.23" style="fill: url(#2940541707386891gp11); fill-opacity: 0.7" transform="matrix(1,0,0,1,0,0)" clip-path="url(#2940541707386891clip-2)"/><rect x="107.59" y="29.76" width="0.41" height="395.24" style="fill: url(#2940541707386891gp12); fill-opacity: 0.7" transform="matrix(1,0,0,1,0,0)" clip-path="url(#2940541707386891clip-2)"/><rect x="108" y="29.76" width="2" height="395.24" style="fill: url(#2940541707386891gp14); fill-opacity: 0.7" transform="matrix(1,0,0,1,0,0)" clip-path="url(#2940541707386891clip-2)"/><rect x="110" y="29.76" width="0.87" height="395.24" style="fill: url(#2940541707386891gp15); fill-opacity: 0.7" transform="matrix(1,0,0,1,0,0)" clip-path="url(#2940541707386891clip-2)"/><rect x="123.97" y="385.87" width="0.03" height="39.13" style="fill: url(#2940541707386891gp16); fill-opacity: 0.7" transform="matrix(1,0,0,1,0,0)" clip-path="url(#2940541707386891clip-2)"/><rect x="124" y="385.87" width="1" height="39.13" style="fill: url(#2940541707386891gp17); fill-opacity: 0.7" transform="matrix(1,0,0,1,0,0)" clip-path="url(#2940541707386891clip-2)"/><rect x="125" y="385.87" width="2" height="39.13" style="fill: url(#2940541707386891gp18); fill-opacity: 0.7" transform="matrix(1,0,0,1,0,0)" clip-path="url(#2940541707386891clip-2)"/><rect x="127" y="385.87" width="0.25" height="39.13" style="fill: url(#2940541707386891gp19); fill-opacity: 0.7" transform="matrix(1,0,0,1,0,0)" clip-path="url(#2940541707386891clip-2)"/><rect x="137" y="421.09" width="1" height="3.91" style="fill: url(#2940541707386891gp21); fill-opacity: 0.7" transform="matrix(1,0,0,1,0,0)" clip-path="url(#2940541707386891clip-2)"/><rect x="138" y="421.09" width="2" height="3.91" style="fill: url(#2940541707386891gp22); fill-opacity: 0.7" transform="matrix(1,0,0,1,0,0)" clip-path="url(#2940541707386891clip-2)"/><rect x="140" y="421.09" width="0.35" height="3.91" style="fill: url(#2940541707386891gp23); fill-opacity: 0.7" transform="matrix(1,0,0,1,0,0)" clip-path="url(#2940541707386891clip-2)"/><rect x="153.46" y="421.09" width="0.54" height="3.91" style="fill: url(#2940541707386891gp24); fill-opacity: 0.7" transform="matrix(1,0,0,1,0,0)" clip-path="url(#2940541707386891clip-2)"/><rect x="154" y="421.09" width="2" height="3.91" style="fill: url(#2940541707386891gp26); fill-opacity: 0.7" transform="matrix(1,0,0,1,0,0)" clip-path="url(#2940541707386891clip-2)"/><rect x="156" y="421.09" width="0.73" height="3.91" style="fill: url(#2940541707386891gp27); fill-opacity: 0.7" transform="matrix(1,0,0,1,0,0)" clip-path="url(#2940541707386891clip-2)"/><rect x="182.94" y="417.17" width="0.06" height="7.83" style="fill: url(#2940541707386891gp28); fill-opacity: 0.7" transform="matrix(1,0,0,1,0,0)" clip-path="url(#2940541707386891clip-2)"/><rect x="183" y="417.17" width="1" height="7.83" style="fill: url(#2940541707386891gp29); fill-opacity: 0.7" transform="matrix(1,0,0,1,0,0)" clip-path="url(#2940541707386891clip-2)"/><rect x="184" y="417.17" width="2" height="7.83" style="fill: url(#2940541707386891gp30); fill-opacity: 0.7" transform="matrix(1,0,0,1,0,0)" clip-path="url(#2940541707386891clip-2)"/><rect x="186" y="417.17" width="0.22" height="7.83" style="fill: url(#2940541707386891gp31); fill-opacity: 0.7" transform="matrix(1,0,0,1,0,0)" clip-path="url(#2940541707386891clip-2)"/><rect x="196" y="421.09" width="1" height="3.91" style="fill: url(#2940541707386891gp33); fill-opacity: 0.7" transform="matrix(1,0,0,1,0,0)" clip-path="url(#2940541707386891clip-2)"/><rect x="197" y="421.09" width="2" height="3.91" style="fill: url(#2940541707386891gp34); fill-opacity: 0.7" transform="matrix(1,0,0,1,0,0)" clip-path="url(#2940541707386891clip-2)"/><rect x="199" y="421.09" width="0.32" height="3.91" style="fill: url(#2940541707386891gp35); fill-opacity: 0.7" transform="matrix(1,0,0,1,0,0)" clip-path="url(#2940541707386891clip-2)"/><rect x="271.4" y="421.09" width="0.6" height="3.91" style="fill: url(#2940541707386891gp36); fill-opacity: 0.7" transform="matrix(1,0,0,1,0,0)" clip-path="url(#2940541707386891clip-2)"/><rect x="272" y="421.09" width="2" height="3.91" style="fill: url(#2940541707386891gp38); fill-opacity: 0.7" transform="matrix(1,0,0,1,0,0)" clip-path="url(#2940541707386891clip-2)"/><rect x="274" y="421.09" width="0.68" height="3.91" style="fill: url(#2940541707386891gp39); fill-opacity: 0.7" transform="matrix(1,0,0,1,0,0)" clip-path="url(#2940541707386891clip-2)"/><rect x="346.75" y="417.17" width="0.25" height="7.83" style="fill: url(#2940541707386891gp40); fill-opacity: 0.7" transform="matrix(1,0,0,1,0,0)" clip-path="url(#2940541707386891clip-2)"/><rect x="347" y="417.17" width="2" height="7.83" style="fill: url(#2940541707386891gp42); fill-opacity: 0.7" transform="matrix(1,0,0,1,0,0)" clip-path="url(#2940541707386891clip-2)"/><rect x="349" y="417.17" width="1.03" height="7.83" style="fill: url(#2940541707386891gp43); fill-opacity: 0.7" transform="matrix(1,0,0,1,0,0)" clip-path="url(#2940541707386891clip-2)"/><rect x="389.34" y="421.09" width="0.66" height="3.91" style="fill: url(#2940541707386891gp44); fill-opacity: 0.7" transform="matrix(1,0,0,1,0,0)" clip-path="url(#2940541707386891clip-2)"/><rect x="390" y="421.09" width="2" height="3.91" style="fill: url(#2940541707386891gp46); fill-opacity: 0.7" transform="matrix(1,0,0,1,0,0)" clip-path="url(#2940541707386891clip-2)"/><rect x="392" y="421.09" width="0.62" height="3.91" style="fill: url(#2940541707386891gp47); fill-opacity: 0.7" transform="matrix(1,0,0,1,0,0)" clip-path="url(#2940541707386891clip-2)"/><rect x="65" y="10" width="344" height="415" style="stroke-width: 0.5;stroke: rgb(0,0,0);stroke-opacity: 1.0;shape-rendering:crispEdges;; fill: none" transform="matrix(1,0,0,1,0,0)" clip-path="url(#2940541707386891clip-0)"/></svg>
