<!DOCTYPE svg PUBLIC "-//W3C//DTD SVG 1.1//EN" "http://www.w3.org/Graphics/SVG/1.1/DTD/svg11.dtd">
<svg xmlns="http://www.w3.org/2000/svg" xmlns:xlink="http://www.w3.org/1999/xlink" xmlns:jfreesvg="http://www.jfree.org/jfreesvg/svg" width="421" height="476" text-rendering="auto" shape-rendering="auto">
<defs><linearGradient id="2939646673699712gp1" x1="74" y1="0" x2="74" y2="0" gradientUnits="userSpaceOnUse"><stop offset="0%" style="stop-color: rgb(255,255,255);"/><stop offset="100%" style="stop-color: rgb(255,85,85);"/></linearGradient>
<linearGradient id="2939646673699712gp12" x1="80.25" y1="0" x2="80" y2="0" gradientUnits="userSpaceOnUse"><stop offset="0%" style="stop-color: rgb(255,85,85);"/><stop offset="100%" style="stop-color: rgb(255,255,255);"/></linearGradient>
<linearGradient id="2939646673699712gp15" x1="82" y1="0" x2="82.35" y2="0" gradientUnits="userSpaceOnUse"><stop offset="0%" style="stop-color: rgb(255,121,121);"/><stop offset="100%" style="stop-color: rgb(255,85,85);"/></linearGradient>
<linearGradient id="2939646673699712gp0" x1="73.95" y1="0" x2="74" y2="0" gradientUnits="userSpaceOnUse"><stop offset="0%" style="stop-color: rgb(255,85,85);"/><stop offset="100%" style="stop-color: rgb(255,255,255);"/></linearGradient>
<linearGradient id="2939646673699712gp48" x1="143.23" y1="0" x2="143" y2="0" gradientUnits="userSpaceOnUse"><stop offset="0%" style="stop-color: rgb(255,85,85);"/><stop offset="100%" style="stop-color: rgb(255,255,255);"/></linearGradient>
<linearGradient id="2939646673699712gp14" x1="81" y1="0" x2="82" y2="0" gradientUnits="userSpaceOnUse"><stop offset="0%" style="stop-color: rgb(255,85,85);"/><stop offset="100%" style="stop-color: rgb(255,121,121);"/></linearGradient>
<linearGradient id="2939646673699712gp50" x1="144" y1="0" x2="145" y2="0" gradientUnits="userSpaceOnUse"><stop offset="0%" style="stop-color: rgb(255,85,85);"/><stop offset="100%" style="stop-color: rgb(255,121,121);"/></linearGradient>
<linearGradient id="2939646673699712gp25" x1="97" y1="0" x2="97" y2="0" gradientUnits="userSpaceOnUse"><stop offset="0%" style="stop-color: rgb(255,255,255);"/><stop offset="100%" style="stop-color: rgb(255,85,85);"/></linearGradient>
<linearGradient id="2939646673699712gp40" x1="113.84" y1="0" x2="114" y2="0" gradientUnits="userSpaceOnUse"><stop offset="0%" style="stop-color: rgb(255,85,85);"/><stop offset="100%" style="stop-color: rgb(255,255,255);"/></linearGradient>
<linearGradient id="2939646673699712gp16" x1="82.35" y1="0" x2="83" y2="0" gradientUnits="userSpaceOnUse"><stop offset="0%" style="stop-color: rgb(255,85,85);"/><stop offset="100%" style="stop-color: rgb(255,255,255);"/></linearGradient>
<linearGradient id="2939646673699712gp59" x1="393" y1="0" x2="393.05" y2="0" gradientUnits="userSpaceOnUse"><stop offset="0%" style="stop-color: rgb(255,121,121);"/><stop offset="100%" style="stop-color: rgb(255,85,85);"/></linearGradient>
<linearGradient id="2939646673699712gp44" x1="130.64" y1="0" x2="131" y2="0" gradientUnits="userSpaceOnUse"><stop offset="0%" style="stop-color: rgb(255,85,85);"/><stop offset="100%" style="stop-color: rgb(255,255,255);"/></linearGradient>
<linearGradient id="2939646673699712gp55" x1="273" y1="0" x2="273.39" y2="0" gradientUnits="userSpaceOnUse"><stop offset="0%" style="stop-color: rgb(255,121,121);"/><stop offset="100%" style="stop-color: rgb(255,85,85);"/></linearGradient>
<linearGradient id="2939646673699712gp41" x1="114" y1="0" x2="114" y2="0" gradientUnits="userSpaceOnUse"><stop offset="0%" style="stop-color: rgb(255,255,255);"/><stop offset="100%" style="stop-color: rgb(255,85,85);"/></linearGradient>
<linearGradient id="2939646673699712gp32" x1="107.54" y1="0" x2="108" y2="0" gradientUnits="userSpaceOnUse"><stop offset="0%" style="stop-color: rgb(255,85,85);"/><stop offset="100%" style="stop-color: rgb(255,255,255);"/></linearGradient>
<linearGradient id="2939646673699712gp53" x1="271" y1="0" x2="272" y2="0" gradientUnits="userSpaceOnUse"><stop offset="0%" style="stop-color: rgb(255,255,255);"/><stop offset="100%" style="stop-color: rgb(255,85,85);"/></linearGradient>
<linearGradient id="2939646673699712gp42" x1="114" y1="0" x2="116" y2="0" gradientUnits="userSpaceOnUse"><stop offset="0%" style="stop-color: rgb(255,85,85);"/><stop offset="100%" style="stop-color: rgb(255,121,121);"/></linearGradient>
<linearGradient id="2939646673699712gp4" x1="76.05" y1="0" x2="76" y2="0" gradientUnits="userSpaceOnUse"><stop offset="0%" style="stop-color: rgb(255,85,85);"/><stop offset="100%" style="stop-color: rgb(255,255,255);"/></linearGradient>
<linearGradient id="2939646673699712gp9" x1="78" y1="0" x2="79" y2="0" gradientUnits="userSpaceOnUse"><stop offset="0%" style="stop-color: rgb(255,255,255);"/><stop offset="100%" style="stop-color: rgb(255,85,85);"/></linearGradient>
<linearGradient id="2939646673699712gp36" x1="111.74" y1="0" x2="112" y2="0" gradientUnits="userSpaceOnUse"><stop offset="0%" style="stop-color: rgb(255,85,85);"/><stop offset="100%" style="stop-color: rgb(255,255,255);"/></linearGradient>
<linearGradient id="2939646673699712gp45" x1="131" y1="0" x2="131" y2="0" gradientUnits="userSpaceOnUse"><stop offset="0%" style="stop-color: rgb(255,255,255);"/><stop offset="100%" style="stop-color: rgb(255,85,85);"/></linearGradient>
<linearGradient id="2939646673699712gp13" x1="80" y1="0" x2="81" y2="0" gradientUnits="userSpaceOnUse"><stop offset="0%" style="stop-color: rgb(255,255,255);"/><stop offset="100%" style="stop-color: rgb(255,85,85);"/></linearGradient>
<linearGradient id="2939646673699712gp35" x1="109" y1="0" x2="109.64" y2="0" gradientUnits="userSpaceOnUse"><stop offset="0%" style="stop-color: rgb(255,121,121);"/><stop offset="100%" style="stop-color: rgb(255,85,85);"/></linearGradient>
<linearGradient id="2939646673699712gp39" x1="113" y1="0" x2="113.84" y2="0" gradientUnits="userSpaceOnUse"><stop offset="0%" style="stop-color: rgb(255,121,121);"/><stop offset="100%" style="stop-color: rgb(255,85,85);"/></linearGradient>
<linearGradient id="2939646673699712gp24" x1="97.05" y1="0" x2="97" y2="0" gradientUnits="userSpaceOnUse"><stop offset="0%" style="stop-color: rgb(255,85,85);"/><stop offset="100%" style="stop-color: rgb(255,255,255);"/></linearGradient>
<linearGradient id="2939646673699712gp18" x1="83" y1="0" x2="84" y2="0" gradientUnits="userSpaceOnUse"><stop offset="0%" style="stop-color: rgb(255,85,85);"/><stop offset="100%" style="stop-color: rgb(255,121,121);"/></linearGradient>
<linearGradient id="2939646673699712gp17" x1="83" y1="0" x2="83" y2="0" gradientUnits="userSpaceOnUse"><stop offset="0%" style="stop-color: rgb(255,255,255);"/><stop offset="100%" style="stop-color: rgb(255,85,85);"/></linearGradient>
<linearGradient id="2939646673699712gp28" x1="99.15" y1="0" x2="99" y2="0" gradientUnits="userSpaceOnUse"><stop offset="0%" style="stop-color: rgb(255,85,85);"/><stop offset="100%" style="stop-color: rgb(255,255,255);"/></linearGradient>
<linearGradient id="2939646673699712gp31" x1="101" y1="0" x2="101.25" y2="0" gradientUnits="userSpaceOnUse"><stop offset="0%" style="stop-color: rgb(255,121,121);"/><stop offset="100%" style="stop-color: rgb(255,85,85);"/></linearGradient>
<linearGradient id="2939646673699712gp51" x1="145" y1="0" x2="145.33" y2="0" gradientUnits="userSpaceOnUse"><stop offset="0%" style="stop-color: rgb(255,121,121);"/><stop offset="100%" style="stop-color: rgb(255,85,85);"/></linearGradient>
<linearGradient id="2939646673699712gp57" x1="391" y1="0" x2="391" y2="0" gradientUnits="userSpaceOnUse"><stop offset="0%" style="stop-color: rgb(255,255,255);"/><stop offset="100%" style="stop-color: rgb(255,85,85);"/></linearGradient>
<linearGradient id="2939646673699712gp58" x1="391" y1="0" x2="393" y2="0" gradientUnits="userSpaceOnUse"><stop offset="0%" style="stop-color: rgb(255,85,85);"/><stop offset="100%" style="stop-color: rgb(255,121,121);"/></linearGradient>
<linearGradient id="2939646673699712gp2" x1="74" y1="0" x2="76" y2="0" gradientUnits="userSpaceOnUse"><stop offset="0%" style="stop-color: rgb(255,85,85);"/><stop offset="100%" style="stop-color: rgb(255,121,121);"/></linearGradient>
<linearGradient id="2939646673699712gp27" x1="99" y1="0" x2="99.15" y2="0" gradientUnits="userSpaceOnUse"><stop offset="0%" style="stop-color: rgb(255,121,121);"/><stop offset="100%" style="stop-color: rgb(255,85,85);"/></linearGradient>
<linearGradient id="2939646673699712gp56" x1="390.95" y1="0" x2="391" y2="0" gradientUnits="userSpaceOnUse"><stop offset="0%" style="stop-color: rgb(255,85,85);"/><stop offset="100%" style="stop-color: rgb(255,255,255);"/></linearGradient>
<linearGradient id="2939646673699712gp22" x1="87" y1="0" x2="88" y2="0" gradientUnits="userSpaceOnUse"><stop offset="0%" style="stop-color: rgb(255,85,85);"/><stop offset="100%" style="stop-color: rgb(255,121,121);"/></linearGradient>
<linearGradient id="2939646673699712gp7" x1="78" y1="0" x2="78.15" y2="0" gradientUnits="userSpaceOnUse"><stop offset="0%" style="stop-color: rgb(255,121,121);"/><stop offset="100%" style="stop-color: rgb(255,85,85);"/></linearGradient>
<linearGradient id="2939646673699712gp49" x1="143" y1="0" x2="144" y2="0" gradientUnits="userSpaceOnUse"><stop offset="0%" style="stop-color: rgb(255,255,255);"/><stop offset="100%" style="stop-color: rgb(255,85,85);"/></linearGradient>
<linearGradient id="2939646673699712gp8" x1="78.15" y1="0" x2="78" y2="0" gradientUnits="userSpaceOnUse"><stop offset="0%" style="stop-color: rgb(255,85,85);"/><stop offset="100%" style="stop-color: rgb(255,255,255);"/></linearGradient>
<linearGradient id="2939646673699712gp29" x1="99" y1="0" x2="100" y2="0" gradientUnits="userSpaceOnUse"><stop offset="0%" style="stop-color: rgb(255,255,255);"/><stop offset="100%" style="stop-color: rgb(255,85,85);"/></linearGradient>
<linearGradient id="2939646673699712gp43" x1="116" y1="0" x2="115.94" y2="0" gradientUnits="userSpaceOnUse"><stop offset="0%" style="stop-color: rgb(255,121,121);"/><stop offset="100%" style="stop-color: rgb(255,85,85);"/></linearGradient>
<linearGradient id="2939646673699712gp34" x1="108" y1="0" x2="109" y2="0" gradientUnits="userSpaceOnUse"><stop offset="0%" style="stop-color: rgb(255,85,85);"/><stop offset="100%" style="stop-color: rgb(255,121,121);"/></linearGradient>
<linearGradient id="2939646673699712gp20" x1="86.55" y1="0" x2="87" y2="0" gradientUnits="userSpaceOnUse"><stop offset="0%" style="stop-color: rgb(255,85,85);"/><stop offset="100%" style="stop-color: rgb(255,255,255);"/></linearGradient>
<linearGradient id="2939646673699712gp54" x1="272" y1="0" x2="273" y2="0" gradientUnits="userSpaceOnUse"><stop offset="0%" style="stop-color: rgb(255,85,85);"/><stop offset="100%" style="stop-color: rgb(255,121,121);"/></linearGradient>
<linearGradient id="2939646673699712gp37" x1="112" y1="0" x2="112" y2="0" gradientUnits="userSpaceOnUse"><stop offset="0%" style="stop-color: rgb(255,255,255);"/><stop offset="100%" style="stop-color: rgb(255,85,85);"/></linearGradient>
<linearGradient id="2939646673699712gp52" x1="271.29" y1="0" x2="271" y2="0" gradientUnits="userSpaceOnUse"><stop offset="0%" style="stop-color: rgb(255,85,85);"/><stop offset="100%" style="stop-color: rgb(255,255,255);"/></linearGradient>
<linearGradient id="2939646673699712gp23" x1="88" y1="0" x2="88.65" y2="0" gradientUnits="userSpaceOnUse"><stop offset="0%" style="stop-color: rgb(255,121,121);"/><stop offset="100%" style="stop-color: rgb(255,85,85);"/></linearGradient>
<linearGradient id="2939646673699712gp46" x1="131" y1="0" x2="132" y2="0" gradientUnits="userSpaceOnUse"><stop offset="0%" style="stop-color: rgb(255,85,85);"/><stop offset="100%" style="stop-color: rgb(255,121,121);"/></linearGradient>
<linearGradient id="2939646673699712gp38" x1="112" y1="0" x2="113" y2="0" gradientUnits="userSpaceOnUse"><stop offset="0%" style="stop-color: rgb(255,85,85);"/><stop offset="100%" style="stop-color: rgb(255,121,121);"/></linearGradient>
<linearGradient id="2939646673699712gp5" x1="76" y1="0" x2="76" y2="0" gradientUnits="userSpaceOnUse"><stop offset="0%" style="stop-color: rgb(255,255,255);"/><stop offset="100%" style="stop-color: rgb(255,85,85);"/></linearGradient>
<linearGradient id="2939646673699712gp33" x1="108" y1="0" x2="108" y2="0" gradientUnits="userSpaceOnUse"><stop offset="0%" style="stop-color: rgb(255,255,255);"/><stop offset="100%" style="stop-color: rgb(255,85,85);"/></linearGradient>
<linearGradient id="2939646673699712gp10" x1="79" y1="0" x2="80" y2="0" gradientUnits="userSpaceOnUse"><stop offset="0%" style="stop-color: rgb(255,85,85);"/><stop offset="100%" style="stop-color: rgb(255,121,121);"/></linearGradient>
<linearGradient id="2939646673699712gp26" x1="97" y1="0" x2="99" y2="0" gradientUnits="userSpaceOnUse"><stop offset="0%" style="stop-color: rgb(255,85,85);"/><stop offset="100%" style="stop-color: rgb(255,121,121);"/></linearGradient>
<linearGradient id="2939646673699712gp3" x1="76" y1="0" x2="76.05" y2="0" gradientUnits="userSpaceOnUse"><stop offset="0%" style="stop-color: rgb(255,121,121);"/><stop offset="100%" style="stop-color: rgb(255,85,85);"/></linearGradient>
<linearGradient id="2939646673699712gp21" x1="87" y1="0" x2="87" y2="0" gradientUnits="userSpaceOnUse"><stop offset="0%" style="stop-color: rgb(255,255,255);"/><stop offset="100%" style="stop-color: rgb(255,85,85);"/></linearGradient>
<linearGradient id="2939646673699712gp47" x1="132" y1="0" x2="132.73" y2="0" gradientUnits="userSpaceOnUse"><stop offset="0%" style="stop-color: rgb(255,121,121);"/><stop offset="100%" style="stop-color: rgb(255,85,85);"/></linearGradient>
<linearGradient id="2939646673699712gp6" x1="76" y1="0" x2="78" y2="0" gradientUnits="userSpaceOnUse"><stop offset="0%" style="stop-color: rgb(255,85,85);"/><stop offset="100%" style="stop-color: rgb(255,121,121);"/></linearGradient>
<linearGradient id="2939646673699712gp19" x1="84" y1="0" x2="84.45" y2="0" gradientUnits="userSpaceOnUse"><stop offset="0%" style="stop-color: rgb(255,121,121);"/><stop offset="100%" style="stop-color: rgb(255,85,85);"/></linearGradient>
<linearGradient id="2939646673699712gp30" x1="100" y1="0" x2="101" y2="0" gradientUnits="userSpaceOnUse"><stop offset="0%" style="stop-color: rgb(255,85,85);"/><stop offset="100%" style="stop-color: rgb(255,121,121);"/></linearGradient>
<linearGradient id="2939646673699712gp11" x1="80" y1="0" x2="80.25" y2="0" gradientUnits="userSpaceOnUse"><stop offset="0%" style="stop-color: rgb(255,121,121);"/><stop offset="100%" style="stop-color: rgb(255,85,85);"/></linearGradient>
<clipPath id="2939646673699712clip-0"><path d="M 0 0 L 421 0 L 421 476 L 0 476 L 0 0 M 0 0"/></clipPath>
<clipPath id="2939646673699712clip-1"><path d="M 237.5 197.5 L 237.5 618.5 L -238.5 618.5 L -238.5 197.5 L 237.5 197.5 M 237.5 197.5"/></clipPath>
<clipPath id="2939646673699712clip-2"><path d="M 58 10 L 58 425 L 409 425 L 409 10 M 58 10"/></clipPath>
</defs>
<rect x="0" y="0" width="421" height="476" style="fill: rgb(255,255,255); fill-opacity: 1.0" transform="matrix(1,0,0,1,0,0)" clip-path="url(#2939646673699712clip-0)"/><rect x="58" y="10" width="351" height="415" style="fill: rgb(255,255,255); fill-opacity: 1.0" transform="matrix(1,0,0,1,0,0)" clip-path="url(#2939646673699712clip-0)"/><line x1="58" y1="429" x2="409" y2="429" style="stroke-width: 0.5;stroke: rgb(128,128,128);stroke-opacity: 1.0;shape-rendering:crispEdges;" transform="matrix(1,0,0,1,0,0)" clip-path="url(#2939646673699712clip-0)"/><g transform="matrix(1,0,0,1,0,0)"><text x="93.11" y="442.35" style="fill: rgb(64,64,64); fill-opacity: 1.0; font-family: sans-serif; font-size: 12px; " clip-path="url(#2939646673699712clip-0)">40</text></g><line x1="100.11" y1="431" x2="100.11" y2="429" style="stroke-width: 0.5;stroke: rgb(128,128,128);stroke-opacity: 1.0;shape-rendering:crispEdges;" transform="matrix(1,0,0,1,0,0)" clip-path="url(#2939646673699712clip-0)"/><g transform="matrix(1,0,0,1,0,0)"><text x="145.42" y="442.35" style="fill: rgb(64,64,64); fill-opacity: 1.0; font-family: sans-serif; font-size: 12px; " clip-path="url(#2939646673699712clip-0)">60</text></g><line x1="152.42" y1="431" x2="152.42" y2="429" style="stroke-width: 0.5;stroke: rgb(128,128,128);stroke-opacity: 1.0;shape-rendering:crispEdges;" transform="matrix(1,0,0,1,0,0)" clip-path="url(#2939646673699712clip-0)"/><g transform="matrix(1,0,0,1,0,0)"><text x="197.73" y="442.35" style="fill: rgb(64,64,64); fill-opacity: 1.0; font-family: sans-serif; font-size: 12px; " clip-path="url(#2939646673699712clip-0)">80</text></g><line x1="204.73" y1="431" x2="204.73" y2="429" style="stroke-width: 0.5;stroke: rgb(128,128,128);stroke-opacity: 1.0;shape-rendering:crispEdges;" transform="matrix(1,0,0,1,0,0)" clip-path="url(#2939646673699712clip-0)"/><g transform="matrix(1,0,0,1,0,0)"><text x="246.54" y="442.35" style="fill: rgb(64,64,64); fill-opacity: 1.0; font-family: sans-serif; font-size: 12px; " clip-path="url(#2939646673699712clip-0)">100</text></g><line x1="257.04" y1="431" x2="257.04" y2="429" style="stroke-width: 0.5;stroke: rgb(128,128,128);stroke-opacity: 1.0;shape-rendering:crispEdges;" transform="matrix(1,0,0,1,0,0)" clip-path="url(#2939646673699712clip-0)"/><g transform="matrix(1,0,0,1,0,0)"><text x="298.85" y="442.35" style="fill: rgb(64,64,64); fill-opacity: 1.0; font-family: sans-serif; font-size: 12px; " clip-path="url(#2939646673699712clip-0)">120</text></g><line x1="309.35" y1="431" x2="309.35" y2="429" style="stroke-width: 0.5;stroke: rgb(128,128,128);stroke-opacity: 1.0;shape-rendering:crispEdges;" transform="matrix(1,0,0,1,0,0)" clip-path="url(#2939646673699712clip-0)"/><g transform="matrix(1,0,0,1,0,0)"><text x="351.16" y="442.35" style="fill: rgb(64,64,64); fill-opacity: 1.0; font-family: sans-serif; font-size: 12px; " clip-path="url(#2939646673699712clip-0)">140</text></g><line x1="361.66" y1="431" x2="361.66" y2="429" style="stroke-width: 0.5;stroke: rgb(128,128,128);stroke-opacity: 1.0;shape-rendering:crispEdges;" transform="matrix(1,0,0,1,0,0)" clip-path="url(#2939646673699712clip-0)"/><g transform="matrix(1,0,0,1,0,0)"><text x="192" y="461.81" style="fill: rgb(64,64,64); fill-opacity: 1.0; font-family: sans-serif; font-size: 14px; font-weight: bold; " clip-path="url(#2939646673699712clip-0)">Read length</text></g><line x1="54" y1="10" x2="54" y2="425" style="stroke-width: 0.5;stroke: rgb(128,128,128);stroke-opacity: 1.0;shape-rendering:crispEdges;" transform="matrix(1,0,0,1,0,0)" clip-path="url(#2939646673699712clip-0)"/><g transform="matrix(1,0,0,1,0,0)"><text x="41" y="426.85" style="fill: rgb(64,64,64); fill-opacity: 1.0; font-family: sans-serif; font-size: 12px; " clip-path="url(#2939646673699712clip-0)">0</text></g><line x1="52" y1="425" x2="54" y2="425" style="stroke-width: 0.5;stroke: rgb(128,128,128);stroke-opacity: 1.0;shape-rendering:crispEdges;" transform="matrix(1,0,0,1,0,0)" clip-path="url(#2939646673699712clip-0)"/><g transform="matrix(1,0,0,1,0,0)"><text x="41" y="401.51" style="fill: rgb(64,64,64); fill-opacity: 1.0; font-family: sans-serif; font-size: 12px; " clip-path="url(#2939646673699712clip-0)">5</text></g><line x1="52" y1="399.66" x2="54" y2="399.66" style="stroke-width: 0.5;stroke: rgb(128,128,128);stroke-opacity: 1.0;shape-rendering:crispEdges;" transform="matrix(1,0,0,1,0,0)" clip-path="url(#2939646673699712clip-0)"/><g transform="matrix(1,0,0,1,0,0)"><text x="34" y="376.18" style="fill: rgb(64,64,64); fill-opacity: 1.0; font-family: sans-serif; font-size: 12px; " clip-path="url(#2939646673699712clip-0)">10</text></g><line x1="52" y1="374.33" x2="54" y2="374.33" style="stroke-width: 0.5;stroke: rgb(128,128,128);stroke-opacity: 1.0;shape-rendering:crispEdges;" transform="matrix(1,0,0,1,0,0)" clip-path="url(#2939646673699712clip-0)"/><g transform="matrix(1,0,0,1,0,0)"><text x="34" y="350.84" style="fill: rgb(64,64,64); fill-opacity: 1.0; font-family: sans-serif; font-size: 12px; " clip-path="url(#2939646673699712clip-0)">15</text></g><line x1="52" y1="348.99" x2="54" y2="348.99" style="stroke-width: 0.5;stroke: rgb(128,128,128);stroke-opacity: 1.0;shape-rendering:crispEdges;" transform="matrix(1,0,0,1,0,0)" clip-path="url(#2939646673699712clip-0)"/><g transform="matrix(1,0,0,1,0,0)"><text x="34" y="325.5" style="fill: rgb(64,64,64); fill-opacity: 1.0; font-family: sans-serif; font-size: 12px; " clip-path="url(#2939646673699712clip-0)">20</text></g><line x1="52" y1="323.66" x2="54" y2="323.66" style="stroke-width: 0.5;stroke: rgb(128,128,128);stroke-opacity: 1.0;shape-rendering:crispEdges;" transform="matrix(1,0,0,1,0,0)" clip-path="url(#2939646673699712clip-0)"/><g transform="matrix(1,0,0,1,0,0)"><text x="34" y="300.17" style="fill: rgb(64,64,64); fill-opacity: 1.0; font-family: sans-serif; font-size: 12px; " clip-path="url(#2939646673699712clip-0)">25</text></g><line x1="52" y1="298.32" x2="54" y2="298.32" style="stroke-width: 0.5;stroke: rgb(128,128,128);stroke-opacity: 1.0;shape-rendering:crispEdges;" transform="matrix(1,0,0,1,0,0)" clip-path="url(#2939646673699712clip-0)"/><g transform="matrix(1,0,0,1,0,0)"><text x="34" y="274.83" style="fill: rgb(64,64,64); fill-opacity: 1.0; font-family: sans-serif; font-size: 12px; " clip-path="url(#2939646673699712clip-0)">30</text></g><line x1="52" y1="272.99" x2="54" y2="272.99" style="stroke-width: 0.5;stroke: rgb(128,128,128);stroke-opacity: 1.0;shape-rendering:crispEdges;" transform="matrix(1,0,0,1,0,0)" clip-path="url(#2939646673699712clip-0)"/><g transform="matrix(1,0,0,1,0,0)"><text x="34" y="249.5" style="fill: rgb(64,64,64); fill-opacity: 1.0; font-family: sans-serif; font-size: 12px; " clip-path="url(#2939646673699712clip-0)">35</text></g><line x1="52" y1="247.65" x2="54" y2="247.65" style="stroke-width: 0.5;stroke: rgb(128,128,128);stroke-opacity: 1.0;shape-rendering:crispEdges;" transform="matrix(1,0,0,1,0,0)" clip-path="url(#2939646673699712clip-0)"/><g transform="matrix(1,0,0,1,0,0)"><text x="34" y="224.16" style="fill: rgb(64,64,64); fill-opacity: 1.0; font-family: sans-serif; font-size: 12px; " clip-path="url(#2939646673699712clip-0)">40</text></g><line x1="52" y1="222.31" x2="54" y2="222.31" style="stroke-width: 0.5;stroke: rgb(128,128,128);stroke-opacity: 1.0;shape-rendering:crispEdges;" transform="matrix(1,0,0,1,0,0)" clip-path="url(#2939646673699712clip-0)"/><g transform="matrix(1,0,0,1,0,0)"><text x="34" y="198.83" style="fill: rgb(64,64,64); fill-opacity: 1.0; font-family: sans-serif; font-size: 12px; " clip-path="url(#2939646673699712clip-0)">45</text></g><line x1="52" y1="196.98" x2="54" y2="196.98" style="stroke-width: 0.5;stroke: rgb(128,128,128);stroke-opacity: 1.0;shape-rendering:crispEdges;" transform="matrix(1,0,0,1,0,0)" clip-path="url(#2939646673699712clip-0)"/><g transform="matrix(1,0,0,1,0,0)"><text x="34" y="173.49" style="fill: rgb(64,64,64); fill-opacity: 1.0; font-family: sans-serif; font-size: 12px; " clip-path="url(#2939646673699712clip-0)">50</text></g><line x1="52" y1="171.64" x2="54" y2="171.64" style="stroke-width: 0.5;stroke: rgb(128,128,128);stroke-opacity: 1.0;shape-rendering:crispEdges;" transform="matrix(1,0,0,1,0,0)" clip-path="url(#2939646673699712clip-0)"/><g transform="matrix(1,0,0,1,0,0)"><text x="34" y="148.15" style="fill: rgb(64,64,64); fill-opacity: 1.0; font-family: sans-serif; font-size: 12px; " clip-path="url(#2939646673699712clip-0)">55</text></g><line x1="52" y1="146.31" x2="54" y2="146.31" style="stroke-width: 0.5;stroke: rgb(128,128,128);stroke-opacity: 1.0;shape-rendering:crispEdges;" transform="matrix(1,0,0,1,0,0)" clip-path="url(#2939646673699712clip-0)"/><g transform="matrix(1,0,0,1,0,0)"><text x="34" y="122.82" style="fill: rgb(64,64,64); fill-opacity: 1.0; font-family: sans-serif; font-size: 12px; " clip-path="url(#2939646673699712clip-0)">60</text></g><line x1="52" y1="120.97" x2="54" y2="120.97" style="stroke-width: 0.5;stroke: rgb(128,128,128);stroke-opacity: 1.0;shape-rendering:crispEdges;" transform="matrix(1,0,0,1,0,0)" clip-path="url(#2939646673699712clip-0)"/><g transform="matrix(1,0,0,1,0,0)"><text x="34" y="97.48" style="fill: rgb(64,64,64); fill-opacity: 1.0; font-family: sans-serif; font-size: 12px; " clip-path="url(#2939646673699712clip-0)">65</text></g><line x1="52" y1="95.63" x2="54" y2="95.63" style="stroke-width: 0.5;stroke: rgb(128,128,128);stroke-opacity: 1.0;shape-rendering:crispEdges;" transform="matrix(1,0,0,1,0,0)" clip-path="url(#2939646673699712clip-0)"/><g transform="matrix(1,0,0,1,0,0)"><text x="34" y="72.15" style="fill: rgb(64,64,64); fill-opacity: 1.0; font-family: sans-serif; font-size: 12px; " clip-path="url(#2939646673699712clip-0)">70</text></g><line x1="52" y1="70.3" x2="54" y2="70.3" style="stroke-width: 0.5;stroke: rgb(128,128,128);stroke-opacity: 1.0;shape-rendering:crispEdges;" transform="matrix(1,0,0,1,0,0)" clip-path="url(#2939646673699712clip-0)"/><g transform="matrix(1,0,0,1,0,0)"><text x="34" y="46.81" style="fill: rgb(64,64,64); fill-opacity: 1.0; font-family: sans-serif; font-size: 12px; " clip-path="url(#2939646673699712clip-0)">75</text></g><line x1="52" y1="44.96" x2="54" y2="44.96" style="stroke-width: 0.5;stroke: rgb(128,128,128);stroke-opacity: 1.0;shape-rendering:crispEdges;" transform="matrix(1,0,0,1,0,0)" clip-path="url(#2939646673699712clip-0)"/><g transform="matrix(1,0,0,1,0,0)"><text x="34" y="21.48" style="fill: rgb(64,64,64); fill-opacity: 1.0; font-family: sans-serif; font-size: 12px; " clip-path="url(#2939646673699712clip-0)">80</text></g><line x1="52" y1="19.63" x2="54" y2="19.63" style="stroke-width: 0.5;stroke: rgb(128,128,128);stroke-opacity: 1.0;shape-rendering:crispEdges;" transform="matrix(1,0,0,1,0,0)" clip-path="url(#2939646673699712clip-0)"/><g style="fill: rgb(64,64,64); fill-opacity: 1.0; stroke: none" transform="matrix(0,-1,1,0,-197.5,237.5)" clip-path="url(#2939646673699712clip-1)"><path d="M -18.05 209.53 C -19.47 209.53 -20.64 210.02 -21.52 210.95 C -22.42 211.92 -22.94 213.36 -22.94 214.87 C -22.94 216.41 -22.42 217.84 -21.52 218.81 C -20.62 219.77 -19.48 220.23 -18.03 220.23 C -16.56 220.23 -15.42 219.77 -14.55 218.81 C -13.66 217.87 -13.11 216.39 -13.11 214.95 C -13.11 213.36 -13.62 211.91 -14.55 210.95 C -15.44 209.98 -16.56 209.53 -18.05 209.53 M -18.05 209.53 M -18.03 211.33 C -16.3 211.33 -15.22 212.72 -15.22 214.94 C -15.22 217.03 -16.34 218.44 -18.03 218.44 C -19.73 218.44 -20.84 217.03 -20.84 214.87 C -20.84 212.72 -19.73 211.33 -18.03 211.33 M -18.03 211.33 M -5.3 215.17 C -5.44 213.33 -6.65 212.22 -8.56 212.22 C -10.83 212.22 -12.14 213.7 -12.14 216.28 C -12.14 218.77 -10.83 220.23 -8.59 220.23 C -6.75 220.23 -5.48 219.09 -5.3 217.28 L -7.17 217.28 C -7.42 218.27 -7.81 218.64 -8.59 218.64 C -9.58 218.64 -10.17 217.77 -10.17 216.28 C -10.17 215.55 -10.03 214.89 -9.8 214.45 C -9.58 214.03 -9.14 213.8 -8.58 213.8 C -7.78 213.8 -7.4 214.19 -7.17 215.17 L -5.3 215.17 M -5.3 215.17 M 2.49 215.17 C 2.35 213.33 1.13 212.22 -0.78 212.22 C -3.04 212.22 -4.36 213.7 -4.36 216.28 C -4.36 218.77 -3.04 220.23 -0.81 220.23 C 1.04 220.23 2.3 219.09 2.49 217.28 L 0.61 217.28 C 0.36 218.27 -0.03 218.64 -0.81 218.64 C -1.79 218.64 -2.39 217.77 -2.39 216.28 C -2.39 215.55 -2.25 214.89 -2.01 214.45 C -1.79 214.03 -1.36 213.8 -0.79 213.8 C 0 213.8 0.38 214.19 0.61 215.17 L 2.49 215.17 M 2.49 215.17 M 10.54 219.91 L 10.54 212.34 L 8.57 212.34 L 8.57 217.08 C 8.57 217.97 7.96 218.56 6.99 218.56 C 6.15 218.56 5.73 218.11 5.73 217.2 L 5.73 212.34 L 3.77 212.34 L 3.77 217.61 C 3.77 219.3 4.68 220.23 6.3 220.23 C 7.33 220.23 8.01 219.86 8.57 219.02 L 8.57 219.91 L 10.54 219.91 M 10.54 219.91 M 12.39 212.34 L 12.39 219.91 L 14.36 219.91 L 14.36 215.89 C 14.36 214.73 14.94 214.17 16.08 214.17 C 16.3 214.17 16.42 214.19 16.7 214.22 L 16.7 212.23 C 16.58 212.22 16.55 212.22 16.45 212.22 C 15.56 212.22 14.8 212.81 14.36 213.83 L 14.36 212.34 L 12.39 212.34 M 12.39 212.34 M 17.83 212.34 L 17.83 219.91 L 19.8 219.91 L 19.8 215.89 C 19.8 214.73 20.38 214.17 21.52 214.17 C 21.74 214.17 21.87 214.19 22.15 214.22 L 22.15 212.23 C 22.02 212.22 21.99 212.22 21.9 212.22 C 21.01 212.22 20.24 212.81 19.8 213.83 L 19.8 212.34 L 17.83 212.34 M 17.83 212.34 M 29.75 216.75 C 29.75 216.58 29.75 216.5 29.75 216.41 C 29.75 215.66 29.64 214.95 29.47 214.42 C 28.95 213.05 27.73 212.22 26.22 212.22 C 24.05 212.22 22.72 213.78 22.72 216.33 C 22.72 218.75 24.03 220.23 26.17 220.23 C 27.86 220.23 29.23 219.28 29.67 217.78 L 27.73 217.78 C 27.5 218.37 26.95 218.73 26.25 218.73 C 25.69 218.73 25.23 218.5 24.95 218.08 C 24.77 217.8 24.7 217.45 24.67 216.75 L 29.75 216.75 M 29.75 216.75 M 24.7 215.44 C 24.83 214.28 25.31 213.72 26.19 213.72 C 27.08 213.72 27.61 214.31 27.72 215.44 L 24.7 215.44 M 24.7 215.44 M 31.06 212.34 L 31.06 219.91 L 33.03 219.91 L 33.03 215.37 C 33.03 214.47 33.64 213.89 34.61 213.89 C 35.46 213.89 35.88 214.34 35.88 215.25 L 35.88 219.91 L 37.83 219.91 L 37.83 214.84 C 37.83 213.16 36.92 212.22 35.3 212.22 C 34.28 212.22 33.6 212.58 33.03 213.44 L 33.03 212.34 L 31.06 212.34 M 31.06 212.34 M 46.06 215.17 C 45.92 213.33 44.7 212.22 42.79 212.22 C 40.53 212.22 39.21 213.7 39.21 216.28 C 39.21 218.77 40.53 220.23 42.76 220.23 C 44.6 220.23 45.87 219.09 46.06 217.28 L 44.18 217.28 C 43.93 218.27 43.54 218.64 42.76 218.64 C 41.78 218.64 41.18 217.77 41.18 216.28 C 41.18 215.55 41.32 214.89 41.56 214.45 C 41.78 214.03 42.21 213.8 42.78 213.8 C 43.57 213.8 43.95 214.19 44.18 215.17 L 46.06 215.17 M 46.06 215.17 M 53.87 216.75 C 53.87 216.58 53.87 216.5 53.87 216.41 C 53.87 215.66 53.76 214.95 53.59 214.42 C 53.07 213.05 51.86 212.22 50.34 212.22 C 48.17 212.22 46.84 213.78 46.84 216.33 C 46.84 218.75 48.15 220.23 50.29 220.23 C 51.98 220.23 53.36 219.28 53.79 217.78 L 51.86 217.78 C 51.62 218.37 51.07 218.73 50.37 218.73 C 49.81 218.73 49.36 218.5 49.07 218.08 C 48.89 217.8 48.82 217.45 48.79 216.75 L 53.87 216.75 M 53.87 216.75 M 48.82 215.44 C 48.95 214.28 49.43 213.72 50.31 213.72 C 51.2 213.72 51.73 214.31 51.84 215.44 L 48.82 215.44 M 48.82 215.44 M 61.37 214.78 C 61.36 213.19 60.12 212.22 58.09 212.22 C 56.17 212.22 54.98 213.19 54.98 214.73 C 54.98 215.25 55.14 215.67 55.41 215.97 C 55.67 216.23 55.91 216.36 56.64 216.61 L 58.97 217.33 C 59.47 217.48 59.62 217.64 59.62 217.95 C 59.62 218.41 59.09 218.69 58.17 218.69 C 57.66 218.69 57.26 218.61 57.01 218.42 C 56.8 218.27 56.72 218.11 56.64 217.7 L 54.72 217.7 C 54.78 219.37 56 220.23 58.28 220.23 C 59.34 220.23 60.14 220 60.7 219.56 C 61.25 219.11 61.59 218.41 61.59 217.67 C 61.59 216.69 61.11 216.06 60.11 215.77 L 57.62 215.05 C 57.08 214.87 56.94 214.77 56.94 214.45 C 56.94 214.05 57.39 213.77 58.08 213.77 C 59.01 213.77 59.48 214.09 59.5 214.78 L 61.37 214.78 M 61.37 214.78"/></g><line x1="100.11" y1="10" x2="100.11" y2="425" style="stroke-width: 0.5;stroke: rgb(150,150,150);stroke-opacity: 0.7;stroke-dasharray: 2.0, 2.0;shape-rendering:crispEdges;" transform="matrix(1,0,0,1,0,0)" clip-path="url(#2939646673699712clip-2)"/><line x1="152.42" y1="10" x2="152.42" y2="425" style="stroke-width: 0.5;stroke: rgb(150,150,150);stroke-opacity: 0.7;stroke-dasharray: 2.0, 2.0;shape-rendering:crispEdges;" transform="matrix(1,0,0,1,0,0)" clip-path="url(#2939646673699712clip-2)"/><line x1="204.73" y1="10" x2="204.73" y2="425" style="stroke-width: 0.5;stroke: rgb(150,150,150);stroke-opacity: 0.7;stroke-dasharray: 2.0, 2.0;shape-rendering:crispEdges;" transform="matrix(1,0,0,1,0,0)" clip-path="url(#2939646673699712clip-2)"/><line x1="257.04" y1="10" x2="257.04" y2="425" style="stroke-width: 0.5;stroke: rgb(150,150,150);stroke-opacity: 0.7;stroke-dasharray: 2.0, 2.0;shape-rendering:crispEdges;" transform="matrix(1,0,0,1,0,0)" clip-path="url(#2939646673699712clip-2)"/><line x1="309.35" y1="10" x2="309.35" y2="425" style="stroke-width: 0.5;stroke: rgb(150,150,150);stroke-opacity: 0.7;stroke-dasharray: 2.0, 2.0;shape-rendering:crispEdges;" transform="matrix(1,0,0,1,0,0)" clip-path="url(#2939646673699712clip-2)"/><line x1="361.66" y1="10" x2="361.66" y2="425" style="stroke-width: 0.5;stroke: rgb(150,150,150);stroke-opacity: 0.7;stroke-dasharray: 2.0, 2.0;shape-rendering:crispEdges;" transform="matrix(1,0,0,1,0,0)" clip-path="url(#2939646673699712clip-2)"/><line x1="58" y1="399.66" x2="409" y2="399.66" style="stroke-width: 0.5;stroke: rgb(150,150,150);stroke-opacity: 0.7;stroke-dasharray: 2.0, 2.0;shape-rendering:crispEdges;" transform="matrix(1,0,0,1,0,0)" clip-path="url(#2939646673699712clip-2)"/><line x1="58" y1="374.33" x2="409" y2="374.33" style="stroke-width: 0.5;stroke: rgb(150,150,150);stroke-opacity: 0.7;stroke-dasharray: 2.0, 2.0;shape-rendering:crispEdges;" transform="matrix(1,0,0,1,0,0)" clip-path="url(#2939646673699712clip-2)"/><line x1="58" y1="348.99" x2="409" y2="348.99" style="stroke-width: 0.5;stroke: rgb(150,150,150);stroke-opacity: 0.7;stroke-dasharray: 2.0, 2.0;shape-rendering:crispEdges;" transform="matrix(1,0,0,1,0,0)" clip-path="url(#2939646673699712clip-2)"/><line x1="58" y1="323.66" x2="409" y2="323.66" style="stroke-width: 0.5;stroke: rgb(150,150,150);stroke-opacity: 0.7;stroke-dasharray: 2.0, 2.0;shape-rendering:crispEdges;" transform="matrix(1,0,0,1,0,0)" clip-path="url(#2939646673699712clip-2)"/><line x1="58" y1="298.32" x2="409" y2="298.32" style="stroke-width: 0.5;stroke: rgb(150,150,150);stroke-opacity: 0.7;stroke-dasharray: 2.0, 2.0;shape-rendering:crispEdges;" transform="matrix(1,0,0,1,0,0)" clip-path="url(#2939646673699712clip-2)"/><line x1="58" y1="272.99" x2="409" y2="272.99" style="stroke-width: 0.5;stroke: rgb(150,150,150);stroke-opacity: 0.7;stroke-dasharray: 2.0, 2.0;shape-rendering:crispEdges;" transform="matrix(1,0,0,1,0,0)" clip-path="url(#2939646673699712clip-2)"/><line x1="58" y1="247.65" x2="409" y2="247.65" style="stroke-width: 0.5;stroke: rgb(150,150,150);stroke-opacity: 0.7;stroke-dasharray: 2.0, 2.0;shape-rendering:crispEdges;" transform="matrix(1,0,0,1,0,0)" clip-path="url(#2939646673699712clip-2)"/><line x1="58" y1="222.31" x2="409" y2="222.31" style="stroke-width: 0.5;stroke: rgb(150,150,150);stroke-opacity: 0.7;stroke-dasharray: 2.0, 2.0;shape-rendering:crispEdges;" transform="matrix(1,0,0,1,0,0)" clip-path="url(#2939646673699712clip-2)"/><line x1="58" y1="196.98" x2="409" y2="196.98" style="stroke-width: 0.5;stroke: rgb(150,150,150);stroke-opacity: 0.7;stroke-dasharray: 2.0, 2.0;shape-rendering:crispEdges;" transform="matrix(1,0,0,1,0,0)" clip-path="url(#2939646673699712clip-2)"/><line x1="58" y1="171.64" x2="409" y2="171.64" style="stroke-width: 0.5;stroke: rgb(150,150,150);stroke-opacity: 0.7;stroke-dasharray: 2.0, 2.0;shape-rendering:crispEdges;" transform="matrix(1,0,0,1,0,0)" clip-path="url(#2939646673699712clip-2)"/><line x1="58" y1="146.31" x2="409" y2="146.31" style="stroke-width: 0.5;stroke: rgb(150,150,150);stroke-opacity: 0.7;stroke-dasharray: 2.0, 2.0;shape-rendering:crispEdges;" transform="matrix(1,0,0,1,0,0)" clip-path="url(#2939646673699712clip-2)"/><line x1="58" y1="120.97" x2="409" y2="120.97" style="stroke-width: 0.5;stroke: rgb(150,150,150);stroke-opacity: 0.7;stroke-dasharray: 2.0, 2.0;shape-rendering:crispEdges;" transform="matrix(1,0,0,1,0,0)" clip-path="url(#2939646673699712clip-2)"/><line x1="58" y1="95.63" x2="409" y2="95.63" style="stroke-width: 0.5;stroke: rgb(150,150,150);stroke-opacity: 0.7;stroke-dasharray: 2.0, 2.0;shape-rendering:crispEdges;" transform="matrix(1,0,0,1,0,0)" clip-path="url(#2939646673699712clip-2)"/><line x1="58" y1="70.3" x2="409" y2="70.3" style="stroke-width: 0.5;stroke: rgb(150,150,150);stroke-opacity: 0.7;stroke-dasharray: 2.0, 2.0;shape-rendering:crispEdges;" transform="matrix(1,0,0,1,0,0)" clip-path="url(#2939646673699712clip-2)"/><line x1="58" y1="44.96" x2="409" y2="44.96" style="stroke-width: 0.5;stroke: rgb(150,150,150);stroke-opacity: 0.7;stroke-dasharray: 2.0, 2.0;shape-rendering:crispEdges;" transform="matrix(1,0,0,1,0,0)" clip-path="url(#2939646673699712clip-2)"/><line x1="58" y1="19.63" x2="409" y2="19.63" style="stroke-width: 0.5;stroke: rgb(150,150,150);stroke-opacity: 0.7;stroke-dasharray: 2.0, 2.0;shape-rendering:crispEdges;" transform="matrix(1,0,0,1,0,0)" clip-path="url(#2939646673699712clip-2)"/><line x1="58" y1="425" x2="409" y2="425" style="stroke-width: 0.5;stroke: rgb(0,0,0);stroke-opacity: 0.7;shape-rendering:crispEdges;" transform="matrix(1,0,0,1,0,0)" clip-path="url(#2939646673699712clip-2)"/><rect x="73.95" y="29.76" width="0.05" height="395.24" style="fill: url(#2939646673699712gp0); fill-opacity: 0.7" transform="matrix(1,0,0,1,0,0)" clip-path="url(#2939646673699712clip-2)"/><rect x="74" y="29.76" width="2" height="395.24" style="fill: url(#2939646673699712gp2); fill-opacity: 0.7" transform="matrix(1,0,0,1,0,0)" clip-path="url(#2939646673699712clip-2)"/><rect x="76" y="29.76" width="0.05" height="395.24" style="fill: url(#2939646673699712gp3); fill-opacity: 0.7" transform="matrix(1,0,0,1,0,0)" clip-path="url(#2939646673699712clip-2)"/><rect x="76" y="227.38" width="2" height="197.62" style="fill: url(#2939646673699712gp6); fill-opacity: 0.7" transform="matrix(1,0,0,1,0,0)" clip-path="url(#2939646673699712clip-2)"/><rect x="78" y="227.38" width="0.15" height="197.62" style="fill: url(#2939646673699712gp7); fill-opacity: 0.7" transform="matrix(1,0,0,1,0,0)" clip-path="url(#2939646673699712clip-2)"/><rect x="78" y="338.86" width="1" height="86.14" style="fill: url(#2939646673699712gp9); fill-opacity: 0.7" transform="matrix(1,0,0,1,0,0)" clip-path="url(#2939646673699712clip-2)"/><rect x="79" y="338.86" width="1" height="86.14" style="fill: url(#2939646673699712gp10); fill-opacity: 0.7" transform="matrix(1,0,0,1,0,0)" clip-path="url(#2939646673699712clip-2)"/><rect x="80" y="338.86" width="0.25" height="86.14" style="fill: url(#2939646673699712gp11); fill-opacity: 0.7" transform="matrix(1,0,0,1,0,0)" clip-path="url(#2939646673699712clip-2)"/><rect x="80" y="384.46" width="1" height="40.54" style="fill: url(#2939646673699712gp13); fill-opacity: 0.7" transform="matrix(1,0,0,1,0,0)" clip-path="url(#2939646673699712clip-2)"/><rect x="81" y="384.46" width="1" height="40.54" style="fill: url(#2939646673699712gp14); fill-opacity: 0.7" transform="matrix(1,0,0,1,0,0)" clip-path="url(#2939646673699712clip-2)"/><rect x="82" y="384.46" width="0.35" height="40.54" style="fill: url(#2939646673699712gp15); fill-opacity: 0.7" transform="matrix(1,0,0,1,0,0)" clip-path="url(#2939646673699712clip-2)"/><rect x="82.35" y="404.73" width="0.65" height="20.27" style="fill: url(#2939646673699712gp16); fill-opacity: 0.7" transform="matrix(1,0,0,1,0,0)" clip-path="url(#2939646673699712clip-2)"/><rect x="83" y="404.73" width="1" height="20.27" style="fill: url(#2939646673699712gp18); fill-opacity: 0.7" transform="matrix(1,0,0,1,0,0)" clip-path="url(#2939646673699712clip-2)"/><rect x="84" y="404.73" width="0.45" height="20.27" style="fill: url(#2939646673699712gp19); fill-opacity: 0.7" transform="matrix(1,0,0,1,0,0)" clip-path="url(#2939646673699712clip-2)"/><rect x="86.55" y="404.73" width="0.45" height="20.27" style="fill: url(#2939646673699712gp20); fill-opacity: 0.7" transform="matrix(1,0,0,1,0,0)" clip-path="url(#2939646673699712clip-2)"/><rect x="87" y="404.73" width="1" height="20.27" style="fill: url(#2939646673699712gp22); fill-opacity: 0.7" transform="matrix(1,0,0,1,0,0)" clip-path="url(#2939646673699712clip-2)"/><rect x="88" y="404.73" width="0.65" height="20.27" style="fill: url(#2939646673699712gp23); fill-opacity: 0.7" transform="matrix(1,0,0,1,0,0)" clip-path="url(#2939646673699712clip-2)"/><rect x="97" y="419.93" width="2" height="5.07" style="fill: url(#2939646673699712gp26); fill-opacity: 0.7" transform="matrix(1,0,0,1,0,0)" clip-path="url(#2939646673699712clip-2)"/><rect x="99" y="419.93" width="0.15" height="5.07" style="fill: url(#2939646673699712gp27); fill-opacity: 0.7" transform="matrix(1,0,0,1,0,0)" clip-path="url(#2939646673699712clip-2)"/><rect x="99" y="419.93" width="1" height="5.07" style="fill: url(#2939646673699712gp29); fill-opacity: 0.7" transform="matrix(1,0,0,1,0,0)" clip-path="url(#2939646673699712clip-2)"/><rect x="100" y="419.93" width="1" height="5.07" style="fill: url(#2939646673699712gp30); fill-opacity: 0.7" transform="matrix(1,0,0,1,0,0)" clip-path="url(#2939646673699712clip-2)"/><rect x="101" y="419.93" width="0.25" height="5.07" style="fill: url(#2939646673699712gp31); fill-opacity: 0.7" transform="matrix(1,0,0,1,0,0)" clip-path="url(#2939646673699712clip-2)"/><rect x="107.54" y="419.93" width="0.46" height="5.07" style="fill: url(#2939646673699712gp32); fill-opacity: 0.7" transform="matrix(1,0,0,1,0,0)" clip-path="url(#2939646673699712clip-2)"/><rect x="108" y="419.93" width="1" height="5.07" style="fill: url(#2939646673699712gp34); fill-opacity: 0.7" transform="matrix(1,0,0,1,0,0)" clip-path="url(#2939646673699712clip-2)"/><rect x="109" y="419.93" width="0.64" height="5.07" style="fill: url(#2939646673699712gp35); fill-opacity: 0.7" transform="matrix(1,0,0,1,0,0)" clip-path="url(#2939646673699712clip-2)"/><rect x="111.74" y="419.93" width="0.26" height="5.07" style="fill: url(#2939646673699712gp36); fill-opacity: 0.7" transform="matrix(1,0,0,1,0,0)" clip-path="url(#2939646673699712clip-2)"/><rect x="112" y="419.93" width="1" height="5.07" style="fill: url(#2939646673699712gp38); fill-opacity: 0.7" transform="matrix(1,0,0,1,0,0)" clip-path="url(#2939646673699712clip-2)"/><rect x="113" y="419.93" width="0.84" height="5.07" style="fill: url(#2939646673699712gp39); fill-opacity: 0.7" transform="matrix(1,0,0,1,0,0)" clip-path="url(#2939646673699712clip-2)"/><rect x="113.84" y="419.93" width="0.16" height="5.07" style="fill: url(#2939646673699712gp40); fill-opacity: 0.7" transform="matrix(1,0,0,1,0,0)" clip-path="url(#2939646673699712clip-2)"/><rect x="114" y="419.93" width="2" height="5.07" style="fill: url(#2939646673699712gp42); fill-opacity: 0.7" transform="matrix(1,0,0,1,0,0)" clip-path="url(#2939646673699712clip-2)"/><rect x="130.64" y="419.93" width="0.36" height="5.07" style="fill: url(#2939646673699712gp44); fill-opacity: 0.7" transform="matrix(1,0,0,1,0,0)" clip-path="url(#2939646673699712clip-2)"/><rect x="131" y="419.93" width="1" height="5.07" style="fill: url(#2939646673699712gp46); fill-opacity: 0.7" transform="matrix(1,0,0,1,0,0)" clip-path="url(#2939646673699712clip-2)"/><rect x="132" y="419.93" width="0.73" height="5.07" style="fill: url(#2939646673699712gp47); fill-opacity: 0.7" transform="matrix(1,0,0,1,0,0)" clip-path="url(#2939646673699712clip-2)"/><rect x="143" y="419.93" width="1" height="5.07" style="fill: url(#2939646673699712gp49); fill-opacity: 0.7" transform="matrix(1,0,0,1,0,0)" clip-path="url(#2939646673699712clip-2)"/><rect x="144" y="419.93" width="1" height="5.07" style="fill: url(#2939646673699712gp50); fill-opacity: 0.7" transform="matrix(1,0,0,1,0,0)" clip-path="url(#2939646673699712clip-2)"/><rect x="145" y="419.93" width="0.33" height="5.07" style="fill: url(#2939646673699712gp51); fill-opacity: 0.7" transform="matrix(1,0,0,1,0,0)" clip-path="url(#2939646673699712clip-2)"/><rect x="271" y="419.93" width="1" height="5.07" style="fill: url(#2939646673699712gp53); fill-opacity: 0.7" transform="matrix(1,0,0,1,0,0)" clip-path="url(#2939646673699712clip-2)"/><rect x="272" y="419.93" width="1" height="5.07" style="fill: url(#2939646673699712gp54); fill-opacity: 0.7" transform="matrix(1,0,0,1,0,0)" clip-path="url(#2939646673699712clip-2)"/><rect x="273" y="419.93" width="0.39" height="5.07" style="fill: url(#2939646673699712gp55); fill-opacity: 0.7" transform="matrix(1,0,0,1,0,0)" clip-path="url(#2939646673699712clip-2)"/><rect x="390.95" y="419.93" width="0.05" height="5.07" style="fill: url(#2939646673699712gp56); fill-opacity: 0.7" transform="matrix(1,0,0,1,0,0)" clip-path="url(#2939646673699712clip-2)"/><rect x="391" y="419.93" width="2" height="5.07" style="fill: url(#2939646673699712gp58); fill-opacity: 0.7" transform="matrix(1,0,0,1,0,0)" clip-path="url(#2939646673699712clip-2)"/><rect x="393" y="419.93" width="0.05" height="5.07" style="fill: url(#2939646673699712gp59); fill-opacity: 0.7" transform="matrix(1,0,0,1,0,0)" clip-path="url(#2939646673699712clip-2)"/><rect x="58" y="10" width="351" height="415" style="stroke-width: 0.5;stroke: rgb(0,0,0);stroke-opacity: 1.0;shape-rendering:crispEdges;; fill: none" transform="matrix(1,0,0,1,0,0)" clip-path="url(#2939646673699712clip-0)"/></svg>
