<!DOCTYPE svg PUBLIC "-//W3C//DTD SVG 1.1//EN" "http://www.w3.org/Graphics/SVG/1.1/DTD/svg11.dtd">
<svg xmlns="http://www.w3.org/2000/svg" xmlns:xlink="http://www.w3.org/1999/xlink" xmlns:jfreesvg="http://www.jfree.org/jfreesvg/svg" width="421" height="476" text-rendering="auto" shape-rendering="auto">
<defs><linearGradient id="2939525181480414gp17" x1="391" y1="0" x2="391" y2="0" gradientUnits="userSpaceOnUse"><stop offset="0%" style="stop-color: rgb(255,255,255);"/><stop offset="100%" style="stop-color: rgb(255,85,85);"/></linearGradient>
<linearGradient id="2939525181480414gp18" x1="391" y1="0" x2="393" y2="0" gradientUnits="userSpaceOnUse"><stop offset="0%" style="stop-color: rgb(255,85,85);"/><stop offset="100%" style="stop-color: rgb(255,121,121);"/></linearGradient>
<linearGradient id="2939525181480414gp13" x1="315" y1="0" x2="316" y2="0" gradientUnits="userSpaceOnUse"><stop offset="0%" style="stop-color: rgb(255,255,255);"/><stop offset="100%" style="stop-color: rgb(255,85,85);"/></linearGradient>
<linearGradient id="2939525181480414gp14" x1="316" y1="0" x2="318" y2="0" gradientUnits="userSpaceOnUse"><stop offset="0%" style="stop-color: rgb(255,85,85);"/><stop offset="100%" style="stop-color: rgb(255,121,121);"/></linearGradient>
<linearGradient id="2939525181480414gp5" x1="159" y1="0" x2="159" y2="0" gradientUnits="userSpaceOnUse"><stop offset="0%" style="stop-color: rgb(255,255,255);"/><stop offset="100%" style="stop-color: rgb(255,85,85);"/></linearGradient>
<linearGradient id="2939525181480414gp0" x1="80.64" y1="0" x2="81" y2="0" gradientUnits="userSpaceOnUse"><stop offset="0%" style="stop-color: rgb(255,85,85);"/><stop offset="100%" style="stop-color: rgb(255,255,255);"/></linearGradient>
<linearGradient id="2939525181480414gp4" x1="158.82" y1="0" x2="159" y2="0" gradientUnits="userSpaceOnUse"><stop offset="0%" style="stop-color: rgb(255,85,85);"/><stop offset="100%" style="stop-color: rgb(255,255,255);"/></linearGradient>
<linearGradient id="2939525181480414gp2" x1="81" y1="0" x2="83" y2="0" gradientUnits="userSpaceOnUse"><stop offset="0%" style="stop-color: rgb(255,85,85);"/><stop offset="100%" style="stop-color: rgb(255,121,121);"/></linearGradient>
<linearGradient id="2939525181480414gp10" x1="238" y1="0" x2="240" y2="0" gradientUnits="userSpaceOnUse"><stop offset="0%" style="stop-color: rgb(255,85,85);"/><stop offset="100%" style="stop-color: rgb(255,121,121);"/></linearGradient>
<linearGradient id="2939525181480414gp19" x1="393" y1="0" x2="393.36" y2="0" gradientUnits="userSpaceOnUse"><stop offset="0%" style="stop-color: rgb(255,121,121);"/><stop offset="100%" style="stop-color: rgb(255,85,85);"/></linearGradient>
<linearGradient id="2939525181480414gp6" x1="159" y1="0" x2="161" y2="0" gradientUnits="userSpaceOnUse"><stop offset="0%" style="stop-color: rgb(255,85,85);"/><stop offset="100%" style="stop-color: rgb(255,121,121);"/></linearGradient>
<linearGradient id="2939525181480414gp1" x1="81" y1="0" x2="81" y2="0" gradientUnits="userSpaceOnUse"><stop offset="0%" style="stop-color: rgb(255,255,255);"/><stop offset="100%" style="stop-color: rgb(255,85,85);"/></linearGradient>
<linearGradient id="2939525181480414gp3" x1="83" y1="0" x2="83.76" y2="0" gradientUnits="userSpaceOnUse"><stop offset="0%" style="stop-color: rgb(255,121,121);"/><stop offset="100%" style="stop-color: rgb(255,85,85);"/></linearGradient>
<linearGradient id="2939525181480414gp7" x1="161" y1="0" x2="161.95" y2="0" gradientUnits="userSpaceOnUse"><stop offset="0%" style="stop-color: rgb(255,121,121);"/><stop offset="100%" style="stop-color: rgb(255,85,85);"/></linearGradient>
<linearGradient id="2939525181480414gp12" x1="315.18" y1="0" x2="315" y2="0" gradientUnits="userSpaceOnUse"><stop offset="0%" style="stop-color: rgb(255,85,85);"/><stop offset="100%" style="stop-color: rgb(255,255,255);"/></linearGradient>
<linearGradient id="2939525181480414gp16" x1="390.24" y1="0" x2="391" y2="0" gradientUnits="userSpaceOnUse"><stop offset="0%" style="stop-color: rgb(255,85,85);"/><stop offset="100%" style="stop-color: rgb(255,255,255);"/></linearGradient>
<linearGradient id="2939525181480414gp15" x1="318" y1="0" x2="318.31" y2="0" gradientUnits="userSpaceOnUse"><stop offset="0%" style="stop-color: rgb(255,121,121);"/><stop offset="100%" style="stop-color: rgb(255,85,85);"/></linearGradient>
<linearGradient id="2939525181480414gp8" x1="237" y1="0" x2="237" y2="0" gradientUnits="userSpaceOnUse"><stop offset="0%" style="stop-color: rgb(255,85,85);"/><stop offset="100%" style="stop-color: rgb(255,255,255);"/></linearGradient>
<linearGradient id="2939525181480414gp11" x1="240" y1="0" x2="240.13" y2="0" gradientUnits="userSpaceOnUse"><stop offset="0%" style="stop-color: rgb(255,121,121);"/><stop offset="100%" style="stop-color: rgb(255,85,85);"/></linearGradient>
<linearGradient id="2939525181480414gp9" x1="237" y1="0" x2="238" y2="0" gradientUnits="userSpaceOnUse"><stop offset="0%" style="stop-color: rgb(255,255,255);"/><stop offset="100%" style="stop-color: rgb(255,85,85);"/></linearGradient>
<clipPath id="2939525181480414clip-0"><path d="M 0 0 L 421 0 L 421 476 L 0 476 L 0 0 M 0 0"/></clipPath>
<clipPath id="2939525181480414clip-1"><path d="M 237.5 197.5 L 237.5 618.5 L -238.5 618.5 L -238.5 197.5 L 237.5 197.5 M 237.5 197.5"/></clipPath>
<clipPath id="2939525181480414clip-2"><path d="M 65 10 L 65 425 L 409 425 L 409 10 M 65 10"/></clipPath>
</defs>
<rect x="0" y="0" width="421" height="476" style="fill: rgb(255,255,255); fill-opacity: 1.0" transform="matrix(1,0,0,1,0,0)" clip-path="url(#2939525181480414clip-0)"/><rect x="65" y="10" width="344" height="415" style="fill: rgb(255,255,255); fill-opacity: 1.0" transform="matrix(1,0,0,1,0,0)" clip-path="url(#2939525181480414clip-0)"/><line x1="65" y1="429" x2="409" y2="429" style="stroke-width: 0.5;stroke: rgb(128,128,128);stroke-opacity: 1.0;shape-rendering:crispEdges;" transform="matrix(1,0,0,1,0,0)" clip-path="url(#2939525181480414clip-0)"/><g transform="matrix(1,0,0,1,0,0)"><text x="72.14" y="442.35" style="fill: rgb(64,64,64); fill-opacity: 1.0; font-family: sans-serif; font-size: 12px; " clip-path="url(#2939525181480414clip-0)">1.0</text></g><line x1="80.64" y1="431" x2="80.64" y2="429" style="stroke-width: 0.5;stroke: rgb(128,128,128);stroke-opacity: 1.0;shape-rendering:crispEdges;" transform="matrix(1,0,0,1,0,0)" clip-path="url(#2939525181480414clip-0)"/><g transform="matrix(1,0,0,1,0,0)"><text x="111.23" y="442.35" style="fill: rgb(64,64,64); fill-opacity: 1.0; font-family: sans-serif; font-size: 12px; " clip-path="url(#2939525181480414clip-0)">1.5</text></g><line x1="119.73" y1="431" x2="119.73" y2="429" style="stroke-width: 0.5;stroke: rgb(128,128,128);stroke-opacity: 1.0;shape-rendering:crispEdges;" transform="matrix(1,0,0,1,0,0)" clip-path="url(#2939525181480414clip-0)"/><g transform="matrix(1,0,0,1,0,0)"><text x="150.32" y="442.35" style="fill: rgb(64,64,64); fill-opacity: 1.0; font-family: sans-serif; font-size: 12px; " clip-path="url(#2939525181480414clip-0)">2.0</text></g><line x1="158.82" y1="431" x2="158.82" y2="429" style="stroke-width: 0.5;stroke: rgb(128,128,128);stroke-opacity: 1.0;shape-rendering:crispEdges;" transform="matrix(1,0,0,1,0,0)" clip-path="url(#2939525181480414clip-0)"/><g transform="matrix(1,0,0,1,0,0)"><text x="189.41" y="442.35" style="fill: rgb(64,64,64); fill-opacity: 1.0; font-family: sans-serif; font-size: 12px; " clip-path="url(#2939525181480414clip-0)">2.5</text></g><line x1="197.91" y1="431" x2="197.91" y2="429" style="stroke-width: 0.5;stroke: rgb(128,128,128);stroke-opacity: 1.0;shape-rendering:crispEdges;" transform="matrix(1,0,0,1,0,0)" clip-path="url(#2939525181480414clip-0)"/><g transform="matrix(1,0,0,1,0,0)"><text x="228.5" y="442.35" style="fill: rgb(64,64,64); fill-opacity: 1.0; font-family: sans-serif; font-size: 12px; " clip-path="url(#2939525181480414clip-0)">3.0</text></g><line x1="237" y1="431" x2="237" y2="429" style="stroke-width: 0.5;stroke: rgb(128,128,128);stroke-opacity: 1.0;shape-rendering:crispEdges;" transform="matrix(1,0,0,1,0,0)" clip-path="url(#2939525181480414clip-0)"/><g transform="matrix(1,0,0,1,0,0)"><text x="267.59" y="442.35" style="fill: rgb(64,64,64); fill-opacity: 1.0; font-family: sans-serif; font-size: 12px; " clip-path="url(#2939525181480414clip-0)">3.5</text></g><line x1="276.09" y1="431" x2="276.09" y2="429" style="stroke-width: 0.5;stroke: rgb(128,128,128);stroke-opacity: 1.0;shape-rendering:crispEdges;" transform="matrix(1,0,0,1,0,0)" clip-path="url(#2939525181480414clip-0)"/><g transform="matrix(1,0,0,1,0,0)"><text x="306.68" y="442.35" style="fill: rgb(64,64,64); fill-opacity: 1.0; font-family: sans-serif; font-size: 12px; " clip-path="url(#2939525181480414clip-0)">4.0</text></g><line x1="315.18" y1="431" x2="315.18" y2="429" style="stroke-width: 0.5;stroke: rgb(128,128,128);stroke-opacity: 1.0;shape-rendering:crispEdges;" transform="matrix(1,0,0,1,0,0)" clip-path="url(#2939525181480414clip-0)"/><g transform="matrix(1,0,0,1,0,0)"><text x="345.77" y="442.35" style="fill: rgb(64,64,64); fill-opacity: 1.0; font-family: sans-serif; font-size: 12px; " clip-path="url(#2939525181480414clip-0)">4.5</text></g><line x1="354.27" y1="431" x2="354.27" y2="429" style="stroke-width: 0.5;stroke: rgb(128,128,128);stroke-opacity: 1.0;shape-rendering:crispEdges;" transform="matrix(1,0,0,1,0,0)" clip-path="url(#2939525181480414clip-0)"/><g transform="matrix(1,0,0,1,0,0)"><text x="384.86" y="442.35" style="fill: rgb(64,64,64); fill-opacity: 1.0; font-family: sans-serif; font-size: 12px; " clip-path="url(#2939525181480414clip-0)">5.0</text></g><line x1="393.36" y1="431" x2="393.36" y2="429" style="stroke-width: 0.5;stroke: rgb(128,128,128);stroke-opacity: 1.0;shape-rendering:crispEdges;" transform="matrix(1,0,0,1,0,0)" clip-path="url(#2939525181480414clip-0)"/><g transform="matrix(1,0,0,1,0,0)"><text x="192" y="461.81" style="fill: rgb(64,64,64); fill-opacity: 1.0; font-family: sans-serif; font-size: 14px; font-weight: bold; " clip-path="url(#2939525181480414clip-0)">Edit distance</text></g><line x1="61" y1="10" x2="61" y2="425" style="stroke-width: 0.5;stroke: rgb(128,128,128);stroke-opacity: 1.0;shape-rendering:crispEdges;" transform="matrix(1,0,0,1,0,0)" clip-path="url(#2939525181480414clip-0)"/><g transform="matrix(1,0,0,1,0,0)"><text x="48" y="426.85" style="fill: rgb(64,64,64); fill-opacity: 1.0; font-family: sans-serif; font-size: 12px; " clip-path="url(#2939525181480414clip-0)">0</text></g><line x1="59" y1="425" x2="61" y2="425" style="stroke-width: 0.5;stroke: rgb(128,128,128);stroke-opacity: 1.0;shape-rendering:crispEdges;" transform="matrix(1,0,0,1,0,0)" clip-path="url(#2939525181480414clip-0)"/><g transform="matrix(1,0,0,1,0,0)"><text x="41" y="390.92" style="fill: rgb(64,64,64); fill-opacity: 1.0; font-family: sans-serif; font-size: 12px; " clip-path="url(#2939525181480414clip-0)">20</text></g><line x1="59" y1="389.07" x2="61" y2="389.07" style="stroke-width: 0.5;stroke: rgb(128,128,128);stroke-opacity: 1.0;shape-rendering:crispEdges;" transform="matrix(1,0,0,1,0,0)" clip-path="url(#2939525181480414clip-0)"/><g transform="matrix(1,0,0,1,0,0)"><text x="41" y="354.99" style="fill: rgb(64,64,64); fill-opacity: 1.0; font-family: sans-serif; font-size: 12px; " clip-path="url(#2939525181480414clip-0)">40</text></g><line x1="59" y1="353.14" x2="61" y2="353.14" style="stroke-width: 0.5;stroke: rgb(128,128,128);stroke-opacity: 1.0;shape-rendering:crispEdges;" transform="matrix(1,0,0,1,0,0)" clip-path="url(#2939525181480414clip-0)"/><g transform="matrix(1,0,0,1,0,0)"><text x="41" y="319.06" style="fill: rgb(64,64,64); fill-opacity: 1.0; font-family: sans-serif; font-size: 12px; " clip-path="url(#2939525181480414clip-0)">60</text></g><line x1="59" y1="317.21" x2="61" y2="317.21" style="stroke-width: 0.5;stroke: rgb(128,128,128);stroke-opacity: 1.0;shape-rendering:crispEdges;" transform="matrix(1,0,0,1,0,0)" clip-path="url(#2939525181480414clip-0)"/><g transform="matrix(1,0,0,1,0,0)"><text x="41" y="283.13" style="fill: rgb(64,64,64); fill-opacity: 1.0; font-family: sans-serif; font-size: 12px; " clip-path="url(#2939525181480414clip-0)">80</text></g><line x1="59" y1="281.28" x2="61" y2="281.28" style="stroke-width: 0.5;stroke: rgb(128,128,128);stroke-opacity: 1.0;shape-rendering:crispEdges;" transform="matrix(1,0,0,1,0,0)" clip-path="url(#2939525181480414clip-0)"/><g transform="matrix(1,0,0,1,0,0)"><text x="34" y="247.19" style="fill: rgb(64,64,64); fill-opacity: 1.0; font-family: sans-serif; font-size: 12px; " clip-path="url(#2939525181480414clip-0)">100</text></g><line x1="59" y1="245.35" x2="61" y2="245.35" style="stroke-width: 0.5;stroke: rgb(128,128,128);stroke-opacity: 1.0;shape-rendering:crispEdges;" transform="matrix(1,0,0,1,0,0)" clip-path="url(#2939525181480414clip-0)"/><g transform="matrix(1,0,0,1,0,0)"><text x="34" y="211.26" style="fill: rgb(64,64,64); fill-opacity: 1.0; font-family: sans-serif; font-size: 12px; " clip-path="url(#2939525181480414clip-0)">120</text></g><line x1="59" y1="209.42" x2="61" y2="209.42" style="stroke-width: 0.5;stroke: rgb(128,128,128);stroke-opacity: 1.0;shape-rendering:crispEdges;" transform="matrix(1,0,0,1,0,0)" clip-path="url(#2939525181480414clip-0)"/><g transform="matrix(1,0,0,1,0,0)"><text x="34" y="175.33" style="fill: rgb(64,64,64); fill-opacity: 1.0; font-family: sans-serif; font-size: 12px; " clip-path="url(#2939525181480414clip-0)">140</text></g><line x1="59" y1="173.48" x2="61" y2="173.48" style="stroke-width: 0.5;stroke: rgb(128,128,128);stroke-opacity: 1.0;shape-rendering:crispEdges;" transform="matrix(1,0,0,1,0,0)" clip-path="url(#2939525181480414clip-0)"/><g transform="matrix(1,0,0,1,0,0)"><text x="34" y="139.4" style="fill: rgb(64,64,64); fill-opacity: 1.0; font-family: sans-serif; font-size: 12px; " clip-path="url(#2939525181480414clip-0)">160</text></g><line x1="59" y1="137.55" x2="61" y2="137.55" style="stroke-width: 0.5;stroke: rgb(128,128,128);stroke-opacity: 1.0;shape-rendering:crispEdges;" transform="matrix(1,0,0,1,0,0)" clip-path="url(#2939525181480414clip-0)"/><g transform="matrix(1,0,0,1,0,0)"><text x="34" y="103.47" style="fill: rgb(64,64,64); fill-opacity: 1.0; font-family: sans-serif; font-size: 12px; " clip-path="url(#2939525181480414clip-0)">180</text></g><line x1="59" y1="101.62" x2="61" y2="101.62" style="stroke-width: 0.5;stroke: rgb(128,128,128);stroke-opacity: 1.0;shape-rendering:crispEdges;" transform="matrix(1,0,0,1,0,0)" clip-path="url(#2939525181480414clip-0)"/><g transform="matrix(1,0,0,1,0,0)"><text x="34" y="67.54" style="fill: rgb(64,64,64); fill-opacity: 1.0; font-family: sans-serif; font-size: 12px; " clip-path="url(#2939525181480414clip-0)">200</text></g><line x1="59" y1="65.69" x2="61" y2="65.69" style="stroke-width: 0.5;stroke: rgb(128,128,128);stroke-opacity: 1.0;shape-rendering:crispEdges;" transform="matrix(1,0,0,1,0,0)" clip-path="url(#2939525181480414clip-0)"/><g transform="matrix(1,0,0,1,0,0)"><text x="34" y="31.61" style="fill: rgb(64,64,64); fill-opacity: 1.0; font-family: sans-serif; font-size: 12px; " clip-path="url(#2939525181480414clip-0)">220</text></g><line x1="59" y1="29.76" x2="61" y2="29.76" style="stroke-width: 0.5;stroke: rgb(128,128,128);stroke-opacity: 1.0;shape-rendering:crispEdges;" transform="matrix(1,0,0,1,0,0)" clip-path="url(#2939525181480414clip-0)"/><g style="fill: rgb(64,64,64); fill-opacity: 1.0; stroke: none" transform="matrix(0,-1,1,0,-197.5,237.5)" clip-path="url(#2939525181480414clip-1)"><path d="M -18.05 209.53 C -19.47 209.53 -20.64 210.02 -21.52 210.95 C -22.42 211.92 -22.94 213.36 -22.94 214.87 C -22.94 216.41 -22.42 217.84 -21.52 218.81 C -20.62 219.77 -19.48 220.23 -18.03 220.23 C -16.56 220.23 -15.42 219.77 -14.55 218.81 C -13.66 217.87 -13.11 216.39 -13.11 214.95 C -13.11 213.36 -13.62 211.91 -14.55 210.95 C -15.44 209.98 -16.56 209.53 -18.05 209.53 M -18.05 209.53 M -18.03 211.33 C -16.3 211.33 -15.22 212.72 -15.22 214.94 C -15.22 217.03 -16.34 218.44 -18.03 218.44 C -19.73 218.44 -20.84 217.03 -20.84 214.87 C -20.84 212.72 -19.73 211.33 -18.03 211.33 M -18.03 211.33 M -5.3 215.17 C -5.44 213.33 -6.65 212.22 -8.56 212.22 C -10.83 212.22 -12.14 213.7 -12.14 216.28 C -12.14 218.77 -10.83 220.23 -8.59 220.23 C -6.75 220.23 -5.48 219.09 -5.3 217.28 L -7.17 217.28 C -7.42 218.27 -7.81 218.64 -8.59 218.64 C -9.58 218.64 -10.17 217.77 -10.17 216.28 C -10.17 215.55 -10.03 214.89 -9.8 214.45 C -9.58 214.03 -9.14 213.8 -8.58 213.8 C -7.78 213.8 -7.4 214.19 -7.17 215.17 L -5.3 215.17 M -5.3 215.17 M 2.49 215.17 C 2.35 213.33 1.13 212.22 -0.78 212.22 C -3.04 212.22 -4.36 213.7 -4.36 216.28 C -4.36 218.77 -3.04 220.23 -0.81 220.23 C 1.04 220.23 2.3 219.09 2.49 217.28 L 0.61 217.28 C 0.36 218.27 -0.03 218.64 -0.81 218.64 C -1.79 218.64 -2.39 217.77 -2.39 216.28 C -2.39 215.55 -2.25 214.89 -2.01 214.45 C -1.79 214.03 -1.36 213.8 -0.79 213.8 C 0 213.8 0.38 214.19 0.61 215.17 L 2.49 215.17 M 2.49 215.17 M 10.54 219.91 L 10.54 212.34 L 8.57 212.34 L 8.57 217.08 C 8.57 217.97 7.96 218.56 6.99 218.56 C 6.15 218.56 5.73 218.11 5.73 217.2 L 5.73 212.34 L 3.77 212.34 L 3.77 217.61 C 3.77 219.3 4.68 220.23 6.3 220.23 C 7.33 220.23 8.01 219.86 8.57 219.02 L 8.57 219.91 L 10.54 219.91 M 10.54 219.91 M 12.39 212.34 L 12.39 219.91 L 14.36 219.91 L 14.36 215.89 C 14.36 214.73 14.94 214.17 16.08 214.17 C 16.3 214.17 16.42 214.19 16.7 214.22 L 16.7 212.23 C 16.58 212.22 16.55 212.22 16.45 212.22 C 15.56 212.22 14.8 212.81 14.36 213.83 L 14.36 212.34 L 12.39 212.34 M 12.39 212.34 M 17.83 212.34 L 17.83 219.91 L 19.8 219.91 L 19.8 215.89 C 19.8 214.73 20.38 214.17 21.52 214.17 C 21.74 214.17 21.87 214.19 22.15 214.22 L 22.15 212.23 C 22.02 212.22 21.99 212.22 21.9 212.22 C 21.01 212.22 20.24 212.81 19.8 213.83 L 19.8 212.34 L 17.83 212.34 M 17.83 212.34 M 29.75 216.75 C 29.75 216.58 29.75 216.5 29.75 216.41 C 29.75 215.66 29.64 214.95 29.47 214.42 C 28.95 213.05 27.73 212.22 26.22 212.22 C 24.05 212.22 22.72 213.78 22.72 216.33 C 22.72 218.75 24.03 220.23 26.17 220.23 C 27.86 220.23 29.23 219.28 29.67 217.78 L 27.73 217.78 C 27.5 218.37 26.95 218.73 26.25 218.73 C 25.69 218.73 25.23 218.5 24.95 218.08 C 24.77 217.8 24.7 217.45 24.67 216.75 L 29.75 216.75 M 29.75 216.75 M 24.7 215.44 C 24.83 214.28 25.31 213.72 26.19 213.72 C 27.08 213.72 27.61 214.31 27.72 215.44 L 24.7 215.44 M 24.7 215.44 M 31.06 212.34 L 31.06 219.91 L 33.03 219.91 L 33.03 215.37 C 33.03 214.47 33.64 213.89 34.61 213.89 C 35.46 213.89 35.88 214.34 35.88 215.25 L 35.88 219.91 L 37.83 219.91 L 37.83 214.84 C 37.83 213.16 36.92 212.22 35.3 212.22 C 34.28 212.22 33.6 212.58 33.03 213.44 L 33.03 212.34 L 31.06 212.34 M 31.06 212.34 M 46.06 215.17 C 45.92 213.33 44.7 212.22 42.79 212.22 C 40.53 212.22 39.21 213.7 39.21 216.28 C 39.21 218.77 40.53 220.23 42.76 220.23 C 44.6 220.23 45.87 219.09 46.06 217.28 L 44.18 217.28 C 43.93 218.27 43.54 218.64 42.76 218.64 C 41.78 218.64 41.18 217.77 41.18 216.28 C 41.18 215.55 41.32 214.89 41.56 214.45 C 41.78 214.03 42.21 213.8 42.78 213.8 C 43.57 213.8 43.95 214.19 44.18 215.17 L 46.06 215.17 M 46.06 215.17 M 53.87 216.75 C 53.87 216.58 53.87 216.5 53.87 216.41 C 53.87 215.66 53.76 214.95 53.59 214.42 C 53.07 213.05 51.86 212.22 50.34 212.22 C 48.17 212.22 46.84 213.78 46.84 216.33 C 46.84 218.75 48.15 220.23 50.29 220.23 C 51.98 220.23 53.36 219.28 53.79 217.78 L 51.86 217.78 C 51.62 218.37 51.07 218.73 50.37 218.73 C 49.81 218.73 49.36 218.5 49.07 218.08 C 48.89 217.8 48.82 217.45 48.79 216.75 L 53.87 216.75 M 53.87 216.75 M 48.82 215.44 C 48.95 214.28 49.43 213.72 50.31 213.72 C 51.2 213.72 51.73 214.31 51.84 215.44 L 48.82 215.44 M 48.82 215.44 M 61.37 214.78 C 61.36 213.19 60.12 212.22 58.09 212.22 C 56.17 212.22 54.98 213.19 54.98 214.73 C 54.98 215.25 55.14 215.67 55.41 215.97 C 55.67 216.23 55.91 216.36 56.64 216.61 L 58.97 217.33 C 59.47 217.48 59.62 217.64 59.62 217.95 C 59.62 218.41 59.09 218.69 58.17 218.69 C 57.66 218.69 57.26 218.61 57.01 218.42 C 56.8 218.27 56.72 218.11 56.64 217.7 L 54.72 217.7 C 54.78 219.37 56 220.23 58.28 220.23 C 59.34 220.23 60.14 220 60.7 219.56 C 61.25 219.11 61.59 218.41 61.59 217.67 C 61.59 216.69 61.11 216.06 60.11 215.77 L 57.62 215.05 C 57.08 214.87 56.94 214.77 56.94 214.45 C 56.94 214.05 57.39 213.77 58.08 213.77 C 59.01 213.77 59.48 214.09 59.5 214.78 L 61.37 214.78 M 61.37 214.78"/></g><line x1="80.64" y1="10" x2="80.64" y2="425" style="stroke-width: 0.5;stroke: rgb(150,150,150);stroke-opacity: 0.7;stroke-dasharray: 2.0, 2.0;shape-rendering:crispEdges;" transform="matrix(1,0,0,1,0,0)" clip-path="url(#2939525181480414clip-2)"/><line x1="119.73" y1="10" x2="119.73" y2="425" style="stroke-width: 0.5;stroke: rgb(150,150,150);stroke-opacity: 0.7;stroke-dasharray: 2.0, 2.0;shape-rendering:crispEdges;" transform="matrix(1,0,0,1,0,0)" clip-path="url(#2939525181480414clip-2)"/><line x1="158.82" y1="10" x2="158.82" y2="425" style="stroke-width: 0.5;stroke: rgb(150,150,150);stroke-opacity: 0.7;stroke-dasharray: 2.0, 2.0;shape-rendering:crispEdges;" transform="matrix(1,0,0,1,0,0)" clip-path="url(#2939525181480414clip-2)"/><line x1="197.91" y1="10" x2="197.91" y2="425" style="stroke-width: 0.5;stroke: rgb(150,150,150);stroke-opacity: 0.7;stroke-dasharray: 2.0, 2.0;shape-rendering:crispEdges;" transform="matrix(1,0,0,1,0,0)" clip-path="url(#2939525181480414clip-2)"/><line x1="237" y1="10" x2="237" y2="425" style="stroke-width: 0.5;stroke: rgb(150,150,150);stroke-opacity: 0.7;stroke-dasharray: 2.0, 2.0;shape-rendering:crispEdges;" transform="matrix(1,0,0,1,0,0)" clip-path="url(#2939525181480414clip-2)"/><line x1="276.09" y1="10" x2="276.09" y2="425" style="stroke-width: 0.5;stroke: rgb(150,150,150);stroke-opacity: 0.7;stroke-dasharray: 2.0, 2.0;shape-rendering:crispEdges;" transform="matrix(1,0,0,1,0,0)" clip-path="url(#2939525181480414clip-2)"/><line x1="315.18" y1="10" x2="315.18" y2="425" style="stroke-width: 0.5;stroke: rgb(150,150,150);stroke-opacity: 0.7;stroke-dasharray: 2.0, 2.0;shape-rendering:crispEdges;" transform="matrix(1,0,0,1,0,0)" clip-path="url(#2939525181480414clip-2)"/><line x1="354.27" y1="10" x2="354.27" y2="425" style="stroke-width: 0.5;stroke: rgb(150,150,150);stroke-opacity: 0.7;stroke-dasharray: 2.0, 2.0;shape-rendering:crispEdges;" transform="matrix(1,0,0,1,0,0)" clip-path="url(#2939525181480414clip-2)"/><line x1="393.36" y1="10" x2="393.36" y2="425" style="stroke-width: 0.5;stroke: rgb(150,150,150);stroke-opacity: 0.7;stroke-dasharray: 2.0, 2.0;shape-rendering:crispEdges;" transform="matrix(1,0,0,1,0,0)" clip-path="url(#2939525181480414clip-2)"/><line x1="65" y1="389.07" x2="409" y2="389.07" style="stroke-width: 0.5;stroke: rgb(150,150,150);stroke-opacity: 0.7;stroke-dasharray: 2.0, 2.0;shape-rendering:crispEdges;" transform="matrix(1,0,0,1,0,0)" clip-path="url(#2939525181480414clip-2)"/><line x1="65" y1="353.14" x2="409" y2="353.14" style="stroke-width: 0.5;stroke: rgb(150,150,150);stroke-opacity: 0.7;stroke-dasharray: 2.0, 2.0;shape-rendering:crispEdges;" transform="matrix(1,0,0,1,0,0)" clip-path="url(#2939525181480414clip-2)"/><line x1="65" y1="317.21" x2="409" y2="317.21" style="stroke-width: 0.5;stroke: rgb(150,150,150);stroke-opacity: 0.7;stroke-dasharray: 2.0, 2.0;shape-rendering:crispEdges;" transform="matrix(1,0,0,1,0,0)" clip-path="url(#2939525181480414clip-2)"/><line x1="65" y1="281.28" x2="409" y2="281.28" style="stroke-width: 0.5;stroke: rgb(150,150,150);stroke-opacity: 0.7;stroke-dasharray: 2.0, 2.0;shape-rendering:crispEdges;" transform="matrix(1,0,0,1,0,0)" clip-path="url(#2939525181480414clip-2)"/><line x1="65" y1="245.35" x2="409" y2="245.35" style="stroke-width: 0.5;stroke: rgb(150,150,150);stroke-opacity: 0.7;stroke-dasharray: 2.0, 2.0;shape-rendering:crispEdges;" transform="matrix(1,0,0,1,0,0)" clip-path="url(#2939525181480414clip-2)"/><line x1="65" y1="209.42" x2="409" y2="209.42" style="stroke-width: 0.5;stroke: rgb(150,150,150);stroke-opacity: 0.7;stroke-dasharray: 2.0, 2.0;shape-rendering:crispEdges;" transform="matrix(1,0,0,1,0,0)" clip-path="url(#2939525181480414clip-2)"/><line x1="65" y1="173.48" x2="409" y2="173.48" style="stroke-width: 0.5;stroke: rgb(150,150,150);stroke-opacity: 0.7;stroke-dasharray: 2.0, 2.0;shape-rendering:crispEdges;" transform="matrix(1,0,0,1,0,0)" clip-path="url(#2939525181480414clip-2)"/><line x1="65" y1="137.55" x2="409" y2="137.55" style="stroke-width: 0.5;stroke: rgb(150,150,150);stroke-opacity: 0.7;stroke-dasharray: 2.0, 2.0;shape-rendering:crispEdges;" transform="matrix(1,0,0,1,0,0)" clip-path="url(#2939525181480414clip-2)"/><line x1="65" y1="101.62" x2="409" y2="101.62" style="stroke-width: 0.5;stroke: rgb(150,150,150);stroke-opacity: 0.7;stroke-dasharray: 2.0, 2.0;shape-rendering:crispEdges;" transform="matrix(1,0,0,1,0,0)" clip-path="url(#2939525181480414clip-2)"/><line x1="65" y1="65.69" x2="409" y2="65.69" style="stroke-width: 0.5;stroke: rgb(150,150,150);stroke-opacity: 0.7;stroke-dasharray: 2.0, 2.0;shape-rendering:crispEdges;" transform="matrix(1,0,0,1,0,0)" clip-path="url(#2939525181480414clip-2)"/><line x1="65" y1="29.76" x2="409" y2="29.76" style="stroke-width: 0.5;stroke: rgb(150,150,150);stroke-opacity: 0.7;stroke-dasharray: 2.0, 2.0;shape-rendering:crispEdges;" transform="matrix(1,0,0,1,0,0)" clip-path="url(#2939525181480414clip-2)"/><line x1="65" y1="425" x2="409" y2="425" style="stroke-width: 0.5;stroke: rgb(0,0,0);stroke-opacity: 0.7;shape-rendering:crispEdges;" transform="matrix(1,0,0,1,0,0)" clip-path="url(#2939525181480414clip-2)"/><rect x="80.64" y="412.42" width="0.36" height="12.58" style="fill: url(#2939525181480414gp0); fill-opacity: 0.7" transform="matrix(1,0,0,1,0,0)" clip-path="url(#2939525181480414clip-2)"/><rect x="81" y="412.42" width="2" height="12.58" style="fill: url(#2939525181480414gp2); fill-opacity: 0.7" transform="matrix(1,0,0,1,0,0)" clip-path="url(#2939525181480414clip-2)"/><rect x="83" y="412.42" width="0.76" height="12.58" style="fill: url(#2939525181480414gp3); fill-opacity: 0.7" transform="matrix(1,0,0,1,0,0)" clip-path="url(#2939525181480414clip-2)"/><rect x="158.82" y="326.19" width="0.18" height="98.81" style="fill: url(#2939525181480414gp4); fill-opacity: 0.7" transform="matrix(1,0,0,1,0,0)" clip-path="url(#2939525181480414clip-2)"/><rect x="159" y="326.19" width="2" height="98.81" style="fill: url(#2939525181480414gp6); fill-opacity: 0.7" transform="matrix(1,0,0,1,0,0)" clip-path="url(#2939525181480414clip-2)"/><rect x="161" y="326.19" width="0.95" height="98.81" style="fill: url(#2939525181480414gp7); fill-opacity: 0.7" transform="matrix(1,0,0,1,0,0)" clip-path="url(#2939525181480414clip-2)"/><rect x="237" y="29.76" width="1" height="395.24" style="fill: url(#2939525181480414gp9); fill-opacity: 0.7" transform="matrix(1,0,0,1,0,0)" clip-path="url(#2939525181480414clip-2)"/><rect x="238" y="29.76" width="2" height="395.24" style="fill: url(#2939525181480414gp10); fill-opacity: 0.7" transform="matrix(1,0,0,1,0,0)" clip-path="url(#2939525181480414clip-2)"/><rect x="240" y="29.76" width="0.13" height="395.24" style="fill: url(#2939525181480414gp11); fill-opacity: 0.7" transform="matrix(1,0,0,1,0,0)" clip-path="url(#2939525181480414clip-2)"/><rect x="315" y="394.46" width="1" height="30.54" style="fill: url(#2939525181480414gp13); fill-opacity: 0.7" transform="matrix(1,0,0,1,0,0)" clip-path="url(#2939525181480414clip-2)"/><rect x="316" y="394.46" width="2" height="30.54" style="fill: url(#2939525181480414gp14); fill-opacity: 0.7" transform="matrix(1,0,0,1,0,0)" clip-path="url(#2939525181480414clip-2)"/><rect x="318" y="394.46" width="0.31" height="30.54" style="fill: url(#2939525181480414gp15); fill-opacity: 0.7" transform="matrix(1,0,0,1,0,0)" clip-path="url(#2939525181480414clip-2)"/><rect x="390.24" y="419.61" width="0.76" height="5.39" style="fill: url(#2939525181480414gp16); fill-opacity: 0.7" transform="matrix(1,0,0,1,0,0)" clip-path="url(#2939525181480414clip-2)"/><rect x="391" y="419.61" width="2" height="5.39" style="fill: url(#2939525181480414gp18); fill-opacity: 0.7" transform="matrix(1,0,0,1,0,0)" clip-path="url(#2939525181480414clip-2)"/><rect x="393" y="419.61" width="0.36" height="5.39" style="fill: url(#2939525181480414gp19); fill-opacity: 0.7" transform="matrix(1,0,0,1,0,0)" clip-path="url(#2939525181480414clip-2)"/><rect x="65" y="10" width="344" height="415" style="stroke-width: 0.5;stroke: rgb(0,0,0);stroke-opacity: 1.0;shape-rendering:crispEdges;; fill: none" transform="matrix(1,0,0,1,0,0)" clip-path="url(#2939525181480414clip-0)"/></svg>
